<svg width="85" height="61" viewBox="0 0 85 61" fill="none" xmlns="http://www.w3.org/2000/svg">
<path opacity="0.997" fill-rule="evenodd" clip-rule="evenodd" d="M75.5337 6.07788C75.568 6.07788 75.6023 6.07788 75.6365 6.07788C75.6573 8.15688 75.6801 10.2358 75.7051 12.3145C77.584 12.0376 79.4628 11.7663 81.3421 11.5007C81.3306 11.5064 81.3193 11.5121 81.3078 11.5178C81.3304 11.7339 81.3419 11.9538 81.3421 12.1775C81.3535 13.4853 81.365 14.7932 81.3763 16.1011C81.3763 16.3279 81.3705 16.5535 81.3592 16.7779C79.4863 17.0589 77.6131 17.3359 75.7393 17.6088C75.7448 20.219 75.7649 22.8291 75.7993 25.4389C75.8127 25.9728 75.9042 26.4926 76.0735 26.9981C76.3303 27.666 76.8129 28.0571 77.5212 28.1717C78.0145 28.2288 78.5057 28.2117 78.9947 28.1203C79.5122 28.0239 80.0205 27.8925 80.5196 27.7263C80.8604 27.5974 81.1603 27.406 81.4192 27.1523C81.4594 28.9739 81.4822 30.7958 81.4877 32.6179C80.9096 32.9231 80.307 33.1715 79.6801 33.3632C78.4189 33.7285 77.1339 33.9628 75.825 34.0657C74.926 34.1308 74.0351 34.0738 73.1522 33.8944C71.2423 33.4465 70.0458 32.2729 69.5627 30.3734C69.4631 29.9331 69.4002 29.4876 69.3742 29.037C69.3434 25.5476 69.3177 22.0579 69.2971 18.5683C67.9523 18.7674 66.6073 18.9672 65.2621 19.168C65.2421 19.1623 65.2222 19.1565 65.2021 19.1509C66.1053 17.2505 67.019 15.3572 67.9435 13.4711C68.3786 13.4093 68.8126 13.3437 69.2457 13.274C69.2513 13.0113 69.2572 12.7486 69.2628 12.4859C69.2441 10.664 69.227 8.84212 69.2114 7.02023C71.3228 6.717 73.4302 6.40287 75.5337 6.07788Z" fill="white"/>
<path opacity="0.997" fill-rule="evenodd" clip-rule="evenodd" d="M9.12398 13.6338C9.16968 13.6338 9.21535 13.6338 9.26105 13.6338C9.27328 17.249 9.29042 20.8642 9.31245 24.4794C9.34644 24.4815 9.37499 24.47 9.39812 24.4451C10.2924 23.0856 11.4974 22.1062 13.0133 21.5067C14.5258 20.8719 16.1021 20.5692 17.7422 20.5986C19.5938 20.7196 21.1931 21.4106 22.5396 22.6718C23.7671 23.9006 24.6094 25.3597 25.0668 27.0494C25.6602 29.2868 25.7116 31.5371 25.221 33.8001C24.674 36.2458 23.5118 38.3388 21.7343 40.0796C19.5236 42.1134 16.9079 43.1357 13.8871 43.1465C12.3696 43.0274 11.0161 42.502 9.82646 41.5702C9.54884 41.3441 9.30041 41.0898 9.08115 40.8078C8.67972 41.7676 8.27138 42.7244 7.85609 43.6777C6.26208 43.9124 4.66865 44.1494 3.07581 44.3887C2.98973 34.4514 2.90977 24.5138 2.83594 14.5761C4.935 14.2672 7.03102 13.9531 9.12398 13.6338ZM14.9323 26.6896C16.9668 26.7116 18.2946 27.6882 18.9158 29.6195C19.2357 30.8917 19.2186 32.1596 18.8644 33.4232C18.079 35.8027 16.4427 37.1648 13.9557 37.5096C13.2002 37.6297 12.452 37.5954 11.7112 37.4067C10.6564 37.0716 9.88829 36.4063 9.40668 35.4107C9.05276 34.6033 8.88428 33.7581 8.90124 32.8749C8.87278 31.2552 9.3725 29.8273 10.4004 28.5915C11.0793 27.8421 11.9046 27.3195 12.8762 27.0237C13.5497 26.8236 14.235 26.7123 14.9323 26.6896Z" fill="white"/>
<path opacity="0.997" fill-rule="evenodd" clip-rule="evenodd" d="M59.6514 14.3021C60.7064 14.2776 61.7515 14.3661 62.7869 14.5677C63.9071 14.8206 64.8864 15.3318 65.7253 16.1011C65.7368 16.1125 65.7368 16.124 65.7253 16.1354C64.4406 17.6514 63.1527 19.1648 61.8617 20.6758C60.8989 19.6533 59.7167 19.2335 58.315 19.4165C57.6204 19.4881 56.9921 19.728 56.4303 20.1361C55.9951 20.4899 55.778 20.9496 55.7792 21.5153C55.8029 22.0787 56.0885 22.4299 56.6359 22.5691C57.2258 22.7312 57.8255 22.8396 58.4349 22.8946C59.5034 22.9876 60.5713 23.0846 61.6389 23.1859C62.5331 23.3022 63.384 23.5592 64.1918 23.9569C65.7831 24.8504 66.5969 26.2184 66.6334 28.0604C66.7208 29.1436 66.5779 30.1944 66.2051 31.213C65.7087 32.3284 64.9976 33.2851 64.0719 34.0829C63.0509 34.9307 61.9086 35.5761 60.6452 36.019C58.9428 36.6233 57.1895 36.966 55.3852 37.047C54.1841 37.0915 52.9962 36.9887 51.8214 36.7386C50.725 36.4675 49.7598 35.9592 48.9258 35.2137C50.2129 33.5504 51.4979 31.8857 52.7808 30.2192C53.1907 30.6493 53.6476 31.0177 54.1515 31.3244C54.9299 31.777 55.7695 31.977 56.6702 31.924C57.6353 31.8769 58.5492 31.6371 59.4116 31.2044C60.0692 30.8516 60.3347 30.3061 60.2083 29.5682C60.0961 29.1988 59.8589 28.9447 59.4972 28.8057C59.0355 28.6414 58.5614 28.5271 58.0751 28.463C56.9454 28.35 55.8145 28.2472 54.6827 28.1546C53.6756 28.0614 52.7104 27.8101 51.7871 27.4008C50.9794 26.9871 50.3426 26.3902 49.8767 25.6103C49.5407 24.9188 49.3637 24.1877 49.3456 23.4172C49.202 21.4484 49.7389 19.6951 50.9561 18.1572C51.9086 17.0083 53.0651 16.1259 54.4257 15.51C56.09 14.7654 57.832 14.3627 59.6514 14.3021Z" fill="white"/>
<path opacity="0.996" fill-rule="evenodd" clip-rule="evenodd" d="M39.0393 17.2319C40.4924 17.2158 41.8859 17.4928 43.2199 18.0628C45.0014 18.8793 46.3579 20.1501 47.2891 21.8751C47.7252 22.7472 48.085 23.6494 48.3686 24.5822C48.398 24.6835 48.4093 24.7863 48.4028 24.8906C46.9391 25.541 45.4742 26.1893 44.008 26.8353C45.1819 27.113 46.3528 27.3986 47.5204 27.692C40.9889 30.4553 34.4552 33.2082 27.9195 35.9504C31.629 33.6017 35.3411 31.2571 39.0564 28.917C37.5658 28.501 36.0752 28.0869 34.5845 27.6748C36.8532 26.44 39.1263 25.212 41.4037 23.9911C41.268 23.7982 41.1082 23.6268 40.924 23.4771C40.0841 22.8622 39.1417 22.5938 38.0969 22.6718C35.5207 22.8954 33.873 24.2462 33.1539 26.7239C32.8362 28.1491 32.8247 29.577 33.1196 31.0073C33.1636 31.1908 33.2179 31.3707 33.2824 31.547C31.5149 32.6679 29.7443 33.7844 27.9709 34.8967C27.3677 33.7463 26.9935 32.524 26.8487 31.2301C26.4764 27.6706 27.4016 24.5008 29.6243 21.7209C32.0965 18.853 35.2349 17.3566 39.0393 17.2319Z" fill="white"/>
<path opacity="0.996" fill-rule="evenodd" clip-rule="evenodd" d="M42.072 31.5386C43.9966 31.7509 45.9212 31.965 47.846 32.1811C47.0572 34.1244 45.8407 35.7464 44.1966 37.047C41.4906 39.1099 38.4352 39.9952 35.0301 39.7028C32.5901 39.4026 30.5798 38.3232 28.999 36.4645C31.0299 35.6005 33.0629 34.741 35.0986 33.8859C35.9088 34.2923 36.7655 34.4379 37.6686 34.3228C38.6103 34.2332 39.4898 33.9532 40.3072 33.4832C41.0666 32.9896 41.6548 32.3413 42.072 31.5386Z" fill="white"/>
<path opacity="0.992" fill-rule="evenodd" clip-rule="evenodd" d="M81.6682 34.9138C81.7082 34.9138 81.7483 34.9138 81.7882 34.9138C81.8058 35.5346 81.8058 36.1543 81.7882 36.7728C80.8981 36.9085 80.0071 37.037 79.1153 37.1583C79.1206 39.7056 79.1321 42.2528 79.1496 44.7999C78.4476 44.906 77.7452 45.0088 77.0422 45.1083C77.0363 42.5667 77.0249 40.0253 77.0079 37.4839C76.1159 37.6088 75.225 37.7402 74.335 37.8779C74.3128 37.2556 74.3015 36.633 74.3008 36.0104C76.7595 35.6494 79.2154 35.2839 81.6682 34.9138Z" fill="white"/>
<path opacity="0.992" fill-rule="evenodd" clip-rule="evenodd" d="M69.349 36.5073C70.1617 36.4442 70.9442 36.567 71.6963 36.8756C72.872 37.4467 73.5946 38.3748 73.8637 39.6598C74.1512 41.1621 73.9114 42.5727 73.1441 43.8919C72.3047 45.17 71.1426 46.0067 69.6574 46.4019C68.6498 46.6759 67.6389 46.693 66.6248 46.4533C65.3048 46.0644 64.4281 45.2163 63.9947 43.909C63.6642 42.7127 63.6929 41.5248 64.0804 40.3452C64.7652 38.553 66.0246 37.3679 67.8584 36.79C68.3486 36.6474 68.8455 36.5532 69.349 36.5073ZM69.1605 38.4776C69.833 38.4382 70.4327 38.6238 70.9596 39.0345C71.4844 39.5397 71.7613 40.1595 71.7906 40.8935C71.8548 41.9976 71.5036 42.9428 70.7368 43.7291C69.8925 44.4771 68.9102 44.7628 67.7898 44.5858C66.9071 44.3485 66.3331 43.7916 66.0679 42.9152C65.7832 41.7419 66.0001 40.674 66.719 39.7112C67.362 38.9656 68.1759 38.5544 69.1605 38.4776Z" fill="white"/>
<path opacity="0.993" fill-rule="evenodd" clip-rule="evenodd" d="M62.495 37.7407C62.5121 37.7407 62.5293 37.7407 62.5464 37.7407C62.5557 40.9104 62.5671 44.0802 62.5807 47.2499C61.8849 47.3445 61.191 47.4473 60.4989 47.5583C60.4784 46.1934 60.4698 44.8284 60.4732 43.4634C59.1307 43.6544 57.7886 43.8485 56.4468 44.0459C56.4499 45.4109 56.4527 46.776 56.4554 48.1409C55.7579 48.2539 55.0583 48.3567 54.3565 48.4493C54.3495 45.8249 54.338 43.2007 54.3223 40.5763C54.3279 40.0366 54.3337 39.4969 54.3394 38.9572C55.0294 38.8481 55.7204 38.7453 56.4126 38.6488C56.4191 39.8254 56.4249 41.0018 56.4297 42.1783C57.7714 41.981 59.1135 41.7868 60.4561 41.5958C60.4494 40.4136 60.4438 39.2314 60.439 38.0491C61.1277 37.954 61.8131 37.8512 62.495 37.7407Z" fill="white"/>
<path opacity="0.991" fill-rule="evenodd" clip-rule="evenodd" d="M50.5532 39.2828C51.1208 39.2535 51.6748 39.3249 52.2152 39.4969C52.4674 39.5915 52.7014 39.7173 52.9176 39.8739C52.9469 39.8932 52.9555 39.9189 52.9433 39.951C52.4778 40.5306 52.0125 41.1104 51.547 41.69C51.5355 41.7015 51.5242 41.7015 51.5127 41.69C51.2708 41.4531 50.9795 41.3218 50.6389 41.296C50.0567 41.2259 49.5255 41.3573 49.0454 41.69C48.8349 41.8571 48.7007 42.0713 48.6428 42.3325C48.5996 42.62 48.6882 42.857 48.9084 43.0436C49.1488 43.198 49.4114 43.2951 49.6965 43.3349C50.2503 43.4017 50.7986 43.4988 51.3414 43.6261C51.8209 43.7351 52.2292 43.9664 52.5664 44.32C52.8308 44.6559 52.9735 45.0385 52.9947 45.468C53.0676 46.9588 52.4651 48.081 51.1871 48.8348C49.9508 49.4903 48.6543 49.6503 47.2978 49.3145C46.8827 49.1785 46.5057 48.9756 46.167 48.7063C46.6574 48.0788 47.1542 47.4562 47.6576 46.8387C48.1637 47.3662 48.7806 47.5747 49.5081 47.4641C49.8975 47.3978 50.2458 47.2436 50.5532 47.0015C50.9272 46.6562 50.9985 46.2594 50.7674 45.8107C50.6517 45.6952 50.5176 45.6068 50.3647 45.5451C50.1715 45.4617 49.9717 45.3988 49.7651 45.3566C49.321 45.2692 48.8755 45.1894 48.4286 45.1168C46.8443 44.796 46.2076 43.8393 46.5182 42.2469C46.7358 41.3628 47.2185 40.6632 47.966 40.148C48.7509 39.6283 49.6133 39.34 50.5532 39.2828Z" fill="white"/>
<path opacity="0.971" fill-rule="evenodd" clip-rule="evenodd" d="M41.3352 41.8872C41.3823 41.8819 41.4279 41.8875 41.4722 41.9043C41.2551 42.4582 41.0382 43.0123 40.8212 43.5663C41.2195 44.1973 41.6136 44.8313 42.0034 45.4681C41.8154 45.5157 41.624 45.55 41.4294 45.5709C41.4094 45.5653 41.3895 45.5594 41.3694 45.5538C41.0879 45.0877 40.8023 44.6251 40.5127 44.166C40.485 44.2117 40.4622 44.2602 40.4442 44.3116C40.5167 44.7708 40.5852 45.2305 40.6498 45.6908C40.46 45.7114 40.2715 45.74 40.0844 45.7765C39.8968 44.578 39.7142 43.3787 39.5361 42.1785C39.7275 42.133 39.9218 42.0988 40.1187 42.0757C40.1852 42.5208 40.2508 42.9663 40.3157 43.4121C40.4961 42.9363 40.6647 42.4565 40.8212 41.9728C40.9957 41.9504 41.1671 41.9218 41.3352 41.8872Z" fill="#A6A8A8"/>
<path opacity="0.972" fill-rule="evenodd" clip-rule="evenodd" d="M38.7821 42.2642C38.8107 42.2642 38.8391 42.2642 38.8677 42.2642C39.0464 43.469 39.2234 44.674 39.3989 45.8794C39.232 45.8926 39.0665 45.9155 38.902 45.9479C38.8859 45.946 38.8715 45.9404 38.8592 45.9308C38.4651 45.2454 38.071 44.5601 37.677 43.8747C37.7912 44.6089 37.8969 45.3456 37.9939 46.085C37.8276 46.1014 37.6619 46.1242 37.497 46.1535C37.4773 46.148 37.4631 46.1367 37.4542 46.1192C37.2762 44.9259 37.1021 43.7323 36.9316 42.5383C37.0953 42.522 37.258 42.4991 37.4199 42.4698C37.439 42.4713 37.4561 42.477 37.4713 42.4869C37.8697 43.1752 38.2638 43.8662 38.6536 44.5601C38.5441 43.8189 38.4384 43.0765 38.3366 42.3327C38.4886 42.3176 38.6369 42.2947 38.7821 42.2642Z" fill="#A6A8A8"/>
<path opacity="0.971" fill-rule="evenodd" clip-rule="evenodd" d="M36.2114 42.6411C36.2311 42.6461 36.2425 42.6603 36.2456 42.6839C36.425 43.8746 36.6022 45.0654 36.7768 46.2563C36.5826 46.2849 36.3884 46.3134 36.1942 46.342C36.0155 45.1371 35.8385 43.9321 35.6631 42.7268C35.8495 42.7076 36.0323 42.679 36.2114 42.6411Z" fill="#A6A8A8"/>
<path opacity="0.973" fill-rule="evenodd" clip-rule="evenodd" d="M34.2073 42.9324C34.857 42.9337 35.2082 43.2593 35.261 43.909C35.2891 44.2407 35.1835 44.5207 34.944 44.7485C35.1217 44.875 35.2502 45.0407 35.3295 45.2454C35.4222 45.5405 35.525 45.8317 35.6379 46.1192C35.6821 46.2133 35.7306 46.3048 35.7836 46.3934C35.5858 46.4391 35.3859 46.4648 35.1839 46.4705C35.1345 46.3975 35.0917 46.3204 35.0554 46.2392C34.9685 46.0017 34.8887 45.7618 34.8155 45.5196C34.7693 45.3494 34.675 45.2153 34.5328 45.1169C34.4487 45.0914 34.363 45.0856 34.2758 45.0998C34.2559 45.1171 34.2446 45.1399 34.2415 45.1683C34.3147 45.6446 34.3832 46.1216 34.4471 46.599C34.253 46.6276 34.0587 46.656 33.8646 46.6846C33.7025 45.5125 33.5312 44.3418 33.3506 43.1722C33.3561 43.1525 33.3674 43.1383 33.3849 43.1294C33.6508 43.0201 33.9249 42.9545 34.2073 42.9324ZM34.1387 43.4464C34.4055 43.4308 34.5741 43.5507 34.6442 43.8062C34.7204 44.0418 34.6862 44.2587 34.5414 44.4573C34.4315 44.5539 34.303 44.6053 34.1559 44.6115C34.1069 44.2544 34.0555 43.8973 34.0017 43.5406C34.0073 43.5206 34.0131 43.5007 34.0188 43.4807C34.0613 43.4709 34.1014 43.4596 34.1387 43.4464Z" fill="#A6A8A8"/>
<path opacity="0.973" fill-rule="evenodd" clip-rule="evenodd" d="M31.637 43.3093C32.2103 43.3004 32.6129 43.5574 32.8449 44.0803C33.1033 44.7187 33.166 45.3756 33.0334 46.0507C32.8691 46.5803 32.5122 46.8916 31.9625 46.9845C31.7598 47.0237 31.5572 47.0323 31.3543 47.0102C31.1773 45.8459 31.0118 44.6809 30.8574 43.5149C31.1059 43.3963 31.3658 43.3278 31.637 43.3093ZM31.6027 43.8233C31.871 43.8132 32.0737 43.9217 32.211 44.1489C32.3883 44.4924 32.4853 44.8578 32.5022 45.2454C32.5245 45.494 32.5074 45.7397 32.4508 45.9822C32.3575 46.2727 32.1604 46.4326 31.8597 46.4619C31.7413 45.6013 31.6156 44.7418 31.4828 43.8833C31.4852 43.8701 31.491 43.8586 31.4999 43.849C31.5378 43.8458 31.5721 43.8372 31.6027 43.8233Z" fill="#A6A8A8"/>
<path opacity="0.969" fill-rule="evenodd" clip-rule="evenodd" d="M29.5812 43.6177C29.5983 43.6177 29.6154 43.6177 29.6326 43.6177C29.4573 44.3563 29.2859 45.0958 29.1185 45.8365C29.1888 46.3428 29.2632 46.8482 29.3413 47.3528C29.152 47.3766 28.9635 47.4051 28.7759 47.4385C28.7702 47.4299 28.7644 47.4213 28.7587 47.4128C28.6816 46.9075 28.6045 46.4021 28.5274 45.8965C28.1647 45.251 27.8022 44.6058 27.4395 43.9603C27.4874 43.9352 27.5388 43.9209 27.5937 43.9175C27.7475 43.8906 27.9017 43.8735 28.0563 43.8661C28.2898 44.3017 28.5211 44.7386 28.7502 45.1768C28.8398 44.6856 28.9284 44.1946 29.0157 43.7033C29.2078 43.6836 29.3963 43.6552 29.5812 43.6177Z" fill="#A6A8A8"/>
<path opacity="0.97" fill-rule="evenodd" clip-rule="evenodd" d="M26.6 44.0288C26.7703 44.0197 26.936 44.0425 27.0969 44.0973C27.1025 44.1059 27.1083 44.1145 27.114 44.123C27.09 44.2909 27.0701 44.4594 27.054 44.6285C26.4304 44.4667 26.0647 44.7066 25.9575 45.3481C25.9217 45.7703 25.9731 46.1815 26.1117 46.5817C26.184 46.7863 26.301 46.9605 26.4629 47.1043C26.6384 47.2198 26.8268 47.2455 27.0283 47.1814C26.9778 46.8624 26.9322 46.5425 26.8913 46.2219C26.7626 46.2366 26.6341 46.2538 26.5058 46.2733C26.4857 46.2676 26.4658 46.2618 26.4458 46.2562C26.4102 46.0924 26.3874 45.9269 26.3773 45.7593C26.7091 45.7183 27.0403 45.6728 27.371 45.6222C27.4577 46.2368 27.5492 46.8507 27.6451 47.4641C27.4608 47.5962 27.2552 47.6819 27.0283 47.7211C26.4874 47.8232 26.062 47.649 25.7519 47.1985C25.4143 46.5956 25.2888 45.9503 25.3749 45.2624C25.4798 44.5437 25.8881 44.1325 26.6 44.0288Z" fill="#A6A8A8"/>
<path opacity="0.972" fill-rule="evenodd" clip-rule="evenodd" d="M23.6708 44.4743C24.3459 44.4017 24.7372 44.6988 24.8444 45.3653C24.8952 45.727 24.7896 46.0325 24.5275 46.2819C24.6625 46.3655 24.7682 46.4769 24.8444 46.616C24.963 46.9089 25.0715 47.206 25.17 47.507C25.2272 47.6555 25.2928 47.7983 25.367 47.9353C25.1784 47.9622 24.9899 47.9908 24.8016 48.021C24.7423 47.9713 24.6995 47.9086 24.6731 47.8325C24.5693 47.5553 24.4721 47.2753 24.3818 46.993C24.3369 46.8341 24.2427 46.717 24.0991 46.6417C24.0087 46.6118 23.9173 46.609 23.825 46.6332C23.8937 47.1287 23.9681 47.6226 24.0477 48.1152C23.8707 48.1545 23.6908 48.1858 23.508 48.2095C23.4852 48.2052 23.4681 48.1937 23.4566 48.1752C23.2873 47.0274 23.1189 45.8795 22.9512 44.7313C22.9568 44.7085 22.9627 44.6856 22.9683 44.6628C23.1967 44.5701 23.4309 44.5072 23.6708 44.4743ZM23.6537 44.9883C24.0198 44.9416 24.2227 45.1014 24.2619 45.4681C24.313 45.8565 24.1473 46.0849 23.765 46.1534C23.6963 45.7725 23.6363 45.39 23.5851 45.0055C23.6125 45.0101 23.6353 45.0043 23.6537 44.9883Z" fill="#A6A8A8"/>
<path opacity="0.972" fill-rule="evenodd" clip-rule="evenodd" d="M22.2476 44.6973C22.2934 44.6973 22.339 44.6973 22.3847 44.6973C22.4003 44.8611 22.4233 45.0238 22.4532 45.1856C22.4476 45.1941 22.4418 45.2027 22.4361 45.2113C22.14 45.2618 21.8429 45.3074 21.5452 45.3483C21.5799 45.617 21.617 45.8853 21.6565 46.1536C21.6582 46.2042 21.6725 46.2499 21.6994 46.2907C21.9774 46.2395 22.2574 46.1995 22.5389 46.1708C22.5634 46.3419 22.5862 46.5133 22.6075 46.6848C22.3199 46.7194 22.0343 46.765 21.7508 46.8218C21.8114 47.1803 21.8628 47.5401 21.905 47.9013C22.236 47.854 22.5672 47.8082 22.8987 47.7642C22.916 47.942 22.9388 48.119 22.9673 48.2953C22.4467 48.3647 21.9271 48.4391 21.4081 48.5181C21.2374 47.3177 21.0605 46.1183 20.877 44.92C21.3353 44.8424 21.7922 44.768 22.2476 44.6973Z" fill="#A6A8A8"/>
<path opacity="0.972" fill-rule="evenodd" clip-rule="evenodd" d="M20.1414 45.0054C20.1695 45.0018 20.1952 45.0075 20.2186 45.0226C20.3967 46.2216 20.571 47.4209 20.7411 48.6206C20.578 48.6395 20.4152 48.6623 20.2528 48.6892C20.2338 48.6876 20.2167 48.682 20.2014 48.672C19.8087 47.9953 19.4203 47.3156 19.0363 46.6331C19.1364 47.3644 19.2419 48.0953 19.3533 48.8262C19.1703 48.8475 18.9875 48.8703 18.805 48.8948C18.6246 47.6913 18.4533 46.489 18.291 45.2881C18.4541 45.264 18.6169 45.2383 18.7793 45.211C18.8009 45.2155 18.818 45.227 18.8307 45.2453C19.2248 45.9421 19.6189 46.6388 20.0129 47.3356C19.8961 46.5835 19.7847 45.8296 19.6788 45.074C19.8372 45.0637 19.9914 45.0407 20.1414 45.0054Z" fill="#A6A8A8"/>
<path opacity="0.972" fill-rule="evenodd" clip-rule="evenodd" d="M17.7069 45.3655C17.74 45.5279 17.7686 45.6936 17.7926 45.8624C17.7907 45.8785 17.785 45.8929 17.7754 45.9052C17.4782 45.9472 17.1812 45.99 16.8845 46.0337C16.9216 46.351 16.973 46.6651 17.0387 46.976C17.3168 46.9248 17.5967 46.8849 17.8782 46.8561C17.9058 47.0268 17.9288 47.1981 17.9468 47.3701C17.6605 47.4073 17.375 47.4501 17.0901 47.4986C17.149 47.8483 17.2033 48.1996 17.2528 48.5523C17.2618 48.5698 17.276 48.5811 17.2957 48.5866C17.6091 48.5345 17.9231 48.4888 18.238 48.4495C18.2608 48.6265 18.2838 48.8037 18.3066 48.9807C17.786 49.0501 17.2664 49.1244 16.7474 49.2034C16.5761 47.9984 16.4047 46.7932 16.2334 45.5882C16.7278 45.52 17.2189 45.4458 17.7069 45.3655Z" fill="#A6A8A8"/>
<path opacity="0.983" fill-rule="evenodd" clip-rule="evenodd" d="M7.66683 46.3421C9.11676 46.2777 10.2904 46.8089 11.1878 47.9356C11.8471 48.8961 12.0756 49.9525 11.8731 51.1053C11.5476 52.6125 10.7167 53.7463 9.38019 54.5063C8.12428 55.1687 6.83355 55.2487 5.50799 54.7462C3.98398 54.0069 3.19583 52.7847 3.14355 51.0796C3.2321 49.3655 3.98598 48.0349 5.40519 47.0875C6.09969 46.6552 6.85357 46.4067 7.66683 46.3421ZM7.68397 47.4044C8.339 47.3669 8.95581 47.5012 9.5344 47.8071C10.2004 48.2109 10.6145 48.7964 10.7766 49.5633C10.8152 49.7624 10.8466 49.9623 10.8708 50.1629C10.8629 50.1936 10.8429 50.2108 10.8109 50.2143C10.3606 50.3105 9.9123 50.4133 9.46586 50.5228C9.77166 50.6728 10.0801 50.8185 10.3911 50.9597C10.3854 50.9653 10.3797 50.9711 10.3739 50.9768C8.40993 51.3856 6.44527 51.7853 4.47998 52.1762C5.63691 51.7372 6.79057 51.2917 7.94097 50.8397C7.54119 50.6341 7.14139 50.4285 6.74162 50.2229C7.46488 50.0057 8.18449 49.78 8.90045 49.5461C8.78655 49.3152 8.60949 49.1524 8.36931 49.0578C7.8168 48.8635 7.29709 48.9262 6.81015 49.2463C6.46114 49.5413 6.24125 49.9154 6.15051 50.3686C6.08298 50.6675 6.05728 50.9703 6.0734 51.2766C5.50229 51.4879 4.93116 51.6993 4.36004 51.9106C4.07842 50.514 4.44965 49.3232 5.47373 48.3382C6.10903 47.7886 6.84577 47.4772 7.68397 47.4044ZM8.64345 51.7906C9.18333 51.9563 9.72018 52.1306 10.254 52.3132C9.69617 53.1238 8.93086 53.6263 7.9581 53.821C7.09926 53.9949 6.28828 53.8693 5.52513 53.444C5.13181 53.2021 4.8234 52.8793 4.59991 52.476C4.60349 52.4659 4.60922 52.4573 4.61705 52.4503C5.23523 52.3273 5.85204 52.1988 6.46748 52.0648C6.74813 52.2649 7.06225 52.3621 7.40983 52.3561C7.81022 52.3607 8.16432 52.2378 8.47211 51.9877C8.53921 51.9293 8.59631 51.8636 8.64345 51.7906Z" fill="white"/>
</svg>
