<svg width="202" height="32" viewBox="0 0 202 32" fill="none" xmlns="http://www.w3.org/2000/svg">
<g clip-path="url(#clip0_1503_975)">
<path d="M0 0L15.8021 15.632L31.6042 0H0Z" fill="#1B3E6C"/>
<path d="M0 31.264L15.8021 15.632L0 0V31.264Z" fill="#F7941D"/>
<path d="M31.6068 31.2638V15.6318L15.8047 31.2638H31.6068Z" fill="#40C4E0"/>
<path d="M23.7031 23.4485L15.8021 31.2645H0L7.90105 23.4485H23.7031Z" fill="#725BA7"/>
<path d="M15.8034 15.6318L7.90234 23.4478H23.7044L15.8034 15.6318Z" fill="#DC4E3A"/>
<path d="M23.6992 7.816L31.6003 15.632V0L23.6992 7.816Z" fill="#00B388"/>
<path d="M31.6003 15.6326L23.6992 7.81665L15.7982 15.6326L23.6992 23.4486L31.6003 15.6326Z" fill="#F5DF2E"/>
<path d="M54.353 0H44.293V31.264H54.0426C60.5515 31.264 69.9862 27.2815 69.9862 15.7042C69.9862 4.12699 59.7984 0 54.353 0ZM53.8281 25.218H51.5093V6.046H54.1613C56.4572 6.046 62.4321 7.59926 62.4321 15.7042C62.4321 23.8092 55.8593 25.218 53.8281 25.218Z" fill="white"/>
<path d="M89.139 10.8738V13.732L88.2764 12.7748C87.4 11.7995 85.4601 10.1604 82.2878 10.1604C79.5035 10.1604 76.7831 11.235 74.9984 13.0321C73.8299 14.2106 71.8672 16.8476 71.8672 21.25C71.8672 24.2798 72.7618 26.5961 74.7702 28.7635C76.7877 30.9128 79.2342 32.0055 82.0459 32.0055C83.5932 32.0055 86.4551 31.6352 88.2398 29.1473L89.1345 27.9011V31.2875H95.0774V10.8738H89.1345H89.139ZM83.3787 26.4516C80.4301 26.4516 78.0383 24.0359 78.0383 21.0558C78.0383 18.0757 80.4301 15.66 83.3787 15.66C86.3273 15.66 88.7191 18.0757 88.7191 21.0558C88.7191 24.0359 86.3273 26.4516 83.3787 26.4516Z" fill="white"/>
<path d="M130.951 10.8738V13.732L130.088 12.7748C129.212 11.7995 127.272 10.1604 124.1 10.1604C121.315 10.1604 118.595 11.235 116.815 13.0321C115.646 14.2106 113.684 16.8476 113.684 21.25C113.684 24.2798 114.578 26.5961 116.587 28.7635C118.604 30.9128 121.055 32.0055 123.862 32.0055C125.41 32.0055 128.267 31.6352 130.056 29.1473L130.951 27.9011V31.2875H136.894V10.8738H130.951ZM125.191 26.4516C122.242 26.4516 119.85 24.0359 119.85 21.0558C119.85 18.0757 122.242 15.66 125.191 15.66C128.139 15.66 130.531 18.0757 130.531 21.0558C130.531 24.0359 128.139 26.4516 125.191 26.4516Z" fill="white"/>
<path d="M101.455 0.00952148V10.8779H99.0312V16.1563H101.455V31.2825H108.055V16.1563H112.373V10.8779H108.055V0.00952148H101.455Z" fill="white"/>
<path d="M190.82 0V31.2866H197.425V16.1603H201.738V10.8774H197.425V0H190.82Z" fill="white"/>
<path d="M160.299 20.6711H151.266L155.721 7.36447L160.299 20.6711ZM164.046 31.264H171.564L159.906 0H151.69L139.805 31.2595H147.236L149.413 25.7869H162.061L164.046 31.2595V31.264Z" fill="white"/>
<path d="M173.961 31.2864H180.561V22.6305C180.561 21.7591 180.561 19.1086 182.423 17.3883C183.359 16.5258 184.601 16.1104 186.226 16.1104C187.344 16.1104 188.567 16.1375 189.005 16.1465V10.8952C188.7 10.8772 187.691 10.823 187.691 10.823C186.413 10.823 185.208 10.823 184.281 11.3287C183.094 11.9292 182.131 12.882 181.492 14.0966L180.561 15.8576V10.8772H173.961V31.2864Z" fill="white"/>
</g>
<defs>
<clipPath id="clip0_1503_975">
<rect width="201.739" height="32" fill="white"/>
</clipPath>
</defs>
</svg>
