<svg width="158" height="46" viewBox="0 0 158 46" fill="none" xmlns="http://www.w3.org/2000/svg">
<path d="M26.7788 11.1001L26.7656 11.0869L26.7788 11.1001Z" fill="white"/>
<path d="M26.7292 44.3347C26.7629 44.3569 26.819 44.4013 26.8639 44.4346C26.819 44.4013 26.7741 44.368 26.7292 44.3347Z" fill="white"/>
<path d="M32.0724 0C29.1435 0 26.7757 2.34162 26.7757 5.23812V10.0545C26.7757 10.4207 26.4615 10.7204 26.0911 10.7204C26.0013 10.7204 25.9228 10.7093 25.8442 10.676C25.8442 10.676 25.8555 10.676 25.8667 10.676C23.6447 9.76598 21.2208 9.25549 18.6622 9.25549C8.34916 9.25549 0 17.4789 0 27.6333C0 37.7877 8.34916 46 18.6509 46C20.5924 46 22.4664 45.8668 24.2171 45.323C24.9353 45.1011 25.6422 44.8347 26.3268 44.524C26.3605 44.5129 26.5625 44.413 26.6859 44.413C26.7981 44.413 26.8991 44.4463 26.9777 44.5018C26.9777 44.5018 26.9777 44.5018 26.9664 44.5018C28.8517 45.7558 31.2196 45.8113 31.5675 45.8113C31.7133 45.8113 31.7021 45.8113 31.7021 45.8113C31.7021 45.8113 31.7021 45.8113 31.7133 45.8113C34.6872 45.8113 37.2682 43.503 37.358 40.5732V5.23812C37.358 2.35271 34.9902 0 32.0612 0H32.0724ZM26.742 44.3353C26.6186 44.4019 26.4839 44.4574 26.3605 44.5129C26.4839 44.4574 26.6186 44.3908 26.742 44.3353C26.7869 44.3686 26.8318 44.4019 26.8767 44.4352C26.8318 44.4019 26.7757 44.3575 26.742 44.3353ZM28.3692 37.5435C23.3866 39.863 20.0761 37.4992 21.0412 35.6347C21.7482 34.2697 23.8916 31.351 23.3866 28.9428C22.7806 26.0796 20.0313 23.8601 17.0799 22.3952C14.1285 20.9414 11.6596 19.4321 12.2432 15.903C12.7706 12.7513 16.3392 11.6859 19.5487 11.6859C19.5487 11.6859 22.0961 11.697 23.3193 11.9966C24.0936 12.1853 24.3405 12.2963 23.7008 12.829C23.1734 13.2618 21.939 14.2717 23.0949 15.6256C25.025 17.8895 29.3679 17.6454 32.454 21.0856C33.8006 22.5838 34.7433 25.0142 34.7433 27.0784C34.7433 27.0784 35.439 34.2697 28.3804 37.5435H28.3692Z" fill="white"/>
<path d="M65.4004 1.11035V29.6759C65.4004 31.7733 65.4453 34.1704 65.6024 35.7796H61.6971L61.4951 31.6734H61.3941C60.0587 34.3147 57.1971 36.3123 53.2919 36.3123C47.5125 36.3123 43.0237 31.4737 43.0237 24.3046C42.9789 16.3919 47.9614 11.6088 53.7407 11.6088C57.444 11.6088 59.9128 13.3178 60.9453 15.1711H61.0463V1.11035H65.3892H65.4004ZM61.0575 21.7632C61.0575 21.175 61.0126 20.498 60.8555 19.9099C60.2158 17.2242 57.848 14.9825 54.5824 14.9825C50.0936 14.9825 47.4228 18.8889 47.4228 24.0604C47.4228 28.899 49.8467 32.8498 54.4814 32.8498C57.3991 32.8498 60.0587 30.8966 60.8555 27.7227C61.0014 27.1345 61.0575 26.5463 61.0575 25.8693V21.7632Z" fill="white"/>
<path d="M72.4501 7.80218C70.8229 7.80218 69.7344 6.53704 69.7344 5.01666C69.7344 3.49627 70.8678 2.28662 72.5511 2.28662C74.2344 2.28662 75.3117 3.50737 75.3117 5.01666C75.3117 6.52595 74.2232 7.80218 72.495 7.80218H72.4501ZM70.374 35.7795V12.1525H74.7169V35.7906H70.374V35.7795Z" fill="white"/>
<path d="M97.1607 30.1192C97.1607 32.1723 97.2617 34.1699 97.5086 35.7791H93.6145L93.2218 32.8049H93.0759C91.7966 34.6582 89.1818 36.3229 85.7704 36.3229C80.9337 36.3229 78.4648 32.9492 78.4648 29.5311C78.4648 23.8157 83.6045 20.6973 92.829 20.7417V20.2534C92.829 18.3002 92.2903 14.7378 87.3975 14.7822C85.1307 14.7822 82.8078 15.4148 81.1245 16.5356L80.1369 13.6502C82.112 12.4295 85.0297 11.5972 88.0372 11.5972C95.3988 11.5972 97.1719 16.5246 97.1719 21.2633V30.0971L97.1607 30.1192ZM92.9188 23.7159C88.1831 23.616 82.7965 24.4483 82.7965 29.0428C82.7965 31.8727 84.6706 33.1489 86.8477 33.1489C90.001 33.1489 92.0322 31.1957 92.728 29.1981C92.8739 28.7542 92.9188 28.2659 92.9188 27.8331V23.727V23.7159Z" fill="white"/>
<path d="M101.535 1.11035H105.878V35.7796H101.535V1.11035Z" fill="white"/>
<path d="M120.848 36.3225C114.429 36.3225 109.391 31.6393 109.391 24.1594C109.391 16.2468 114.676 11.6079 121.241 11.6079C127.806 11.6079 132.744 16.5353 132.744 23.7155C132.744 32.5049 126.571 36.3114 120.893 36.3114H120.848V36.3225ZM120.994 33.1042C125.146 33.1042 128.255 29.2422 128.255 23.8709C128.255 19.8646 126.235 14.8373 121.095 14.8373C115.955 14.8373 113.79 19.5206 113.79 24.0151C113.79 29.1978 116.752 33.0931 120.949 33.0931H120.994V33.1042Z" fill="white"/>
<path d="M157.343 32.3178C157.343 37.789 156.21 41.0628 153.932 43.1603C151.564 45.2578 148.208 45.9902 145.19 45.9902C142.171 45.9902 139.163 45.3022 137.245 44.037L138.333 40.7188C139.915 41.7398 142.384 42.6276 145.347 42.6276C149.791 42.6276 153.056 40.3304 153.056 34.3265V31.7408H152.955C151.676 33.9381 149.05 35.6915 145.347 35.6915C139.422 35.6915 135.18 30.7087 135.18 24.1166C135.18 16.1041 140.465 11.6206 145.986 11.6206C150.139 11.6206 152.361 13.7181 153.438 15.6713H153.539L153.685 12.1533H157.534C157.388 13.818 157.332 15.7157 157.332 18.6011V32.3178H157.343ZM153 21.431C153 20.7429 152.955 20.1104 152.753 19.5222C151.968 16.9808 149.892 14.9277 146.682 14.9277C142.53 14.9277 139.567 18.3902 139.567 23.9169C139.567 28.5113 141.991 32.4177 146.626 32.4177C149.342 32.4177 151.766 30.7531 152.652 27.9786C152.899 27.2906 153 26.4582 153 25.6814V21.431Z" fill="white"/>
</svg>
