<svg width="158" height="53" viewBox="0 0 158 53" fill="none" xmlns="http://www.w3.org/2000/svg">
<g clip-path="url(#clip0_1503_826)">
<path d="M10.3111 7.9568C7.48959 8.93076 4.69139 11.7528 4.64488 14.6265C4.61129 16.5033 4.63067 21.1208 4.70302 28.4788C4.70818 28.9308 4.75211 29.3576 4.83479 29.7591C4.84054 29.7891 4.85764 29.8165 4.88328 29.8368C4.90892 29.8571 4.94157 29.869 4.97586 29.8706C5.01014 29.8722 5.04402 29.8634 5.07192 29.8456C5.09981 29.8279 5.12006 29.8022 5.12933 29.7728C5.96647 27.2169 6.916 24.692 7.97792 22.198C9.3809 18.8975 10.8071 16.6192 14.5277 15.6865C15.3933 15.4686 17.738 15.3539 21.562 15.3424C23.6393 15.3355 25.718 15.3321 27.7979 15.3321C30.817 15.3321 32.968 14.833 34.057 12.3104C34.588 11.0817 34.4175 9.43323 34.4523 8.02563C34.4539 7.97279 34.4435 7.92021 34.4218 7.871C34.4001 7.82178 34.3675 7.77692 34.326 7.73907C34.2844 7.70122 34.2348 7.67114 34.1799 7.65061C34.1251 7.63008 34.0662 7.61951 34.0066 7.61953C27.0667 7.59429 20.1887 7.56331 13.3728 7.5266C12.1843 7.51972 11.1637 7.66312 10.3111 7.9568Z" stroke="#809DC1" stroke-width="2"/>
<path d="M20.3085 26.4485C22.0732 26.4003 23.8934 26.3888 25.7692 26.4141C28.3078 26.4519 30.1138 25.8152 31.2765 23.8639C32.2183 22.2808 31.9354 19.7856 31.9431 17.91C31.9431 17.8607 31.9207 17.8134 31.8807 17.7786C31.8407 17.7437 31.7865 17.7242 31.73 17.7242C27.2265 17.731 22.7062 17.731 18.1691 17.7242C15.7779 17.7207 14.1579 18.0201 12.5998 19.4759C11.9694 20.0633 11.3157 21.1841 10.6388 22.8383C8.69322 27.6083 6.72569 32.4139 4.7362 37.255C4.7237 37.2858 4.71977 37.3188 4.72475 37.3512C4.72972 37.3837 4.74345 37.4145 4.76477 37.4413C4.78609 37.468 4.81436 37.4897 4.84717 37.5046C4.87999 37.5195 4.91637 37.5271 4.95323 37.5269C7.25794 37.5154 9.59107 37.5097 11.9526 37.5097C13.7664 37.5097 15.5531 37.1517 16.1809 35.6271C17.2868 32.9519 18.4546 30.0289 19.6845 26.858C19.7299 26.7415 19.8139 26.6399 19.9253 26.5667C20.0367 26.4936 20.1704 26.4524 20.3085 26.4485Z" stroke="#809DC1" stroke-width="2"/>
<path d="M45.0429 29.4736L53.4027 29.4771C53.5013 29.4771 53.596 29.4423 53.6658 29.3803C53.7355 29.3183 53.7747 29.2343 53.7747 29.1467L53.7786 25.6845C53.7786 25.6261 53.7525 25.57 53.706 25.5287C53.6594 25.4874 53.5963 25.4642 53.5306 25.4642L45.2522 25.4711C45.1362 25.4708 45.0244 25.4327 44.9385 25.364C44.8526 25.2954 44.7987 25.2011 44.7871 25.0994C44.6864 24.2046 44.5197 21.8024 46.1204 21.7783C49.0529 21.7347 51.9105 21.7278 54.6932 21.7577C55.0834 21.7622 55.2759 21.5913 55.2707 21.2449L55.2281 18.089C55.2271 18.0244 55.1978 17.9628 55.1464 17.9172C55.095 17.8715 55.0256 17.8455 54.9529 17.8446C50.7621 17.8171 46.557 17.8125 42.3377 17.8308C40.5601 17.84 39.2954 18.4882 38.5435 19.7753C38.1895 20.3787 38.0113 21.277 38.0087 22.4701C37.9983 27.3869 38.0048 32.3278 38.0281 37.2928C38.0291 37.378 38.0675 37.4594 38.135 37.5194C38.2025 37.5793 38.2936 37.6129 38.3885 37.6129H44.4577C44.5084 37.6129 44.5586 37.604 44.6054 37.5866C44.6523 37.5693 44.6947 37.5439 44.7304 37.5119C44.7661 37.4799 44.7943 37.4419 44.8133 37.4002C44.8324 37.3585 44.8419 37.3138 44.8414 37.2688L44.7794 29.7111C44.7789 29.6801 44.7853 29.6493 44.7983 29.6205C44.8113 29.5917 44.8307 29.5655 44.8552 29.5434C44.8797 29.5213 44.909 29.5037 44.9412 29.4918C44.9734 29.4798 45.008 29.4736 45.0429 29.4736Z" stroke="#809DC1" stroke-width="2"/>
<path d="M75.5832 17.8272C75.3718 17.8272 75.1689 17.9013 75.0187 18.0334C74.8684 18.1655 74.783 18.345 74.781 18.5327L74.7345 21.4271C74.7328 21.5273 74.755 21.6267 74.7996 21.7187C74.8442 21.8108 74.9102 21.8935 74.9932 21.9614C75.0763 22.0293 75.1745 22.0808 75.2815 22.1127C75.3885 22.1446 75.5019 22.156 75.6142 22.1464L79.5906 21.8022C79.7641 21.7876 79.9275 21.7234 80.0561 21.6191C80.1848 21.5147 80.2717 21.3761 80.3037 21.224L80.8502 18.6635C80.8719 18.5605 80.8677 18.4545 80.8379 18.3531C80.8082 18.2517 80.7536 18.1574 80.6781 18.0769C80.6026 17.9963 80.508 17.9316 80.4011 17.8873C80.2942 17.8429 80.1776 17.8201 80.0596 17.8203L75.5832 17.8272Z" stroke="#809DC1" stroke-width="2"/>
<path d="M88.7448 21.8676C88.9063 21.8567 89.0592 21.7984 89.1792 21.7018C89.2992 21.6052 89.3796 21.4758 89.4076 21.3341L89.9501 18.5809C89.9683 18.4878 89.9632 18.3922 89.9353 18.301C89.9074 18.2098 89.8573 18.1252 89.7886 18.053C89.7199 17.9808 89.6342 17.9229 89.5375 17.8833C89.4409 17.8437 89.3357 17.8234 89.2293 17.8237H84.9079C84.7167 17.8237 84.5331 17.8905 84.3968 18.0096C84.2605 18.1287 84.1824 18.2906 84.1793 18.4604L84.1173 21.4615C84.1154 21.5515 84.1347 21.6409 84.1739 21.7239C84.2132 21.807 84.2715 21.8818 84.3452 21.9437C84.4189 22.0056 84.5063 22.0531 84.6019 22.0833C84.6975 22.1134 84.7991 22.1255 84.9002 22.1188L88.7448 21.8676Z" stroke="#809DC1" stroke-width="2"/>
<path d="M99.4591 27.1711C99.1593 27.2606 99.0095 27.1643 99.0095 26.882L98.9979 18.0545C98.9979 18.0216 98.9906 17.9891 98.9765 17.9588C98.9625 17.9285 98.9418 17.9011 98.9159 17.878C98.8899 17.855 98.8591 17.8368 98.8253 17.8245C98.7915 17.8123 98.7553 17.8062 98.7188 17.8067L93.5255 17.8342C93.4634 17.8351 93.4043 17.8576 93.3608 17.8969C93.3173 17.9362 93.2929 17.989 93.2929 18.0441L93.2891 37.3409C93.2891 37.5245 93.3924 37.6174 93.5991 37.6197H98.7731C98.941 37.6197 99.025 37.544 99.025 37.3926L99.0017 32.182C99.0012 32.1133 99.0172 32.0452 99.0486 31.9823C99.08 31.9194 99.1261 31.863 99.1839 31.8169C99.2417 31.7707 99.3099 31.7359 99.384 31.7146C99.4581 31.6933 99.5365 31.6861 99.6141 31.6933L101.788 31.8998C101.964 31.9168 102.127 31.9912 102.245 32.1087C102.363 32.2263 102.428 32.3786 102.428 32.5365V37.1861C102.428 37.3029 102.48 37.4149 102.572 37.4976C102.664 37.5802 102.789 37.6266 102.92 37.6266H107.737C108.053 37.6266 108.209 37.4866 108.206 37.2067C108.193 35.3988 108.157 33.6883 108.098 32.0754C108.024 30.0655 105.788 29.742 103.99 29.5493C103.942 29.5444 103.898 29.5277 103.861 29.5012C103.824 29.4747 103.796 29.4395 103.78 29.3995C103.765 29.3595 103.763 29.3165 103.774 29.2754C103.785 29.2343 103.808 29.1968 103.842 29.1672L108.625 24.8963C109.072 24.497 108.979 24.3032 108.346 24.3146L103.199 24.3972C103.148 24.3973 103.099 24.4091 103.056 24.4317C101.64 25.1452 100.773 25.7704 100.455 26.3073C100.181 26.7685 99.8492 27.0564 99.4591 27.1711Z" stroke="#809DC1" stroke-width="2"/>
<path d="M146.02 29.1605C145.944 29.2885 145.835 29.3982 145.701 29.4798C145.567 29.5614 145.413 29.6125 145.252 29.6285C143.751 29.7776 142.228 29.9497 140.683 30.1447C138.897 30.3673 137.918 31.2621 137.745 32.8292C137.454 35.4757 137.753 37.3238 141.183 37.8125C143.582 38.1567 152.089 38.7486 152.104 35.5342C152.12 32.6938 152.139 29.8545 152.162 27.0164C152.189 23.296 142.45 24.036 139.962 24.4662C139.776 24.4983 139.679 24.5969 139.671 24.7621L139.524 27.388C139.523 27.4215 139.529 27.4548 139.544 27.4857C139.558 27.5166 139.58 27.5444 139.608 27.5673C139.635 27.5901 139.668 27.6074 139.704 27.6181C139.739 27.6287 139.777 27.6324 139.815 27.629C141.406 27.4775 142.998 27.3697 144.589 27.3054C145.199 27.2802 145.642 27.3789 145.919 27.6014C146.373 27.9685 146.407 28.4882 146.02 29.1605Z" stroke="#809DC1" stroke-width="2"/>
<path d="M134.447 27.6048H137.455C137.518 27.6048 137.58 27.5824 137.625 27.5423C137.67 27.5023 137.695 27.4481 137.695 27.3915L137.648 24.535C137.648 24.4755 137.622 24.4184 137.577 24.375C137.532 24.3317 137.47 24.3053 137.404 24.3009C134.633 24.0876 130.382 23.6092 128.773 26.3934C128.432 26.9831 128.266 27.8733 128.273 29.0641C128.291 31.815 128.286 34.5683 128.258 37.3238C128.258 37.3944 128.289 37.4622 128.345 37.5124C128.401 37.5626 128.477 37.5913 128.556 37.5922L133.54 37.6507C133.58 37.6512 133.619 37.6447 133.656 37.6316C133.692 37.6185 133.726 37.599 133.754 37.5744C133.782 37.5497 133.804 37.5203 133.82 37.488C133.835 37.4556 133.843 37.4208 133.843 37.3857C133.832 34.644 133.835 31.8724 133.85 29.0709C133.853 28.5731 133.928 28.1589 134.075 27.8285C134.105 27.7624 134.156 27.7057 134.222 27.6658C134.289 27.6259 134.367 27.6047 134.447 27.6048Z" stroke="#809DC1" stroke-width="2"/>
<path d="M65.5493 33.2283C65.526 35.159 62.5147 35.2347 62.4682 33.4657C62.4165 31.4444 62.3958 28.4915 62.4062 24.6072C62.4062 24.4833 62.3377 24.4213 62.2008 24.4213L56.6819 24.38C56.6556 24.3796 56.6295 24.3838 56.605 24.3924C56.5806 24.401 56.5584 24.4138 56.5396 24.4302C56.5208 24.4465 56.5059 24.466 56.4957 24.4876C56.4856 24.5091 56.4803 24.5322 56.4803 24.5555C56.4364 27.7562 56.439 30.9683 56.4881 34.1919C56.5656 39.251 71.4906 39.454 71.4906 33.9957C71.4932 30.8937 71.4919 27.7745 71.4868 24.6381C71.4868 24.4982 71.4079 24.427 71.2503 24.4248L65.8826 24.3697C65.7276 24.3674 65.6501 24.4351 65.6501 24.5727C65.6165 27.4682 65.5829 30.3534 65.5493 33.2283Z" stroke="#809DC1" stroke-width="2"/>
<path d="M74.7411 37.0793C74.745 39.2097 73.5823 38.838 71.8034 38.9034C71.6458 38.9102 71.5592 38.9837 71.5437 39.1236L71.3848 40.6758C71.3784 40.7417 71.3872 40.8082 71.4107 40.871C71.4341 40.9338 71.4716 40.9917 71.521 41.041C71.5704 41.0904 71.6305 41.1301 71.6978 41.1579C71.765 41.1856 71.8379 41.2007 71.9119 41.2023C73.5888 41.2413 75.2062 41.2505 76.7642 41.2298C78.4191 41.2092 79.5508 40.7239 80.26 39.454C80.5442 38.9447 80.6876 38.0877 80.6902 36.8832C80.7057 32.7671 80.707 28.6406 80.6941 24.5039C80.6941 24.4144 80.6437 24.3697 80.5429 24.3697L74.9659 24.3662C74.9155 24.3662 74.8672 24.384 74.8316 24.4156C74.796 24.4472 74.776 24.4901 74.776 24.5348C74.7476 28.729 74.736 32.9105 74.7411 37.0793Z" stroke="#809DC1" stroke-width="2"/>
<path d="M89.7837 24.5451C89.7837 24.5004 89.7637 24.4575 89.728 24.4259C89.6924 24.3942 89.6441 24.3765 89.5938 24.3765H84.3462C84.3212 24.3765 84.2965 24.3808 84.2735 24.3893C84.2504 24.3978 84.2295 24.4102 84.2119 24.4259C84.1942 24.4415 84.1802 24.4601 84.1707 24.4806C84.1612 24.501 84.1562 24.523 84.1562 24.5451V37.4509C84.1562 37.4731 84.1612 37.495 84.1707 37.5155C84.1802 37.5359 84.1942 37.5545 84.2119 37.5702C84.2295 37.5859 84.2504 37.5983 84.2735 37.6067C84.2965 37.6152 84.3212 37.6196 84.3462 37.6196H89.5938C89.6441 37.6196 89.6924 37.6018 89.728 37.5702C89.7637 37.5386 89.7837 37.4957 89.7837 37.4509V24.5451Z" stroke="#809DC1" stroke-width="2"/>
<path d="M119.697 32.9496C119.716 35.3277 116.414 34.9767 116.403 33.5588C116.377 30.5577 116.371 27.5555 116.383 24.5522C116.383 24.4329 116.316 24.3733 116.182 24.3733L110.861 24.3526C110.734 24.3503 110.669 24.4065 110.667 24.5212C110.607 27.8481 110.618 31.1749 110.698 34.5018C110.737 36.109 112.504 37.0244 114.046 37.4649C117.062 38.3219 123.131 38.4389 125.065 35.6099C125.411 35.1052 125.585 34.3412 125.588 33.3179C125.598 30.3857 125.6 27.4649 125.592 24.5557C125.592 24.5055 125.569 24.4573 125.528 24.4218C125.488 24.3863 125.432 24.3664 125.375 24.3664L119.86 24.3595C119.741 24.3595 119.68 24.4123 119.678 24.5178C119.662 27.3399 119.669 30.1505 119.697 32.9496Z" stroke="#809DC1" stroke-width="2"/>
<path d="M144.089 32.7155C143.941 32.7541 143.807 32.8266 143.701 32.9258C143.595 33.0249 143.52 33.1471 143.484 33.2802L143.341 33.8207C143.311 33.9295 143.309 34.0427 143.333 34.1525C143.357 34.2623 143.408 34.3662 143.481 34.4571C143.555 34.5479 143.65 34.6236 143.759 34.679C143.869 34.7343 143.991 34.768 144.116 34.7778L145.279 34.8673C145.395 34.8762 145.512 34.8645 145.623 34.8329C145.734 34.8012 145.837 34.7502 145.925 34.6829C146.014 34.6156 146.086 34.5333 146.138 34.4408C146.19 34.3483 146.221 34.2475 146.229 34.1443L146.299 33.2285C146.308 33.1035 146.284 32.9784 146.227 32.8637C146.17 32.749 146.083 32.6482 145.973 32.5698C145.863 32.4913 145.733 32.4377 145.595 32.4133C145.457 32.3889 145.314 32.3946 145.178 32.4298L144.089 32.7155Z" stroke="#809DC1" stroke-width="2"/>
<path d="M0 0H157.738V53H0V0ZM10.3092 7.95688C7.48771 8.93084 4.68951 11.7529 4.643 14.6266C4.60941 16.5034 4.62879 21.1208 4.70114 28.4789C4.7063 28.9309 4.75023 29.3576 4.83291 29.7592C4.83866 29.7892 4.85576 29.8166 4.8814 29.8369C4.90704 29.8572 4.93969 29.8691 4.97398 29.8707C5.00826 29.8723 5.04214 29.8635 5.07004 29.8457C5.09793 29.828 5.11818 29.8023 5.12746 29.7729C5.96459 27.217 6.91412 24.692 7.97604 22.1981C9.37902 18.8976 10.8053 16.6193 14.5259 15.6866C15.3914 15.4687 17.7362 15.3539 21.5601 15.3425C23.6375 15.3356 25.7161 15.3321 27.796 15.3321C30.8151 15.3321 32.9661 14.8331 34.0551 12.3105C34.5861 11.0818 34.4156 9.43331 34.4505 8.02571C34.452 7.97288 34.4416 7.9203 34.4199 7.87108C34.3982 7.82187 34.3656 7.77701 34.3241 7.73916C34.2826 7.70131 34.2329 7.67123 34.178 7.65069C34.1232 7.63016 34.0643 7.61959 34.0048 7.61961C27.0648 7.59437 20.1869 7.5634 13.3709 7.52669C12.1824 7.51981 11.1618 7.6632 10.3092 7.95688ZM20.3083 26.4484C22.073 26.4002 23.8932 26.3887 25.769 26.414C28.3076 26.4518 30.1136 25.8151 31.2763 23.8638C32.2181 22.2806 31.9352 19.7855 31.9429 17.9099C31.9429 17.8606 31.9205 17.8133 31.8805 17.7785C31.8405 17.7436 31.7863 17.724 31.7298 17.724C27.2263 17.7309 22.706 17.7309 18.1689 17.724C15.7777 17.7206 14.1577 18.02 12.5997 19.4758C11.9692 20.0631 11.3155 21.1839 10.6386 22.8382C8.69303 27.6082 6.72551 32.4137 4.73602 37.2549C4.72352 37.2857 4.71959 37.3187 4.72457 37.3511C4.72954 37.3835 4.74327 37.4144 4.76459 37.4411C4.78591 37.4678 4.81418 37.4896 4.84699 37.5045C4.87981 37.5194 4.91619 37.527 4.95305 37.5268C7.25776 37.5153 9.59089 37.5095 11.9524 37.5095C13.7662 37.5095 15.5529 37.1516 16.1807 35.627C17.2866 32.9518 18.4544 30.0287 19.6843 26.8579C19.7297 26.7413 19.8137 26.6398 19.9251 26.5666C20.0366 26.4935 20.1702 26.4523 20.3083 26.4484ZM45.0425 29.4735L53.4023 29.4769C53.5009 29.4769 53.5956 29.4421 53.6654 29.3802C53.7351 29.3182 53.7743 29.2342 53.7743 29.1466L53.7782 25.6843C53.7782 25.6259 53.7521 25.5699 53.7056 25.5286C53.659 25.4873 53.596 25.4641 53.5302 25.4641L45.2518 25.471C45.1358 25.4707 45.024 25.4326 44.9381 25.3639C44.8522 25.2953 44.7983 25.201 44.7868 25.0993C44.686 24.2045 44.5193 21.8023 46.12 21.7782C49.0525 21.7346 51.9102 21.7277 54.6929 21.7575C55.083 21.7621 55.2755 21.5912 55.2703 21.2447L55.2277 18.0888C55.2267 18.0243 55.1974 17.9627 55.146 17.917C55.0946 17.8714 55.0252 17.8454 54.9525 17.8445C50.7617 17.8169 46.5566 17.8124 42.3374 17.8307C40.5597 17.8399 39.295 18.4881 38.5431 19.7752C38.1891 20.3786 38.0109 21.2769 38.0083 22.4699C37.9979 27.3868 38.0044 32.3277 38.0277 37.2927C38.0287 37.3779 38.0671 37.4593 38.1346 37.5192C38.2021 37.5792 38.2932 37.6128 38.3881 37.6128H44.4573C44.508 37.6128 44.5583 37.6039 44.6051 37.5865C44.6519 37.5692 44.6943 37.5438 44.73 37.5118C44.7657 37.4798 44.7939 37.4418 44.8129 37.4001C44.832 37.3583 44.8415 37.3137 44.841 37.2686L44.779 29.711C44.7785 29.68 44.7849 29.6492 44.7979 29.6204C44.811 29.5916 44.8303 29.5654 44.8548 29.5433C44.8793 29.5212 44.9086 29.5036 44.9408 29.4916C44.973 29.4797 45.0076 29.4735 45.0425 29.4735ZM75.5825 17.8273C75.3711 17.8273 75.1682 17.9014 75.0179 18.0335C74.8677 18.1656 74.7823 18.345 74.7802 18.5328L74.7337 21.4271C74.7321 21.5274 74.7543 21.6268 74.7989 21.7188C74.8435 21.8109 74.9095 21.8936 74.9925 21.9615C75.0755 22.0293 75.1738 22.0809 75.2808 22.1128C75.3878 22.1447 75.5012 22.1561 75.6135 22.1464L79.5899 21.8023C79.7633 21.7877 79.9267 21.7234 80.0554 21.6191C80.184 21.5148 80.271 21.3762 80.303 21.2241L80.8495 18.6636C80.8711 18.5606 80.8669 18.4546 80.8372 18.3532C80.8074 18.2518 80.7529 18.1575 80.6774 18.0769C80.6019 17.9964 80.5073 17.9317 80.4004 17.8873C80.2935 17.843 80.1768 17.8201 80.0588 17.8204L75.5825 17.8273ZM88.7441 21.8677C88.9056 21.8568 89.0585 21.7985 89.1785 21.7019C89.2985 21.6053 89.3789 21.4759 89.4069 21.3342L89.9494 18.581C89.9676 18.4878 89.9625 18.3923 89.9346 18.3011C89.9067 18.2099 89.8566 18.1253 89.7879 18.0531C89.7192 17.9809 89.6335 17.923 89.5369 17.8834C89.4402 17.8438 89.335 17.8235 89.2286 17.8238H84.9073C84.716 17.8238 84.5324 17.8906 84.3961 18.0097C84.2598 18.1288 84.1817 18.2907 84.1786 18.4605L84.1166 21.4616C84.1147 21.5516 84.134 21.641 84.1733 21.724C84.2125 21.8071 84.2708 21.8819 84.3445 21.9438C84.4182 22.0057 84.5056 22.0532 84.6012 22.0834C84.6968 22.1135 84.7984 22.1256 84.8995 22.1189L88.7441 21.8677ZM99.4564 27.1711C99.1566 27.2606 99.0068 27.1642 99.0068 26.882L98.9952 18.0544C98.9952 18.0216 98.9879 17.9891 98.9738 17.9588C98.9598 17.9285 98.9391 17.901 98.9132 17.878C98.8872 17.8549 98.8564 17.8367 98.8226 17.8245C98.7888 17.8122 98.7526 17.8062 98.7161 17.8066L93.5228 17.8342C93.4607 17.8351 93.4016 17.8576 93.3581 17.8968C93.3146 17.9361 93.2902 17.989 93.2902 18.0441L93.2864 37.3409C93.2864 37.5245 93.3897 37.6174 93.5964 37.6197H98.7704C98.9383 37.6197 99.0223 37.544 99.0223 37.3925L98.999 32.182C98.9986 32.1133 99.0145 32.0452 99.0459 31.9823C99.0773 31.9193 99.1234 31.863 99.1812 31.8168C99.239 31.7707 99.3072 31.7359 99.3813 31.7146C99.4554 31.6933 99.5338 31.686 99.6114 31.6933L101.786 31.8998C101.961 31.9168 102.124 31.9912 102.242 32.1087C102.36 32.2262 102.425 32.3786 102.425 32.5365V37.186C102.425 37.3029 102.477 37.4149 102.569 37.4975C102.662 37.5801 102.787 37.6266 102.917 37.6266H107.735C108.05 37.6266 108.206 37.4866 108.204 37.2067C108.191 35.3987 108.155 33.6883 108.095 32.0753C108.021 30.0655 105.785 29.7419 103.987 29.5492C103.94 29.5444 103.895 29.5277 103.858 29.5012C103.821 29.4747 103.793 29.4394 103.778 29.3995C103.762 29.3595 103.76 29.3165 103.771 29.2754C103.782 29.2343 103.806 29.1968 103.84 29.1672L108.622 24.8962C109.069 24.497 108.976 24.3031 108.343 24.3146L103.196 24.3972C103.146 24.3972 103.096 24.4091 103.053 24.4316C101.637 25.1452 100.77 25.7704 100.452 26.3073C100.179 26.7684 99.8465 27.0564 99.4564 27.1711ZM146.018 29.1603C145.943 29.2884 145.834 29.398 145.7 29.4797C145.566 29.5613 145.412 29.6123 145.251 29.6284C143.75 29.7775 142.227 29.9496 140.681 30.1446C138.896 30.3672 137.917 31.262 137.744 32.829C137.453 35.4756 137.751 37.3237 141.181 37.8124C143.58 38.1566 152.087 38.7485 152.103 35.5341C152.118 32.6937 152.138 29.8544 152.161 27.0162C152.188 23.2959 142.449 24.0358 139.961 24.466C139.775 24.4982 139.678 24.5968 139.67 24.762L139.523 27.3879C139.521 27.4214 139.528 27.4547 139.542 27.4856C139.557 27.5165 139.579 27.5443 139.606 27.5671C139.634 27.59 139.666 27.6073 139.702 27.6179C139.738 27.6286 139.776 27.6323 139.813 27.6288C141.405 27.4774 142.996 27.3696 144.588 27.3053C145.198 27.2801 145.641 27.3787 145.917 27.6013C146.372 27.9684 146.406 28.4881 146.018 29.1603ZM134.446 27.6047H137.453C137.517 27.6047 137.578 27.5823 137.623 27.5422C137.668 27.5022 137.693 27.448 137.693 27.3914L137.647 24.5349C137.646 24.4754 137.621 24.4183 137.575 24.375C137.53 24.3316 137.469 24.3052 137.403 24.3008C134.632 24.0875 130.38 23.6091 128.772 26.3933C128.431 26.983 128.264 27.8732 128.272 29.064C128.29 31.8149 128.285 34.5682 128.256 37.3237C128.256 37.3943 128.287 37.4621 128.343 37.5123C128.399 37.5626 128.475 37.5912 128.555 37.5921L133.539 37.6507C133.578 37.6511 133.617 37.6446 133.654 37.6315C133.691 37.6184 133.724 37.5989 133.752 37.5743C133.78 37.5496 133.803 37.5202 133.818 37.4879C133.833 37.4555 133.841 37.4207 133.841 37.3857C133.831 34.6439 133.833 31.8723 133.849 29.0708C133.851 28.573 133.926 28.1588 134.073 27.8284C134.103 27.7623 134.154 27.7056 134.221 27.6657C134.287 27.6258 134.365 27.6046 134.446 27.6047ZM65.5485 33.2282C65.5252 35.159 62.5139 35.2347 62.4674 33.4657C62.4157 31.4444 62.395 28.4915 62.4054 24.6071C62.4054 24.4832 62.3369 24.4213 62.2 24.4213L56.6811 24.38C56.6548 24.3795 56.6287 24.3837 56.6042 24.3924C56.5798 24.401 56.5575 24.4138 56.5388 24.4302C56.52 24.4465 56.5051 24.466 56.4949 24.4875C56.4848 24.5091 56.4795 24.5322 56.4795 24.5555C56.4356 27.7562 56.4382 30.9683 56.4873 34.1919C56.5648 39.251 71.4898 39.454 71.4898 33.9957C71.4924 30.8937 71.4911 27.7745 71.486 24.6381C71.486 24.4982 71.4072 24.427 71.2495 24.4247L65.8818 24.3697C65.7268 24.3674 65.6493 24.4351 65.6493 24.5727C65.6157 27.4682 65.5821 30.3534 65.5485 33.2282ZM74.7376 37.0793C74.7415 39.2097 73.5788 38.838 71.7999 38.9034C71.6423 38.9103 71.5557 38.9837 71.5402 39.1236L71.3813 40.6758C71.3749 40.7418 71.3837 40.8082 71.4071 40.871C71.4305 40.9339 71.4681 40.9917 71.5175 41.041C71.5669 41.0904 71.627 41.1301 71.6942 41.1579C71.7615 41.1856 71.8344 41.2007 71.9084 41.2023C73.5853 41.2413 75.2027 41.2505 76.7607 41.2299C78.4156 41.2092 79.5473 40.724 80.2565 39.454C80.5407 38.9447 80.6841 38.0877 80.6867 36.8832C80.7022 32.7671 80.7035 28.6406 80.6906 24.5039C80.6906 24.4144 80.6402 24.3697 80.5394 24.3697L74.9624 24.3662C74.912 24.3662 74.8637 24.384 74.8281 24.4156C74.7925 24.4473 74.7725 24.4901 74.7725 24.5349C74.7441 28.729 74.7324 32.9105 74.7376 37.0793ZM89.7828 24.5452C89.7828 24.5005 89.7628 24.4576 89.7272 24.426C89.6916 24.3943 89.6433 24.3766 89.5929 24.3766H84.3453C84.3204 24.3766 84.2957 24.3809 84.2726 24.3894C84.2496 24.3979 84.2286 24.4103 84.211 24.426C84.1934 24.4416 84.1794 24.4602 84.1698 24.4807C84.1603 24.5011 84.1554 24.523 84.1554 24.5452V37.451C84.1554 37.4732 84.1603 37.4951 84.1698 37.5156C84.1794 37.536 84.1934 37.5546 84.211 37.5703C84.2286 37.5859 84.2496 37.5984 84.2726 37.6068C84.2957 37.6153 84.3204 37.6197 84.3453 37.6197H89.5929C89.6433 37.6197 89.6916 37.6019 89.7272 37.5703C89.7628 37.5387 89.7828 37.4958 89.7828 37.451V24.5452ZM119.695 32.9495C119.714 35.3276 116.412 34.9766 116.401 33.5586C116.375 30.5576 116.368 27.5554 116.381 24.5521C116.381 24.4328 116.314 24.3731 116.18 24.3731L110.858 24.3525C110.732 24.3502 110.667 24.4064 110.665 24.5211C110.605 27.8479 110.616 31.1748 110.696 34.5016C110.734 36.1088 112.502 37.0243 114.044 37.4648C117.059 38.3218 123.129 38.4388 125.063 35.6098C125.409 35.105 125.583 34.341 125.586 33.3177C125.596 30.3855 125.597 27.4648 125.59 24.5555C125.59 24.5053 125.567 24.4572 125.526 24.4217C125.485 24.3862 125.43 24.3662 125.373 24.3662L119.858 24.3594C119.739 24.3594 119.678 24.4121 119.676 24.5177C119.66 27.3397 119.666 30.1503 119.695 32.9495Z" fill="#003B83"/>
<path d="M4.64488 14.6265C4.69139 11.7528 7.48959 8.93076 10.3111 7.9568C11.1637 7.66312 12.1843 7.51972 13.3728 7.5266C20.1887 7.56331 27.0667 7.59429 34.0066 7.61953C34.0662 7.61951 34.1251 7.63008 34.1799 7.65061C34.2348 7.67114 34.2844 7.70122 34.326 7.73907C34.3675 7.77692 34.4001 7.82178 34.4218 7.871C34.4435 7.92021 34.4539 7.97279 34.4523 8.02563C34.4175 9.43323 34.588 11.0817 34.057 12.3104C32.968 14.833 30.817 15.3321 27.7979 15.3321C25.718 15.3321 23.6393 15.3355 21.562 15.3424C17.738 15.3539 15.3933 15.4686 14.5277 15.6865C10.8071 16.6192 9.3809 18.8975 7.97792 22.198C6.916 24.6919 5.96647 27.2169 5.12933 29.7728C5.12006 29.8022 5.09981 29.8279 5.07192 29.8456C5.04402 29.8634 5.01014 29.8722 4.97586 29.8706C4.94157 29.869 4.90892 29.8571 4.88328 29.8368C4.85764 29.8165 4.84054 29.7891 4.83479 29.7591C4.75211 29.3576 4.70818 28.9308 4.70302 28.4788C4.63067 21.1208 4.61129 16.5033 4.64488 14.6265Z" fill="white"/>
<path d="M20.3085 26.4485C20.1704 26.4524 20.0367 26.4936 19.9253 26.5667C19.8139 26.6399 19.7299 26.7415 19.6845 26.858C18.4546 30.0289 17.2868 32.9519 16.1809 35.6271C15.5531 37.1517 13.7664 37.5097 11.9526 37.5097C9.59107 37.5097 7.25794 37.5154 4.95323 37.5269C4.91637 37.5271 4.87999 37.5195 4.84717 37.5046C4.81436 37.4897 4.78609 37.468 4.76477 37.4413C4.74345 37.4145 4.72972 37.3837 4.72475 37.3512C4.71977 37.3188 4.7237 37.2858 4.7362 37.255C6.72569 32.4139 8.69322 27.6083 10.6388 22.8383C11.3157 21.1841 11.9694 20.0633 12.5998 19.4759C14.1579 18.0201 15.7779 17.7207 18.1691 17.7242C22.7062 17.731 27.2265 17.731 31.73 17.7242C31.7865 17.7242 31.8407 17.7437 31.8807 17.7786C31.9207 17.8134 31.9431 17.8607 31.9431 17.91C31.9354 19.7856 32.2183 22.2808 31.2765 23.8639C30.1138 25.8153 28.3078 26.4519 25.7692 26.4141C23.8934 26.3888 22.0732 26.4003 20.3085 26.4485Z" fill="white"/>
<path d="M44.7794 29.7111L44.8414 37.2688C44.8419 37.3138 44.8324 37.3585 44.8133 37.4002C44.7943 37.4419 44.7661 37.4799 44.7304 37.5119C44.6947 37.5439 44.6523 37.5693 44.6054 37.5866C44.5586 37.604 44.5084 37.6129 44.4577 37.6129H38.3885C38.2936 37.6129 38.2025 37.5793 38.135 37.5194C38.0675 37.4594 38.0291 37.378 38.0281 37.2928C38.0048 32.3278 37.9983 27.3869 38.0087 22.4701C38.0113 21.277 38.1895 20.3787 38.5435 19.7753C39.2954 18.4882 40.5601 17.84 42.3377 17.8308C46.557 17.8125 50.7621 17.8171 54.9529 17.8446C55.0256 17.8455 55.095 17.8715 55.1464 17.9172C55.1978 17.9628 55.2271 18.0244 55.2281 18.089L55.2707 21.2449C55.2759 21.5913 55.0834 21.7622 54.6932 21.7577C51.9105 21.7278 49.0529 21.7347 46.1204 21.7783C44.5197 21.8024 44.6864 24.2046 44.7871 25.0994C44.7987 25.2011 44.8526 25.2954 44.9385 25.364C45.0244 25.4327 45.1362 25.4708 45.2522 25.4711L53.5306 25.4642C53.5963 25.4642 53.6594 25.4874 53.706 25.5287C53.7525 25.57 53.7786 25.6261 53.7786 25.6845L53.7747 29.1467C53.7747 29.2343 53.7355 29.3183 53.6658 29.3803C53.596 29.4423 53.5013 29.4771 53.4027 29.4771L45.0429 29.4736C45.008 29.4736 44.9734 29.4798 44.9412 29.4918C44.909 29.5037 44.8797 29.5213 44.8552 29.5434C44.8307 29.5655 44.8113 29.5917 44.7983 29.6205C44.7853 29.6493 44.7789 29.6801 44.7794 29.7111Z" fill="white"/>
<path d="M75.5832 17.8272L80.0596 17.8203C80.1776 17.8201 80.2942 17.8429 80.4011 17.8873C80.508 17.9316 80.6026 17.9963 80.6781 18.0769C80.7536 18.1574 80.8082 18.2517 80.8379 18.3531C80.8677 18.4545 80.8719 18.5605 80.8502 18.6635L80.3037 21.224C80.2717 21.3761 80.1848 21.5147 80.0561 21.6191C79.9275 21.7234 79.7641 21.7876 79.5906 21.8022L75.6142 22.1464C75.5019 22.156 75.3885 22.1446 75.2815 22.1127C75.1745 22.0808 75.0763 22.0293 74.9932 21.9614C74.9102 21.8935 74.8442 21.8108 74.7996 21.7187C74.755 21.6267 74.7328 21.5273 74.7345 21.4271L74.781 18.5327C74.783 18.345 74.8684 18.1655 75.0187 18.0334C75.1689 17.9013 75.3718 17.8272 75.5832 17.8272Z" fill="white"/>
<path d="M88.7448 21.8676L84.9002 22.1188C84.7991 22.1255 84.6975 22.1134 84.6019 22.0833C84.5063 22.0531 84.4189 22.0056 84.3452 21.9437C84.2715 21.8818 84.2132 21.807 84.1739 21.7239C84.1347 21.6409 84.1154 21.5515 84.1173 21.4615L84.1793 18.4604C84.1824 18.2906 84.2605 18.1287 84.3968 18.0096C84.5331 17.8905 84.7167 17.8237 84.9079 17.8237H89.2293C89.3357 17.8234 89.4409 17.8437 89.5375 17.8833C89.6342 17.9229 89.7199 17.9808 89.7886 18.053C89.8573 18.1252 89.9074 18.2098 89.9353 18.301C89.9632 18.3922 89.9683 18.4878 89.9501 18.5809L89.4076 21.3341C89.3796 21.4758 89.2992 21.6052 89.1792 21.7018C89.0592 21.7984 88.9063 21.8567 88.7448 21.8676Z" fill="white"/>
<path d="M99.4591 27.1711C99.8492 27.0564 100.181 26.7685 100.455 26.3073C100.773 25.7704 101.64 25.1452 103.056 24.4317C103.099 24.4091 103.148 24.3973 103.199 24.3972L108.346 24.3146C108.979 24.3032 109.072 24.497 108.625 24.8963L103.842 29.1672C103.808 29.1968 103.785 29.2343 103.774 29.2754C103.763 29.3165 103.765 29.3595 103.78 29.3995C103.796 29.4395 103.824 29.4747 103.861 29.5012C103.898 29.5277 103.942 29.5444 103.99 29.5493C105.788 29.742 108.024 30.0655 108.098 32.0754C108.157 33.6883 108.193 35.3988 108.206 37.2067C108.209 37.4866 108.053 37.6266 107.737 37.6266H102.92C102.789 37.6266 102.664 37.5802 102.572 37.4976C102.48 37.4149 102.428 37.3029 102.428 37.1861V32.5365C102.428 32.3786 102.363 32.2263 102.245 32.1087C102.127 31.9912 101.964 31.9168 101.788 31.8998L99.6141 31.6933C99.5365 31.6861 99.4581 31.6933 99.384 31.7146C99.3099 31.7359 99.2417 31.7707 99.1839 31.8169C99.1261 31.863 99.08 31.9194 99.0486 31.9823C99.0172 32.0452 99.0012 32.1133 99.0017 32.182L99.025 37.3926C99.025 37.544 98.941 37.6197 98.7731 37.6197H93.5991C93.3924 37.6174 93.2891 37.5245 93.2891 37.3409L93.2929 18.0441C93.2929 17.989 93.3173 17.9362 93.3608 17.8969C93.4043 17.8576 93.4634 17.8351 93.5255 17.8342L98.7188 17.8067C98.7553 17.8062 98.7915 17.8123 98.8253 17.8245C98.8591 17.8368 98.8899 17.855 98.9159 17.878C98.9418 17.9011 98.9625 17.9285 98.9765 17.9588C98.9906 17.9891 98.9979 18.0216 98.9979 18.0545L99.0095 26.882C99.0095 27.1643 99.1593 27.2606 99.4591 27.1711Z" fill="white"/>
<path d="M146.02 29.1605C146.407 28.4882 146.373 27.9685 145.919 27.6014C145.642 27.3789 145.199 27.2802 144.589 27.3054C142.998 27.3697 141.406 27.4775 139.815 27.629C139.777 27.6324 139.739 27.6287 139.704 27.6181C139.668 27.6074 139.635 27.5901 139.608 27.5673C139.58 27.5444 139.558 27.5166 139.544 27.4857C139.529 27.4548 139.523 27.4215 139.524 27.388L139.671 24.7621C139.679 24.5969 139.776 24.4983 139.962 24.4662C142.45 24.036 152.189 23.296 152.162 27.0164C152.139 29.8545 152.12 32.6938 152.104 35.5342C152.089 38.7486 143.582 38.1567 141.183 37.8125C137.753 37.3238 137.454 35.4757 137.745 32.8292C137.918 31.2621 138.897 30.3673 140.683 30.1447C142.228 29.9497 143.751 29.7776 145.252 29.6285C145.413 29.6125 145.567 29.5614 145.701 29.4798C145.835 29.3982 145.944 29.2885 146.02 29.1605ZM144.089 32.7156C143.942 32.7542 143.808 32.8266 143.702 32.9257C143.596 33.0248 143.521 33.147 143.485 33.28L143.341 33.8203C143.312 33.9291 143.309 34.0422 143.334 34.152C143.358 34.2618 143.408 34.3657 143.482 34.4565C143.556 34.5473 143.65 34.623 143.76 34.6783C143.869 34.7336 143.991 34.7673 144.117 34.7771L145.279 34.8666C145.395 34.8755 145.512 34.8638 145.623 34.8321C145.734 34.8005 145.836 34.7495 145.925 34.6822C146.013 34.6149 146.086 34.5326 146.138 34.4402C146.19 34.3478 146.221 34.247 146.229 34.1438L146.299 33.2284C146.308 33.1034 146.283 32.9783 146.227 32.8637C146.17 32.749 146.083 32.6482 145.973 32.5699C145.863 32.4915 145.733 32.4378 145.595 32.4135C145.457 32.3891 145.314 32.3947 145.178 32.4299L144.089 32.7156Z" fill="white"/>
<path d="M134.075 27.8285C133.928 28.1589 133.853 28.5731 133.85 29.0709C133.835 31.8724 133.832 34.644 133.843 37.3857C133.843 37.4208 133.835 37.4556 133.82 37.488C133.804 37.5203 133.782 37.5497 133.754 37.5744C133.726 37.599 133.692 37.6185 133.656 37.6316C133.619 37.6447 133.58 37.6512 133.54 37.6507L128.556 37.5922C128.477 37.5913 128.401 37.5626 128.345 37.5124C128.289 37.4622 128.258 37.3944 128.258 37.3238C128.286 34.5683 128.291 31.815 128.273 29.0641C128.266 27.8733 128.432 26.9831 128.773 26.3934C130.382 23.6092 134.633 24.0876 137.404 24.3009C137.47 24.3053 137.532 24.3317 137.577 24.375C137.622 24.4184 137.648 24.4755 137.648 24.535L137.695 27.3915C137.695 27.4481 137.67 27.5023 137.625 27.5423C137.58 27.5824 137.518 27.6048 137.455 27.6048H134.447C134.367 27.6047 134.289 27.6259 134.222 27.6658C134.156 27.7057 134.105 27.7624 134.075 27.8285Z" fill="white"/>
<path d="M62.4682 33.4657C62.5147 35.2347 65.526 35.159 65.5493 33.2283C65.5829 30.3534 65.6165 27.4682 65.6501 24.5727C65.6501 24.4351 65.7276 24.3674 65.8826 24.3697L71.2503 24.4248C71.4079 24.427 71.4868 24.4982 71.4868 24.6381C71.4919 27.7745 71.4932 30.8937 71.4906 33.9957C71.4906 39.454 56.5656 39.251 56.4881 34.1919C56.439 30.9683 56.4364 27.7562 56.4803 24.5555C56.4803 24.5322 56.4856 24.5091 56.4957 24.4876C56.5059 24.466 56.5208 24.4465 56.5396 24.4302C56.5584 24.4138 56.5806 24.401 56.605 24.3924C56.6295 24.3838 56.6556 24.3796 56.6819 24.38L62.2008 24.4213C62.3377 24.4213 62.4062 24.4833 62.4062 24.6072C62.3958 28.4915 62.4165 31.4444 62.4682 33.4657Z" fill="white"/>
<path d="M71.8034 38.9034C73.5823 38.838 74.745 39.2097 74.7411 37.0793C74.736 32.9105 74.7476 28.729 74.776 24.5348C74.776 24.4901 74.796 24.4472 74.8316 24.4156C74.8672 24.384 74.9155 24.3662 74.9659 24.3662L80.5429 24.3697C80.6437 24.3697 80.6941 24.4144 80.6941 24.5039C80.707 28.6406 80.7057 32.7671 80.6902 36.8832C80.6876 38.0877 80.5442 38.9447 80.26 39.454C79.5508 40.7239 78.4191 41.2092 76.7642 41.2298C75.2062 41.2505 73.5888 41.2413 71.9119 41.2023C71.8379 41.2007 71.765 41.1856 71.6978 41.1579C71.6305 41.1301 71.5704 41.0904 71.521 41.041C71.4716 40.9917 71.4341 40.9338 71.4107 40.871C71.3872 40.8082 71.3784 40.7417 71.3848 40.6758L71.5437 39.1236C71.5592 38.9837 71.6458 38.9102 71.8034 38.9034Z" fill="white"/>
<path d="M89.5938 24.3765H84.3462C84.2413 24.3765 84.1562 24.452 84.1562 24.5451V37.4509C84.1562 37.5441 84.2413 37.6196 84.3462 37.6196H89.5938C89.6986 37.6196 89.7837 37.5441 89.7837 37.4509V24.5451C89.7837 24.452 89.6986 24.3765 89.5938 24.3765Z" fill="white"/>
<path d="M116.403 33.5588C116.414 34.9767 119.716 35.3277 119.697 32.9496C119.669 30.1505 119.662 27.3399 119.678 24.5178C119.68 24.4123 119.741 24.3595 119.86 24.3595L125.375 24.3664C125.432 24.3664 125.488 24.3863 125.528 24.4218C125.569 24.4573 125.592 24.5055 125.592 24.5557C125.6 27.4649 125.598 30.3857 125.588 33.3179C125.585 34.3412 125.411 35.1052 125.065 35.6099C123.131 38.4389 117.062 38.3219 114.046 37.4649C112.504 37.0244 110.737 36.109 110.698 34.5018C110.618 31.1749 110.607 27.8481 110.667 24.5212C110.669 24.4065 110.734 24.3503 110.861 24.3526L116.182 24.3733C116.316 24.3733 116.383 24.4329 116.383 24.5522C116.371 27.5555 116.377 30.5577 116.403 33.5588Z" fill="white"/>
<path d="M144.089 32.7155L145.178 32.4298C145.314 32.3946 145.457 32.3889 145.595 32.4133C145.733 32.4377 145.863 32.4913 145.973 32.5698C146.083 32.6482 146.17 32.749 146.227 32.8637C146.284 32.9784 146.308 33.1035 146.299 33.2285L146.229 34.1443C146.221 34.2475 146.19 34.3483 146.138 34.4408C146.086 34.5333 146.014 34.6156 145.925 34.6829C145.837 34.7502 145.734 34.8012 145.623 34.8329C145.512 34.8645 145.395 34.8762 145.279 34.8673L144.116 34.7778C143.991 34.768 143.869 34.7343 143.759 34.679C143.65 34.6236 143.555 34.5479 143.481 34.4571C143.408 34.3662 143.357 34.2623 143.333 34.1525C143.309 34.0427 143.311 33.9295 143.341 33.8207L143.484 33.2802C143.52 33.1471 143.595 33.0249 143.701 32.9258C143.807 32.8266 143.941 32.7541 144.089 32.7155Z" fill="#003B83"/>
</g>
<defs>
<clipPath id="clip0_1503_826">
<rect width="157.738" height="53" rx="4" fill="white"/>
</clipPath>
</defs>
</svg>
