<svg width="204" height="36" viewBox="0 0 204 36" fill="none" xmlns="http://www.w3.org/2000/svg">
<path d="M12.7075 16.5296H21.6252C20.4727 20.645 16.7024 23.6629 12.2387 23.6629C6.86655 23.6629 2.49071 19.2732 2.49071 13.884C2.49071 8.4948 6.86655 4.09527 12.2387 4.09527C16.302 4.09527 19.7987 6.60369 21.2541 10.1606H23.9011C22.3285 5.2025 17.6987 1.60645 12.2387 1.60645C5.4991 1.60645 0 7.11321 0 13.884C0 20.6548 5.4991 26.1615 12.2387 26.1615C16.0968 26.1615 19.6815 24.2214 21.7815 21.419V25.6324H24.0476V14.08H12.7075V16.5296Z" fill="white"/>
<path d="M30.6294 2.37061H28.1875V25.6225H30.6294V2.37061Z" fill="white"/>
<path d="M102.762 2.37061H100.32V25.6029H102.762V2.37061Z" fill="white"/>
<path d="M43.3592 23.9472C39.6085 23.9472 36.561 20.7137 36.561 16.9609C36.561 13.208 39.6085 9.99412 43.3592 9.99412C47.1099 9.99412 50.1574 13.1982 50.1574 16.9609C50.1574 20.7235 47.1002 23.9472 43.3592 23.9472ZM43.3592 7.67188C38.2508 7.67188 34.0898 11.8362 34.0898 16.9609C34.0898 22.0855 38.2508 26.2499 43.3592 26.2499C48.4676 26.2499 52.6286 22.0757 52.6286 16.9609C52.6286 11.846 48.4676 7.67188 43.3592 7.67188Z" fill="white"/>
<path d="M64.7283 23.9469C60.9678 23.9469 57.9302 20.7134 57.9302 16.9606C57.9302 13.2078 60.9776 9.99385 64.7283 9.99385C68.4791 9.99385 71.5265 13.198 71.5265 16.9606C71.5265 20.7232 68.4791 23.9469 64.7283 23.9469ZM64.8358 7.49523C62.0911 7.49523 59.6297 8.70045 57.9302 10.621V2.37061H55.4883V25.6225H57.9302V23.2904C59.6395 25.2012 62.0911 26.4064 64.8358 26.4064C69.9832 26.4064 74.1637 22.1734 74.1637 16.9508C74.1637 11.7282 69.9832 7.48543 64.8358 7.48543" fill="white"/>
<path d="M86.7655 23.938C83.0148 23.938 79.9673 20.7045 79.9673 16.9419C79.9673 13.1792 83.0148 9.97512 86.7655 9.97512C90.5162 9.97512 93.5637 13.1792 93.5637 16.9419C93.5637 20.7045 90.5162 23.938 86.7655 23.938ZM93.5832 10.6512C91.8544 8.71111 89.3539 7.49609 86.5604 7.49609C81.3446 7.49609 77.125 11.7291 77.125 16.9615C77.125 22.1939 81.3446 26.417 86.5604 26.417C89.3539 26.417 91.8544 25.1922 93.5832 23.2619V25.6332H96.0544V8.60333H93.5832V10.661V10.6512Z" fill="white"/>
<path d="M171.35 0H167.023V4.11538H171.35V0Z" fill="white"/>
<path d="M111.466 2.37061H107.5V21.8697V25.6029H120.501V21.8697H111.466V2.37061Z" fill="white"/>
<path d="M171.35 7.31934H167.023V25.574H171.35V7.31934Z" fill="white"/>
<path d="M131.49 22.4382C128.599 22.4382 126.245 19.9101 126.245 16.7942C126.245 13.6783 128.599 11.1601 131.49 11.1601C134.381 11.1601 136.735 13.6881 136.735 16.7942C136.735 19.9003 134.381 22.4382 131.49 22.4382ZM131.49 7.26025C126.245 7.26025 121.977 11.5324 121.977 16.7942C121.977 22.056 126.235 26.3282 131.49 26.3282C136.745 26.3282 140.994 22.0658 140.994 16.7942C140.994 11.5226 136.735 7.26025 131.49 7.26025Z" fill="white"/>
<path d="M189.403 19.3628C188.534 21.2147 186.766 22.4788 184.705 22.4788C181.804 22.4788 179.45 19.9409 179.45 16.825C179.45 13.4249 181.804 11.1811 184.705 11.1811C186.658 11.1811 188.368 12.3275 189.266 14.0324H193.798C192.607 10.1326 188.983 7.28125 184.695 7.28125C179.44 7.28125 175.172 11.5534 175.172 16.8348C175.172 22.1162 179.44 26.3688 184.695 26.3688C189.081 26.3688 192.763 23.3998 193.867 19.353H189.393L189.403 19.3628Z" fill="white"/>
<path d="M152.636 31.9141C150.702 31.9141 148.847 30.895 147.723 29.3665L143.875 31.2478C145.692 34.0991 148.72 36.0001 152.636 36.0001C157.706 36.0001 161.857 31.9827 162.267 27.1128H157.921C157.549 29.8368 155.322 31.9239 152.636 31.9239" fill="white"/>
<path d="M152.834 22.5271C149.952 22.5271 147.608 19.999 147.608 16.9027C147.608 13.8064 149.952 11.2882 152.834 11.2882C155.715 11.2882 158.069 13.7966 158.069 16.9027C158.069 20.0088 155.725 22.5271 152.834 22.5271ZM158.392 9.22067C156.829 8.08404 154.914 7.40794 152.834 7.40794C147.608 7.40794 143.359 11.6605 143.359 16.9027C143.359 22.1449 147.598 26.3975 152.834 26.3975C158.069 26.3975 162.279 22.1645 162.308 16.9419V7.33936H158.392V9.22067Z" fill="white"/>
<path d="M201.248 2.23389C201.375 2.23389 201.483 2.25348 201.58 2.29268C201.678 2.33187 201.766 2.39066 201.834 2.45925C201.903 2.52784 201.961 2.60623 202 2.70422C202.04 2.7924 202.059 2.90018 202.059 2.99817C202.059 3.16474 202.03 3.30192 201.961 3.41951C201.893 3.53709 201.776 3.62527 201.629 3.69386C201.707 3.72326 201.766 3.75266 201.815 3.80165C201.864 3.84084 201.903 3.89964 201.932 3.94863C201.961 4.00742 201.991 4.07601 202 4.1446C202.01 4.21319 202.02 4.28178 202.03 4.35037C202.03 4.38956 202.03 4.44835 202.03 4.50714C202.03 4.56593 202.03 4.62472 202.039 4.69331C202.039 4.7521 202.059 4.8109 202.069 4.86969C202.088 4.92848 202.108 4.97747 202.137 5.01667H201.532C201.502 4.92848 201.473 4.8207 201.473 4.70311C201.473 4.58553 201.453 4.46795 201.434 4.35037C201.414 4.20339 201.366 4.0956 201.297 4.02701C201.229 3.95842 201.121 3.92903 200.965 3.92903H200.359V5.01667H199.754V2.23389H201.248ZM201.033 3.4881C201.17 3.4881 201.278 3.4587 201.346 3.39011C201.414 3.33132 201.453 3.22354 201.453 3.08636C201.453 2.94918 201.414 2.85119 201.346 2.7924C201.278 2.73361 201.17 2.70422 201.033 2.70422H200.369V3.4881H201.033Z" fill="white"/>
<path d="M200.887 6.55476C199.285 6.55476 197.977 5.24176 197.977 3.6348C197.977 2.02784 199.285 0.714844 200.887 0.714844C202.489 0.714844 203.798 2.02784 203.798 3.6348C203.798 5.24176 202.489 6.55476 200.887 6.55476ZM200.887 1.19497C199.549 1.19497 198.455 2.2924 198.455 3.6348C198.455 4.9772 199.549 6.07463 200.887 6.07463C202.225 6.07463 203.319 4.9772 203.319 3.6348C203.319 2.2924 202.225 1.19497 200.887 1.19497Z" fill="white"/>
</svg>
