<svg width="195" height="28" viewBox="0 0 195 28" fill="none" xmlns="http://www.w3.org/2000/svg">
<path d="M25.0471 12.0635H6.25341V2.09521H0.285156V27.8095H6.25341V16.7619H24.9836V27.8095H30.9518V2.09521H24.9836V12.0635H25.0471ZM52.1582 2.09521L37.6185 27.873H43.6502L46.5709 22.2857H62.9518L65.9994 27.873H72.7296L57.9994 2.09521H52.1582ZM49.0471 17.5873L54.8248 7.11108L60.4121 17.5873H49.0471ZM72.8566 6.79362H84.6661V27.873H90.6344V6.79362H102.444V2.09521H72.7931V6.79362H72.8566ZM134.38 2.09521H115.396C113.745 2.09521 111.65 2.1587 110.38 3.36505C108.984 4.69838 108.984 7.11108 108.984 8.19045V21.7777C108.984 22.8571 108.984 25.2698 110.38 26.6031C111.65 27.8095 113.745 27.873 115.396 27.873H134.38C136.031 27.873 138.126 27.8095 139.396 26.6031C140.793 25.2698 140.793 22.8571 140.793 21.7777V8.19045C140.793 7.11108 140.793 4.69838 139.396 3.36505C138.126 2.1587 136.031 2.09521 134.38 2.09521ZM134.761 23.1746H115.015V6.79362H134.761V23.1746ZM171.904 18.0952C173.047 18.0952 175.079 17.9682 176.285 16.9524C176.984 16.3809 177.682 15.2381 177.682 13.2063V7.04759C177.682 6.03171 177.555 4.25394 176.158 3.11108C174.952 2.1587 173.111 2.09521 171.904 2.09521H149.682V27.8095H155.65V18.0952H161.301L171.65 27.8095H180.222L168.349 18.0952H171.904ZM155.714 13.7143V6.47616H169.301C169.555 6.47616 170.571 6.47616 171.015 6.85711C171.65 7.36505 171.65 8.12695 171.65 8.50791V11.619C171.65 12 171.65 12.7619 171.015 13.2698C170.571 13.5873 169.745 13.6508 169.365 13.6508H155.714V13.7143ZM188.793 0.126953C185.555 0.126953 182.888 2.79362 182.888 6.03172C182.888 9.26981 185.555 11.9365 188.793 11.9365C192.031 11.9365 194.698 9.26981 194.698 6.03172C194.698 2.79362 192.031 0.126953 188.793 0.126953ZM188.793 11.3016C185.872 11.3016 183.523 8.95235 183.523 6.03172C183.523 3.11108 185.872 0.761874 188.793 0.761874C191.714 0.761874 194.063 3.11108 194.063 6.03172C194.063 8.95235 191.65 11.3016 188.793 11.3016ZM191.079 6.1587C191.333 5.84124 191.46 5.46029 191.46 4.95235C191.46 4.31743 191.269 3.87299 190.825 3.49203C190.444 3.11108 189.872 2.9841 189.111 2.9841H186.38V9.20632H187.46V7.04759H188.793L190.317 9.20632H191.587L189.936 6.85711C190.444 6.66664 190.825 6.47616 191.079 6.1587ZM187.46 6.03172V3.93648H189.047C189.428 3.93648 189.745 3.99997 189.999 4.19044C190.253 4.38092 190.317 4.63489 190.317 4.95235C190.317 5.26981 190.19 5.52378 189.999 5.71425C189.745 5.90473 189.428 5.96822 189.047 5.96822H187.46V6.03172Z" fill="#F7EA48"/>
</svg>
