<svg width="224" height="68" viewBox="0 0 224 68" fill="none" xmlns="http://www.w3.org/2000/svg">
<path d="M220.847 51.463C220.536 48.9708 219.853 46.9148 218.735 45.2948C217.928 44.1733 216.686 43.1141 215.133 42.1173C213.953 41.3696 212.711 40.6842 211.468 39.9366C211.406 39.8743 211.406 39.812 211.468 39.812C213.208 39.4381 214.698 38.6282 215.94 37.4444C217.182 36.2606 217.804 35.0768 217.741 33.8307C217.741 31.5877 216.996 29.7809 215.568 28.5348C214.263 27.4133 212.586 26.8526 210.661 26.9149C208.922 26.9772 207.183 27.1641 205.32 27.6002C203.519 28.0364 202.711 28.2233 202.897 28.2233C202.649 28.2233 202.338 28.0987 201.842 27.8495C201.345 27.6003 200.91 27.4756 200.475 27.4133C198.985 27.351 197.494 27.6626 196.065 28.3479C196.065 28.4102 196.066 28.4102 196.128 28.4102C197.432 28.3479 198.239 28.5348 198.612 28.971C198.86 29.2825 198.923 29.9678 198.923 31.0893L199.047 51.0268C199.047 53.5813 198.985 55.0767 198.798 55.6374C198.612 56.1359 198.053 56.6343 196.997 57.1328C196.935 57.1951 196.935 57.195 196.997 57.195C198.364 57.195 200.786 57.2573 204.326 57.382C207.68 57.5066 209.481 57.5689 209.729 57.5689C211.965 57.5689 214.139 57.1951 216.251 56.5097C219.543 55.3882 221.095 53.706 220.847 51.463ZM205.692 40.8089C212.648 43.8618 216.064 47.6001 215.94 52.0238C215.816 54.8898 214.263 56.2605 211.22 56.3228C209.419 56.3228 206.997 56.1358 203.891 55.6997C203.829 55.6997 203.767 55.6374 203.767 55.5751C203.767 55.0767 203.705 54.2667 203.581 53.1452C203.456 52.0237 203.456 51.3384 203.456 51.0892C203.456 50.7153 203.394 49.2823 203.332 46.7901C203.27 44.2979 203.208 42.1796 203.208 40.3727C203.208 36.0737 203.332 32.3977 203.705 29.4694C203.705 29.4071 203.705 29.3448 203.767 29.3448C204.078 29.0332 204.699 28.7217 205.63 28.5348C206.376 28.3479 206.997 28.2233 207.431 28.2233C208.922 28.2856 210.102 28.971 211.096 30.3417C212.027 31.7124 212.524 33.3323 212.524 35.2014C212.524 36.946 211.655 38.2544 209.978 39.1266C208.549 39.6874 207.121 40.2481 205.692 40.7465C205.63 40.7465 205.63 40.8089 205.692 40.8089ZM204.326 55.8867C204.326 55.8867 204.326 55.8866 204.264 55.8243C203.27 56.6343 201.966 57.0704 200.413 57.0704C199.73 57.0704 199.233 57.0081 198.798 56.8212C195.755 55.5751 193.333 52.0238 191.532 46.2294C189.047 38.0675 187.37 33.27 186.439 31.7123C183.52 26.8526 178.924 24.485 172.713 24.5473C171.905 24.5473 171.284 24.5473 170.849 24.6096C169.98 24.7342 169.545 24.9211 169.483 25.2327C169.483 25.295 169.483 25.295 169.545 25.3573C169.98 25.295 170.477 25.2327 170.849 25.2327C174.203 25.2327 177.122 26.5411 179.545 29.2825C181.656 31.6501 183.085 34.5161 183.83 38.0052C183.83 38.0675 183.83 38.1298 183.768 38.1298C183.582 38.1921 182.402 38.5659 180.104 39.1889C178.675 39.5628 177.619 40.0612 176.998 40.5596C175.383 41.9927 174.327 43.9864 173.831 46.5409C173.644 48.6593 173.396 50.7153 173.21 52.8337C173.023 54.9521 172.402 56.2605 171.408 56.8212C171.408 56.8212 171.346 56.8835 171.346 56.9458L171.657 58.1296C171.719 58.1919 171.719 58.1919 171.781 58.1919C173.272 58.1296 174.079 58.0673 174.265 58.0673C175.197 57.9427 175.88 57.7558 176.439 57.5066C176.998 57.195 177.495 56.572 177.992 55.6374C178.489 54.7029 178.799 54.1421 178.861 54.0798C179.731 53.3944 181.222 52.5222 183.395 51.5253C185.196 50.653 186.501 49.7808 187.246 48.9085C187.308 48.9085 187.308 48.9085 187.308 48.9085C189.296 52.7714 191.097 55.2636 192.774 56.3228C193.954 57.0704 196.065 57.5066 199.109 57.5689C201.531 57.6312 203.27 57.0704 204.326 55.8867ZM186.625 46.2294C186.687 46.2917 186.687 46.4163 186.625 46.5409C186.314 47.4755 184.948 48.597 182.526 49.9677C179.979 51.3384 178.613 52.1483 178.551 52.3976C178.489 52.4599 178.489 52.3976 178.489 52.3353C178.365 51.7122 178.302 51.0269 178.365 50.2792C178.365 48.7216 178.737 46.8525 179.42 44.6718C180.414 41.4942 181.718 39.7497 183.395 39.3135C184.079 39.1266 184.762 40.0612 185.569 42.2419C186.004 43.6126 186.377 44.9833 186.625 46.2294ZM170.849 51.7122C170.539 49.22 169.856 47.164 168.738 45.544C167.93 44.4225 166.688 43.3634 165.135 42.3665C163.955 41.6188 162.713 40.9335 161.471 40.1858C161.409 40.1235 161.409 40.0612 161.471 40.0612C163.21 39.6874 164.701 38.8774 165.943 37.6936C167.185 36.5098 167.806 35.3261 167.744 34.08C167.744 31.837 166.999 30.0301 165.57 28.784C164.266 27.6626 162.589 27.1018 160.664 27.1641C158.924 27.2264 157.185 27.4133 155.322 27.8495C153.521 28.2856 152.714 28.4725 152.9 28.4725C152.652 28.4725 152.341 28.3479 151.844 28.0987C151.347 27.8495 150.913 27.7248 150.478 27.6625C148.987 27.6002 147.497 27.9117 146.068 28.5971C146.068 28.6594 146.068 28.6594 146.13 28.6594C147.434 28.5971 148.242 28.784 148.614 29.2201C148.863 29.5317 148.925 30.217 148.925 31.3385L149.049 51.2761C149.049 53.8306 148.987 55.3259 148.801 55.8867C148.614 56.3851 148.056 56.8835 147 57.382C146.938 57.4443 146.938 57.4443 147 57.4443C148.366 57.4443 150.788 57.5066 154.328 57.6312C157.682 57.7558 159.483 57.8181 159.732 57.8181C161.968 57.8181 164.142 57.4443 166.253 56.7589C169.545 55.6374 171.098 53.9552 170.849 51.7122ZM155.633 41.0581C162.589 44.111 166.005 47.8493 165.881 52.2729C165.756 55.139 164.204 56.5097 161.16 56.572C159.359 56.572 156.937 56.3851 153.832 55.9489C153.769 55.9489 153.707 55.8866 153.707 55.8243C153.707 55.3259 153.645 54.5159 153.521 53.3945C153.397 52.273 153.397 51.5876 153.397 51.3384C153.397 50.9645 153.335 49.5316 153.273 47.0394C153.211 44.5472 153.148 42.4288 153.148 40.622C153.148 36.3229 153.273 32.6469 153.645 29.7186C153.645 29.6563 153.645 29.594 153.707 29.594C154.018 29.2825 154.639 28.971 155.571 28.784C156.316 28.5971 156.937 28.4725 157.372 28.4725C158.862 28.5348 160.042 29.2202 161.036 30.5909C161.968 31.9616 162.465 33.5815 162.465 35.4506C162.465 37.1952 161.595 38.5036 159.918 39.3759C158.49 39.9366 157.061 40.4973 155.633 40.9958C155.571 40.9958 155.571 41.0581 155.633 41.0581ZM146.068 32.2108C146.379 32.7716 146.254 33.1454 145.82 33.3323C144.515 33.6438 142.59 34.1422 140.106 34.8276C140.106 34.8276 140.043 34.8276 140.043 34.7653C140.665 34.0176 141.037 33.4569 141.037 33.0208C141.037 31.9616 140.292 31.0893 138.739 30.404C137.311 29.8432 135.572 29.5317 133.46 29.594C132.653 29.594 131.845 29.6563 131.038 29.7809C125.324 30.5286 122.467 33.7061 122.529 39.3759C122.529 40.8089 122.964 41.4942 123.895 41.4942C124.019 41.4942 124.206 41.4942 124.516 41.4319C124.765 41.3696 124.951 41.3696 125.075 41.3696L142.776 40.9335C143.459 40.9958 143.894 41.4319 144.143 42.055C144.143 42.1173 144.143 42.2419 144.081 42.2419C143.459 42.5534 142.59 43.1141 141.596 43.9864C140.54 44.7964 139.857 45.4817 139.422 45.9802C139.36 45.9802 139.36 45.9802 139.36 45.9179C139.609 45.0456 139.733 44.298 139.733 43.7372C139.733 42.9272 139.298 42.4288 138.367 42.2419C138.056 42.1796 137.311 42.1173 136.131 42.1796C129.05 42.4288 124.889 42.6157 123.585 42.8026C123.523 42.8026 123.46 42.8649 123.46 42.9272C123.771 46.2917 125.2 49.4069 127.808 52.3353C130.541 55.3882 133.522 56.8835 136.752 56.8835C138.242 56.8835 139.422 56.4474 140.292 55.5751C140.913 54.8275 141.534 54.0175 142.155 53.2075C142.9 52.3976 143.832 51.9614 144.888 51.9614H146.254C146.316 51.9614 146.379 52.0237 146.316 52.086C145.695 53.8306 144.081 55.2636 141.534 56.3851C139.485 57.2574 137.497 57.7558 135.572 57.8181C134.702 57.8804 132.653 57.7558 129.547 57.5689C126.38 57.3819 123.523 55.2013 120.976 51.1515C118.74 47.5378 117.56 44.0487 117.374 40.622C117.25 36.6345 118.492 33.6438 121.287 31.5878C123.647 29.7809 126.939 28.784 131.162 28.6594C134.329 28.5348 136.938 28.5348 138.988 28.784C142.714 29.2202 145.074 30.3417 146.068 32.2108ZM121.349 57.0081C120.541 57.6935 119.734 58.0673 118.802 58.0673C116.256 58.0673 109.424 50.7777 98.3686 36.136C98.3686 36.0737 98.3686 36.0114 98.4307 36.0114C102.157 28.9086 104.766 25.3573 106.256 25.3573C107.188 25.3573 107.933 25.6065 108.554 26.1672C109.175 26.728 109.486 27.351 109.486 28.0364C109.486 28.4102 109.424 28.784 109.238 29.0956C109.238 29.1579 109.238 29.1579 109.3 29.1579C110.915 28.6594 111.908 28.4102 112.157 28.2856C113.337 27.8494 114.206 27.4756 114.827 27.1018C114.827 27.0395 114.889 26.9772 114.889 26.9772C114.765 26.1049 114.206 25.295 113.213 24.6719C112.281 24.0489 111.349 23.7373 110.293 23.7373C107.809 23.6127 106.691 23.5504 106.815 23.5504C105.201 23.5504 103.834 24.1112 102.778 25.1703C101.722 26.2295 99.9213 28.784 97.4369 32.8339C97.4369 32.8962 97.4369 32.8338 97.4369 32.7715L97.4991 15.2016C97.4991 14.6408 96.8159 14.3916 95.5116 14.3916C93.3999 14.3916 91.164 14.89 88.9281 15.7623C88.866 15.7623 88.9281 15.8246 88.9902 15.8246C89.3007 15.7623 89.6113 15.7 89.9839 15.7C91.3503 15.7 92.344 16.0738 93.0272 16.7592C93.0272 16.8215 93.0893 16.8838 93.0893 17.0084V52.0238C93.0893 53.6437 93.0272 54.8275 92.903 55.5751C92.7167 56.9458 92.2198 57.7558 91.5366 57.9427C91.5366 57.9427 91.5366 57.9427 91.5366 58.005C92.7167 58.4411 94.3315 58.628 96.2569 58.628C97.3748 58.628 98.9276 58.3788 100.915 58.005C100.977 58.005 100.977 57.9427 100.915 57.9427C99.6108 57.7558 98.5549 57.382 97.6854 56.8835C97.6854 56.8835 97.6233 56.8212 97.6233 56.7589L97.4991 42.6157C97.5612 42.6157 97.5612 42.5534 97.5612 42.5534C105.573 53.5191 111.101 59.0019 114.268 59.1265C118.368 59.1265 120.79 58.4412 121.349 57.0081Z" fill="white"/>
<path fill-rule="evenodd" clip-rule="evenodd" d="M75.3694 29.4077C74.8725 28.7224 74.3135 28.1616 73.8167 27.6009L71.2702 31.9622C71.2702 31.9622 71.2702 31.9622 71.2702 32.0245C71.2081 32.0868 71.2081 32.1491 71.146 32.2114C70.2765 32.0245 70.7113 32.0868 71.146 32.2114C71.705 32.336 72.264 32.336 72.9472 32.2737C72.0155 33.0214 70.4628 33.5821 69.4691 33.0837C68.4753 32.5852 68.5375 30.903 68.7238 30.0308C68.9101 30.4669 69.1585 30.903 69.4691 31.2145C69.5312 31.1522 69.5933 31.0276 69.5933 30.9653L72.3261 26.4171C70.8355 25.2956 69.2206 24.6102 67.5437 24.2987L66.6742 27.6009V27.6632C66.6121 27.9124 66.4879 28.2239 66.3015 28.5354C66.8605 28.5354 67.4195 28.4731 67.9785 28.2862C67.2332 29.1585 65.8047 30.0931 64.6867 29.7815C63.6309 29.47 63.3203 27.8501 63.3203 26.9778C63.5688 27.3516 63.8793 27.6632 64.1898 27.9124C64.2519 27.6009 64.3141 27.2893 64.3762 27.0401L65.1836 24.1118C62.5129 24.0495 59.9043 24.8595 57.6684 26.1679C54.4388 21.1212 49.5943 18.3798 42.576 19.7505C32.266 22.1804 29.5953 36.1366 36.3031 48.3484C39.9054 54.2673 44.1287 59.9371 47.11 66.1676C55.3083 60.5601 63.8172 58.5041 71.2081 51.5259C76.2389 46.4169 80.276 35.7005 75.3694 29.4077Z" fill="#C10230"/>
<path fill-rule="evenodd" clip-rule="evenodd" d="M39.7138 18.4422C31.6397 21.6198 29.4038 32.8346 32.2608 41.3704C28.6585 33.2708 25.3667 21.9936 33.6893 14.1432C32.7577 16.4485 32.5713 19.003 32.7577 21.059C33.9998 16.1993 38.2853 10.9656 35.6146 4.61054C39.2791 7.85039 40.0244 13.0217 38.4716 17.4454C44.2478 13.3955 36.7326 8.78499 39.217 0C40.6455 7.53889 44.372 7.78809 44.8689 14.3924C46.2973 12.0248 46.7321 9.28343 45.552 6.04358C46.7942 7.10276 48.5332 9.40802 49.3407 12.2117C49.8375 14.1432 50.086 16.5108 51.0176 16.2616C52.8809 15.8254 50.086 11.4641 50.2723 11.1525C51.5145 11.9625 53.5641 14.7662 53.8746 18.3176C55.0547 19.0653 56.6695 20.7475 57.3527 22.1182C53.6262 18.5668 47.8501 15.327 39.7138 18.4422Z" fill="#C10230"/>
<path fill-rule="evenodd" clip-rule="evenodd" d="M65.6269 22.8651C64.3847 22.9897 63.0183 23.1766 61.5898 23.4881C62.5215 22.9897 64.0121 22.3666 65.8753 22.0551L65.6269 22.8651ZM73.2042 24.8588C71.5272 23.5504 69.7882 22.9897 67.9249 22.8651L68.1734 21.8682C69.9745 21.8682 72.0241 22.3666 74.0116 23.4881L73.2042 24.8588ZM75.8748 27.5379C75.5022 27.0395 75.0674 26.6033 74.6948 26.1672L75.6264 24.5473C76.2475 25.0457 76.8065 25.5442 77.4276 26.2295C83.6384 32.8338 79.6635 46.354 74.3221 50.1546C80.533 42.5534 80.0361 32.8961 75.8748 27.5379Z" fill="#C10230"/>
<path fill-rule="evenodd" clip-rule="evenodd" d="M48.1866 20.3125C48.5592 20.3125 48.8698 20.624 48.8698 20.9979C48.8698 21.3717 48.5592 21.6832 48.1866 21.6832C47.8139 21.6832 47.5034 21.3717 47.5034 20.9979C47.5034 20.624 47.8139 20.3125 48.1866 20.3125ZM44.1495 20.4371C44.5221 20.4371 44.8327 20.7486 44.8327 21.1225C44.8327 21.4963 44.5221 21.8078 44.1495 21.8078C43.7768 21.8078 43.4663 21.4963 43.4663 21.1225C43.5284 20.7486 43.839 20.4371 44.1495 20.4371ZM40.5472 21.8078C40.9199 21.8078 41.2304 22.1193 41.2304 22.4932C41.2304 22.867 40.9199 23.1785 40.5472 23.1785C40.1746 23.1785 39.864 22.867 39.864 22.4932C39.9261 22.1193 40.1746 21.8078 40.5472 21.8078ZM37.8765 24.2377C38.2492 24.2377 38.5597 24.5492 38.5597 24.9231C38.5597 25.2969 38.2492 25.6084 37.8765 25.6084C37.5039 25.6084 37.1933 25.2969 37.1933 24.9231C37.1933 24.5492 37.5039 24.2377 37.8765 24.2377ZM35.7648 27.166C36.1375 27.166 36.448 27.4776 36.448 27.8514C36.448 28.2252 36.1375 28.5367 35.7648 28.5367C35.3922 28.5367 35.0816 28.2252 35.0816 27.8514C35.1437 27.4776 35.4543 27.166 35.7648 27.166ZM34.4605 30.9043C34.8332 30.9043 35.1437 31.2159 35.1437 31.5897C35.1437 31.9635 34.8332 32.275 34.4605 32.275C34.0879 32.275 33.7773 31.9635 33.7773 31.5897C33.7773 31.2159 34.0879 30.9043 34.4605 30.9043ZM51.851 21.2471C52.2236 21.2471 52.5342 21.5586 52.5342 21.9324C52.5342 22.3063 52.2236 22.6178 51.851 22.6178C51.4783 22.6178 51.1678 22.3063 51.1678 21.9324C51.1678 21.5586 51.4783 21.2471 51.851 21.2471Z" fill="white"/>
<path fill-rule="evenodd" clip-rule="evenodd" d="M55.8824 60.3115C55.5098 60.3115 55.1992 60 55.1992 59.6262C55.1992 59.2524 55.5098 58.9408 55.8824 58.9408C56.2551 58.9408 56.5656 59.2524 56.5656 59.6262C56.5656 60 56.2551 60.3115 55.8824 60.3115ZM61.5343 57.2586C61.1617 57.2586 60.8511 56.9471 60.8511 56.5733C60.8511 56.1994 61.1617 55.8879 61.5343 55.8879C61.907 55.8879 62.2175 56.1994 62.2175 56.5733C62.2175 56.9471 61.907 57.2586 61.5343 57.2586ZM64.5155 55.5764C64.1429 55.5764 63.8323 55.2648 63.8323 54.891C63.8323 54.5172 64.1429 54.2057 64.5155 54.2057C64.8882 54.2057 65.1987 54.5172 65.1987 54.891C65.1987 55.2648 64.8882 55.5764 64.5155 55.5764ZM66.9999 53.5826C66.6272 53.5826 66.3167 53.2711 66.3167 52.8973C66.3167 52.5234 66.6272 52.2119 66.9999 52.2119C67.3725 52.2119 67.6831 52.5234 67.6831 52.8973C67.6831 53.2711 67.3725 53.5826 66.9999 53.5826ZM58.5531 58.9408C58.1804 58.9408 57.8699 58.6293 57.8699 58.2555C57.8699 57.8817 58.1804 57.5701 58.5531 57.5701C58.9258 57.5701 59.2363 57.8817 59.2363 58.2555C59.1742 58.6293 58.9258 58.9408 58.5531 58.9408Z" fill="white"/>
<path fill-rule="evenodd" clip-rule="evenodd" d="M82.5262 7.97474C80.5387 12.8345 73.7689 19.1273 76.5017 21.2457C79.2345 23.3017 82.402 13.333 85.1348 9.40775C87.0602 10.28 82.8368 17.5074 80.2903 23.0525C79.6692 24.4855 76.8743 25.0463 74.39 22.8656C71.4088 19.7504 75.0732 16.8844 77.9302 12.5853C78.986 11.1523 80.3524 7.53861 82.5262 7.97474Z" fill="#C10230"/>
<path fill-rule="evenodd" clip-rule="evenodd" d="M74.8144 4.17421C75.1871 4.29882 74.9387 6.7287 74.1933 9.65703C73.448 12.5854 72.5164 14.8906 72.1438 14.8283C71.7711 14.7037 72.0196 12.2738 72.7649 9.34551C73.5102 6.35487 74.4418 4.0496 74.8144 4.17421ZM69.411 2.55426C69.7836 2.67887 69.5352 5.10875 68.7899 8.03708C68.0446 10.9654 67.113 13.2707 66.7403 13.2084C66.3677 13.0838 66.6161 10.6539 67.3614 7.72556C68.1067 4.79723 69.0383 2.49196 69.411 2.55426ZM72.0817 3.17731C72.4543 3.30192 72.2059 5.7318 71.4606 8.66013C70.7153 11.5885 69.7836 13.8938 69.411 13.8315C69.0383 13.7069 69.2868 11.2769 70.0321 8.34861C70.7774 5.42028 71.709 3.11501 72.0817 3.17731ZM68.852 16.7598C65.7466 16.2613 64.0696 15.8875 64.7528 11.8377C65.0013 10.2801 66.0571 4.36113 66.3677 3.23964C67.0508 0.68514 68.293 -0.000229001 73.0133 1.43278C77.9199 2.86579 77.7956 4.04957 77.2367 6.16794C76.9261 7.41403 74.3176 13.8937 73.9449 15.0152C72.8891 18.0059 71.9574 17.3205 68.852 16.7598Z" fill="#C10230"/>
<path fill-rule="evenodd" clip-rule="evenodd" d="M69.4132 15.4518C69.6617 15.8879 69.5995 16.4487 69.4753 16.9471L66.6804 27.5389V27.6012C66.6183 27.8505 66.4941 28.162 66.3078 28.4735C65.9973 28.4735 65.7488 28.4112 65.5004 28.3489C65.6867 28.0374 65.873 27.6635 65.9351 27.2897C66.8668 23.7383 67.7984 20.187 68.73 16.6356C69.0406 15.5764 68.4816 15.4518 68.2953 16.1371C67.3015 19.7508 66.2457 23.4268 65.2519 27.0405C65.1277 27.352 65.0656 27.7882 65.0035 28.162C64.7551 28.0374 64.5066 27.9128 64.3203 27.7259C64.3824 27.4143 64.4445 27.1028 64.5066 26.8536L67.55 15.9502C67.6742 15.5764 67.9847 15.2026 68.4195 15.078C68.6058 15.0157 68.7921 15.0157 68.9785 15.078C69.1648 15.1403 69.289 15.2649 69.4132 15.4518Z" fill="#C10230"/>
<path fill-rule="evenodd" clip-rule="evenodd" d="M76.428 22.4306C76.5523 22.8667 76.3659 23.3651 76.1175 23.6767L71.273 31.9632C71.273 31.9632 71.273 31.9632 71.273 32.0255C71.2109 32.0878 71.2109 32.1501 71.1488 32.2124C70.9004 32.1501 70.714 32.0878 70.4656 31.9632C70.5277 31.8386 70.5898 31.7763 70.6519 31.6517C72.2668 28.9103 73.8816 26.1065 75.4964 23.3651C75.9933 22.5552 75.6206 22.3059 75.248 22.8044C73.5089 25.6081 71.832 28.4741 70.0929 31.2779C70.0308 31.4025 69.9687 31.5271 69.8445 31.6517C69.6582 31.5271 69.4719 31.3401 69.3477 31.2155C69.4098 31.1532 69.4719 31.0286 69.4719 30.9663L74.6269 22.4928C74.8132 22.1813 75.1859 21.9321 75.5585 21.9321C75.7448 21.9321 75.8691 21.9944 76.0554 22.0567C76.2417 22.0567 76.3659 22.2436 76.428 22.4306Z" fill="#C10230"/>
<path d="M37.5461 46.4798C35.6828 43.24 34.8754 39.0032 35.186 35.1403C35.4965 31.5266 36.8008 28.1622 39.223 26.1061C39.6578 25.7946 40.0925 25.4831 40.5273 25.1716C43.3222 23.2401 46.1171 22.4925 48.6014 22.7417C51.1479 22.9909 53.3838 24.3616 55.3092 26.7915C55.5576 27.103 55.7439 27.4145 55.9924 27.7261L56.9861 29.2214L55.6818 27.9753C53.0111 25.4831 50.2783 24.4239 47.7319 24.3616C44.7507 24.2993 42.0179 25.6077 39.8441 27.6015C37.6082 30.4052 36.8629 33.4581 36.8008 36.5734C36.7387 39.7509 37.4219 43.0531 38.1051 46.2929L38.4156 47.6636L37.5461 46.4798Z" fill="white"/>
<path d="M67.3212 49.7821C64.34 52.5235 59.6818 54.8911 54.9616 57.2587C52.6636 58.4425 50.3034 59.6263 48.1917 60.8724C48.0675 60.9347 47.9433 60.8723 47.8812 60.81C47.8191 60.7477 47.8812 60.6232 47.9433 60.5608C51.2351 57.3833 54.651 55.5764 58.0049 53.8319C64.0294 50.6543 69.7435 47.6014 73.47 37.0719C73.5321 36.9473 73.6563 36.885 73.7184 36.9473C73.7805 37.0096 73.8426 37.0719 73.8426 37.1342C73.7184 39.2526 73.1594 41.4955 71.9793 43.8008C70.9235 45.7946 69.4329 47.7883 67.3212 49.7821Z" fill="white"/>
<path d="M32.8323 56.7597C31.1553 58.1927 28.0499 58.9404 23.3297 59.0027C23.1433 59.0027 21.4664 58.878 18.2988 58.5042C15.1313 58.1304 12.8333 57.9435 11.2806 57.9435C11.1564 57.9435 11.1564 57.8812 11.2185 57.8189C12.2122 57.1335 12.7091 56.7597 12.7712 56.6351C13.3302 55.8874 13.6407 54.3921 13.6407 52.2737C13.7028 43.9872 13.7649 34.7661 13.827 24.6104C13.827 22.8035 12.8954 20.9967 10.9079 19.1898C8.92044 17.383 6.56032 16.2615 3.82754 15.8877C3.70332 15.8877 3.70332 15.8877 3.82754 15.8254L24.4476 15.5762C24.5097 15.6385 24.4476 15.7008 24.3855 15.7008C22.8949 16.1992 22.2117 16.9469 22.398 18.006L22.2117 30.9032C22.0875 41.495 21.9633 47.1647 21.9633 47.9124C22.0254 53.2083 22.398 56.012 23.0191 56.3235C23.8265 56.7597 25.0066 57.1958 26.4972 57.5073C27.9878 57.8189 29.0437 57.9435 29.6647 57.8189C30.9069 57.632 32.0249 57.2581 32.8944 56.6351C32.8323 56.6351 32.8323 56.6351 32.8323 56.7597Z" fill="white"/>
<path fill-rule="evenodd" clip-rule="evenodd" d="M62.7675 38.7529C62.8917 38.5659 62.8296 38.5659 62.9538 38.6905L62.8296 38.5659C61.8359 38.1298 60.6558 38.5036 58.4199 36.946C57.2398 36.0737 56.1219 34.7653 55.3145 33.8308C54.3828 32.7716 53.5133 31.5255 52.6438 30.5286C52.209 30.0925 51.4016 29.2825 50.8426 29.0333C50.0973 28.7218 49.5383 29.2202 49.1036 29.9678C48.0477 31.7124 48.7309 32.5847 49.8489 33.7685C52.4575 36.4476 59.2894 39.2513 62.7675 38.7529Z" fill="white"/>
<path fill-rule="evenodd" clip-rule="evenodd" d="M60.9649 39.5017C60.8407 39.564 61.0891 39.6886 60.7165 39.5017C60.5922 39.564 60.8407 39.6886 60.468 39.5017C60.2196 39.4394 58.3563 39.3148 57.052 39.0033C52.8286 38.0064 49.2885 33.8943 47.7979 35.5142C47.301 36.075 47.1147 36.8226 47.0526 37.3834C46.8041 40.0625 50.0338 39.6887 52.7665 40.0625C54.6919 40.3117 57.8595 40.4363 59.4743 40.1248C59.6606 40.0002 59.4743 39.8756 59.6606 40.0002H59.8469C59.909 39.751 59.8469 39.8133 59.9712 40.0002C60.0333 39.8133 59.9712 39.8133 60.0954 40.0002C60.1575 39.751 60.0954 39.8133 60.2196 40.0002C60.3438 39.8756 60.0954 39.8133 60.4059 40.0002H60.468H60.5301L61.3375 39.751C61.2754 39.751 61.2754 39.751 61.2133 39.751L60.9649 39.5017Z" fill="white"/>
<path fill-rule="evenodd" clip-rule="evenodd" d="M61.0933 26.0431L60.8449 25.9185L56.0625 32.7097C56.3109 33.0212 56.373 33.2704 56.5594 33.5819C56.9941 34.4542 57.6152 35.5757 58.4847 36.1988C59.8511 37.2579 61.9007 37.6318 62.8945 37.1333C64.5093 36.3857 64.6335 34.0804 62.2734 34.3296C61.9007 34.3919 58.4226 34.7658 58.1742 34.0804C58.1121 33.7689 60.7206 26.9776 61.0933 26.0431Z" fill="white"/>
<path fill-rule="evenodd" clip-rule="evenodd" d="M61.7735 40.4362C61.5251 40.4362 58.9165 41.0593 56.929 41.0593C54.4447 41.1216 50.3455 40.0001 49.1655 40.5608C48.2338 40.997 46.8674 44.1122 50.5939 43.863C51.2771 43.8007 52.3951 43.6138 53.0162 43.4892L54.5689 43.1776L58.1712 42.0562C58.9165 41.8069 59.2892 41.6823 60.0345 41.3708C60.5313 41.1839 61.4008 40.8101 61.7735 40.5608L61.8977 40.4362H61.7735Z" fill="white"/>
<path fill-rule="evenodd" clip-rule="evenodd" d="M46.8656 46.4165L47.0519 49.2825C47.3004 52.3355 45.4371 55.6376 44.7539 58.9398C45.2508 58.5659 46.9277 55.6376 47.3625 54.8899C47.8593 54.1423 48.2941 54.2046 48.9773 53.8308C52.7038 51.8993 51.4616 51.214 49.4121 49.4694C47.8593 48.0364 47.4246 46.9772 46.8656 46.4165Z" fill="white"/>
<path fill-rule="evenodd" clip-rule="evenodd" d="M55.1253 46.0441H56.6159C56.9265 45.8572 57.4854 46.0442 58.355 45.5457C58.976 45.1719 59.4729 44.1127 59.1624 43.5519C58.7276 42.6797 56.0569 43.7389 55.498 43.8635C53.1378 44.6111 50.964 45.5457 47.7344 44.3619L48.107 44.7358C49.0387 45.3588 50.5293 45.7326 51.5851 45.8572C52.5789 45.9818 54.0074 46.0441 55.1253 46.0441Z" fill="white"/>
<path fill-rule="evenodd" clip-rule="evenodd" d="M55.2558 47.4761C55.0694 47.5384 55.38 47.5384 54.9452 47.5384L54.6347 47.4761C54.262 47.4138 54.3863 47.476 54.0757 47.2891C53.9515 47.4137 54.0757 47.4761 53.8894 47.2268C53.8273 47.4138 53.8894 47.3515 53.6409 47.2268C53.2683 47.2891 51.405 46.9776 50.9082 46.853C50.1629 46.6661 48.6723 46.1677 47.9891 45.6069H47.5543H47.4922C47.7406 45.8562 48.1754 46.23 48.2375 46.5415C49.7902 47.663 51.3429 49.0337 53.082 49.719C53.8894 50.0306 54.5105 50.2798 55.2558 49.6567C55.5663 49.3452 55.939 48.8468 56.0632 48.5352C56.1874 47.9745 55.939 47.9122 55.4421 47.6007C55.3179 47.7253 55.38 47.7253 55.2558 47.4761Z" fill="white"/>
</svg>
