<svg width="190" height="65" viewBox="0 0 190 65" fill="none" xmlns="http://www.w3.org/2000/svg">
<g clip-path="url(#clip0_2566_603)">
<path fill-rule="evenodd" clip-rule="evenodd" d="M0 0H190V65H0V0Z" fill="#004712"/>
<path fill-rule="evenodd" clip-rule="evenodd" d="M29.371 17.6534L23.1731 17.6196L23.7929 19.0738L23.8273 46.129L23.1387 47.6847H29.371L28.6823 46.1628V33.2102V19.1415L29.371 17.6534Z" fill="white"/>
<path fill-rule="evenodd" clip-rule="evenodd" d="M41.56 42.8825L34.1569 32.6015L43.9703 21.4751C45.6919 19.5812 47.689 18.2623 49.5139 17.9241L49.755 17.6536H40.3548L41.009 19.1416L28.6821 33.2103L36.1885 43.6603C38.9775 47.5495 41.1123 50.1874 44.4867 52.1151C47.5168 53.8398 51.511 54.8206 55.884 54.2795C55.9873 54.1104 56.125 53.806 56.2283 53.5693C52.7506 53.0282 49.5139 51.6754 47.2414 49.6125C45.5542 48.1244 44.2457 46.8393 41.56 42.8825Z" fill="white"/>
<path fill-rule="evenodd" clip-rule="evenodd" d="M138.144 44.6749V34.2248H147.958L149.232 31.215H138.144V20.6296H147.682L149.3 21.2046L150.815 17.6536H132.601L133.255 19.1416V46.1291L132.601 47.6848H149.232L150.85 43.9985L149.128 44.6749H138.144Z" fill="white"/>
<path fill-rule="evenodd" clip-rule="evenodd" d="M171.475 44.6749H160.457V34.2248L160.422 19.2092L161.111 17.6536H154.947L155.601 19.1416V46.1291L154.947 47.6848H171.578L173.162 43.9985L171.475 44.6749Z" fill="white"/>
<path fill-rule="evenodd" clip-rule="evenodd" d="M57.0207 44.8438V34.3938H66.834L68.1081 31.3839H57.0207V20.8324H66.5586L68.1769 21.3735L69.692 17.8225H51.4771L52.1313 19.3105V46.2981L51.4771 47.8537H68.1081L69.7264 44.1675L68.0048 44.8438H57.0207Z" fill="white"/>
<path fill-rule="evenodd" clip-rule="evenodd" d="M95.8264 44.7086L87.8724 33.6837C91.8666 32.9396 95.4476 30.5047 95.4476 25.4657C95.4476 20.4605 91.0058 17.4506 83.7749 17.5182L78.8855 17.5858L73.514 17.6535L74.1682 19.1415V46.1628L73.2041 47.7185H79.7119L78.9544 46.1628V20.2237V20.1561L79.0232 20.0884C82.1222 19.7841 85.0145 19.5812 87.0116 20.4266C88.7677 21.1707 90.6959 22.9631 90.6959 25.4995C90.6959 27.2919 90.0761 28.6446 89.2153 29.5577C87.1494 31.7222 83.9471 31.756 80.4694 31.2149L80.5038 31.2825C80.3317 31.2487 80.2284 31.2487 80.2284 31.2487L90.2483 45.3512C92.0044 48.192 95.4476 47.8876 98.5122 47.7523V47.4141C97.9612 47.2789 96.7561 46.0276 95.8264 44.7086Z" fill="white"/>
<path fill-rule="evenodd" clip-rule="evenodd" d="M124.165 19.2431V31.2488V32.0604V34.2587V36.7613L106.948 17.6536L101.577 17.7212H101.439H100.509L102.059 19.446V46.1629L101.405 47.6848H106.397L105.743 46.1629V34.2587V31.2488V23.5719L118.139 37.37C118.139 37.37 118.139 37.37 118.173 37.3362L123.545 43.3898C123.751 43.6603 123.958 43.8632 124.199 44.0662V44.1L127.436 47.6848L127.849 47.651V19.2431L128.538 17.6874H123.51L124.165 19.2431Z" fill="white"/>
</g>
<defs>
<clipPath id="clip0_2566_603">
<rect width="190" height="65" fill="white"/>
</clipPath>
</defs>
</svg>
