<svg width="111" height="15" viewBox="0 0 111 15" fill="none" xmlns="http://www.w3.org/2000/svg">
<path d="M12.4325 6.54557H8.26169C8.15508 6.54557 8.04848 6.45232 8.04848 6.34574V1.15018C8.04848 0.910385 7.86193 0.723877 7.62207 0.723877H5.75653C5.51667 0.723877 5.33012 0.910385 5.33012 1.15018V6.33242C5.33012 6.439 5.23684 6.53225 5.13024 6.53225H0.42641C0.186555 6.53225 0 6.71876 0 6.95855V8.69041C0 8.9302 0.186555 9.11671 0.42641 9.11671H5.13024C5.23684 9.11671 5.33012 9.20996 5.33012 9.32986V14.4988C5.33012 14.7386 5.53 14.9251 5.75653 14.9251H7.62207C7.86193 14.9251 8.04848 14.7386 8.04848 14.4988V9.32986C8.04848 9.22329 8.14176 9.11671 8.26169 9.11671H12.4325C12.6724 9.11671 12.8589 8.9302 12.8589 8.69041V6.97188C12.8589 6.73208 12.6724 6.54557 12.4325 6.54557Z" fill="#AAAAAA"/>
<path d="M45.4127 0.723877H43.5738C43.334 0.723877 43.1474 0.910385 43.1474 1.15018V10.5422C43.1474 10.5688 43.1474 10.5954 43.1341 10.5954C43.1208 10.5954 43.1074 10.5821 43.0808 10.5688L32.234 0.963673C32.0741 0.830453 31.8209 0.737199 31.6077 0.723877H30.3551C30.1153 0.723877 29.9287 0.910385 29.9287 1.15018V14.4988C29.9287 14.7386 30.1153 14.9251 30.3551 14.9251H32.194C32.4339 14.9251 32.6204 14.7386 32.6204 14.4988V5.1068C32.6204 5.08016 32.6204 5.05351 32.6337 5.05351C32.6471 5.05351 32.6604 5.06684 32.687 5.08016L43.5871 14.6986C43.747 14.8318 44.0002 14.9251 44.2134 14.9251H45.426C45.6659 14.9251 45.8524 14.7386 45.8524 14.4988V1.15018C45.8258 0.910385 45.6392 0.723877 45.4127 0.723877Z" fill="#FBC50B"/>
<path d="M22.9864 1.13686C23.0397 1.07025 23.0797 1.01696 23.0797 0.937029C23.0797 0.790488 22.9331 0.723877 22.7998 0.723877H20.1481C19.9349 0.723877 19.6817 0.830453 19.5351 0.990316L14.4182 6.38571C14.2716 6.54557 14.1784 6.79869 14.165 7.01184V8.63712C14.165 8.85027 14.2716 9.10339 14.4182 9.26325L19.5351 14.6586C19.6817 14.8185 19.9349 14.9118 20.1481 14.9251H22.7998C22.8665 14.9251 22.9331 14.9118 22.9864 14.8851C23.0397 14.8585 23.0797 14.7919 23.0797 14.7253C23.0797 14.6453 23.0397 14.5787 22.9864 14.5254L16.8168 7.99767C16.7768 7.9577 16.7635 7.90441 16.7501 7.8378C16.7501 7.78451 16.7768 7.71791 16.8168 7.67794L22.9864 1.13686Z" fill="#FBC50B"/>
<path d="M68.4531 0.723877H54.235C53.9951 0.723877 53.8086 0.910385 53.8086 1.15018V14.4988C53.8086 14.7386 53.9951 14.9251 54.235 14.9251H68.4531C68.693 14.9251 68.8795 14.7386 68.8795 14.4988V12.8069C68.8795 12.5671 68.693 12.3806 68.4531 12.3806H56.7002C56.5936 12.3806 56.5003 12.2873 56.5003 12.1674V9.35651C56.5003 9.24993 56.5936 9.15668 56.7002 9.15668H67.2805C67.4937 9.15668 67.6802 8.98349 67.7069 8.77034V7.01184C67.7069 6.77205 67.5203 6.58554 67.2805 6.58554H56.7002C56.5936 6.58554 56.5003 6.49228 56.5003 6.37239V3.50817C56.5003 3.38827 56.5936 3.29502 56.7002 3.29502H68.4531C68.693 3.29502 68.8795 3.10851 68.8795 2.86871V1.13686C68.8795 0.910385 68.6796 0.723877 68.4531 0.723877Z" fill="#FBC50B"/>
<path d="M106.989 6.91842C104.803 6.39886 102.258 6.34557 100.766 5.8127C99.7798 5.453 99.6732 4.94677 99.6599 4.56043C99.6599 4.53379 99.6599 4.50714 99.6599 4.49382C99.6999 4.10748 99.7532 3.33481 101.192 3.30817C103.298 3.30817 110.134 3.30817 110.134 3.30817C110.373 3.30817 110.56 3.12166 110.56 2.88186V1.15001C110.56 0.910215 110.373 0.723707 110.134 0.723707C110.134 0.723707 103.711 0.723707 101.432 0.723707C98.1275 0.710385 96.9549 2.49553 96.8083 4.10748C96.795 4.25403 96.7817 4.40057 96.7817 4.53379C96.7817 6.89177 98.7671 7.83763 101.032 8.34387C103.311 8.8501 105.936 8.94335 107.349 9.55616C108.002 9.84925 108.241 10.2223 108.255 10.915C108.255 10.9283 108.255 10.9416 108.255 10.955C108.241 11.3813 108.042 12.3138 106.296 12.3271H96.8483C96.6084 12.3271 96.4219 12.5136 96.4219 12.7534V14.4853C96.4219 14.7251 96.6218 14.9116 96.8483 14.9116C96.8483 14.9116 104.017 14.9116 106.309 14.9116C106.323 14.9116 106.336 14.9116 106.349 14.9116C109.614 14.9116 110.933 13.2463 111 11.0882C111 11.0216 111 10.9683 111 10.9017C111.026 8.43712 109.161 7.42465 106.989 6.91842Z" fill="#FBC50B"/>
<path d="M86.2411 6.91842C84.0558 6.39886 81.5107 6.34557 80.0182 5.8127C79.0321 5.453 78.9255 4.94677 78.9122 4.56043C78.9122 4.53379 78.9122 4.50714 78.9122 4.49382C78.9522 4.10748 79.0055 3.33481 80.4446 3.30817C82.55 3.30817 89.3859 3.30817 89.3859 3.30817C89.6258 3.30817 89.8123 3.12166 89.8123 2.88186V1.15001C89.8123 0.910215 89.6124 0.723707 89.3859 0.723707C89.3859 0.723707 82.9631 0.723707 80.6845 0.723707C77.3798 0.710385 76.2072 2.49553 76.0739 4.10748C76.0606 4.25403 76.0473 4.40057 76.0473 4.53379C76.0473 6.89177 78.0328 7.83763 80.2981 8.34387C82.5767 8.8501 85.2018 8.94335 86.6142 9.55616C87.2672 9.84925 87.507 10.2223 87.5204 10.915C87.5204 10.9283 87.5204 10.9416 87.5204 10.955C87.4937 11.3813 87.3072 12.3138 85.5616 12.3271H76.1139C75.8741 12.3271 75.6875 12.5136 75.6875 12.7534V14.4853C75.6875 14.7251 75.8874 14.9116 76.1139 14.9116C76.1139 14.9116 83.2829 14.9116 85.5749 14.9116C85.5882 14.9116 85.6015 14.9116 85.6148 14.9116C88.8929 14.9116 90.2121 13.2463 90.2787 11.0882C90.2787 11.0216 90.2787 10.9683 90.2787 10.9017C90.2787 8.43712 88.4132 7.42465 86.2411 6.91842Z" fill="#FBC50B"/>
</svg>
