<svg width="82" height="110" viewBox="0 0 82 110" fill="none" xmlns="http://www.w3.org/2000/svg">
<g clip-path="url(#clip0_1503_820)">
<path d="M81.4 55.3176L76.1595 41.459L80.0333 32.5654L80.3183 32.348L76.1259 31.5122L78.9181 28.1687L71.1453 17.712L72.5372 12.864L72.6378 12.5129L61.1087 8.60942L55.8765 0.12538V0H55.8262L55.6837 0.108663L46.7203 3.97872L40.7084 0.050152L34.5623 3.97872L26.0014 0.208967L25.8085 0.12538H25.6157C25.6157 0.12538 25.5402 0.158815 25.5151 0.192249L25.4564 0.25076L25.2048 0.660334C25.2048 0.660334 25.1545 0.735562 25.1294 0.785714L25.0455 0.927812L24.9365 1.09498L24.5592 1.69681C24.5173 1.77204 24.4753 1.84726 24.425 1.92249L24.2154 2.2652L24.1232 2.42401L23.989 2.62462L23.7794 2.96733C23.7459 3.02584 23.7123 3.08435 23.6704 3.14286L23.2511 3.81991C23.1925 3.92021 23.1338 4.02052 23.0667 4.11246L22.6978 4.72264L22.5217 4.99848L22.094 5.69225C22.0605 5.75076 22.027 5.80927 21.985 5.86778L21.8173 6.14362C21.767 6.23556 21.7083 6.31915 21.6496 6.41109L21.4903 6.67021L21.3394 6.92097L21.1885 7.15502L21.0543 7.3807L20.9285 7.58967L20.8028 7.78192L20.6938 7.95745L20.6099 8.09954L20.5848 8.15806V8.27508L20.5093 8.40046V8.45897L9.08078 12.2204L8.93823 12.2872L8.846 12.3374L10.4056 17.6702L2.54899 28.2188L5.37468 31.5623L2.33098 32.1725L1.71051 32.2812L1.82789 32.4985L5.18183 41.4005L0 55.2675V55.4012L7.06003 66.3427V66.4096L7.26127 66.5851L7.32835 66.6938L16.9793 75.5289L17.1386 75.6459L17.3147 75.788L23.5446 81.0289L24.8778 69.4521H30.9904L36.0967 75.6375V75.7295H45.5297V75.6793L50.6947 69.4271H56.5641L57.8973 81.0038L64.035 75.8382L64.3285 75.5958L74.2896 66.4514L74.3987 66.3344L81.4 55.3176ZM60.3457 8.76824L50.9966 20.9385L55.8011 1.42097L60.3457 8.76824ZM72.7888 65.0973L73.4847 66.2591L64.3872 74.6178L61.5782 46.1983L72.7888 65.0973ZM50.5941 68.7333L47.9529 63.5927H52.5394L55.3818 58.9787L56.5054 68.7166L50.5941 68.7333ZM40.4149 60.5251V62.8404H35.82L40.4149 60.5251ZM24.9617 68.7333L26.0768 58.9954L28.9277 63.6094H33.5477L30.8646 68.7333H24.9617ZM40.7671 16.9096L35.0318 4.58891L40.7084 0.93617L46.2843 4.58891L40.7671 16.9096ZM40.4149 34.9726V47.1596H37.9917L40.4149 34.9726ZM21.0711 44.1003L31.745 35.7416L25.7834 56.7052L21.0711 44.1003ZM19.8888 46.1565L17.2308 73.1467L17.0799 74.6094L8.00752 66.2591L19.8888 46.1565ZM9.82703 13.2819L29.9506 22.5851L12.6946 23.421L11.2105 18.1132L9.82703 13.2819ZM25.1629 31.0106L20.5848 42.8298L15.3107 29.5897H15.2101L13.0384 24.2485L25.1629 31.0106ZM26.1523 30.7264L14.2039 24.0395L30.9736 23.2705L31.6444 30.7014L26.1523 30.7264ZM32.0217 34.0699L27.4016 31.5623H31.7953L32.0217 34.0699ZM32.6925 34.0699L32.5164 31.4537L31.7869 23.4293L40.0963 30.6345L32.6925 34.0699ZM25.8001 31.5623H25.8588L31.7869 34.8222L21.3059 42.9719L25.8001 31.5623ZM3.49648 28.2188L10.6068 18.6064L12.0993 23.9058L14.4471 29.7568L6.14608 31.3701L3.49648 28.2188ZM20.7189 45.3123L25.4228 57.8503L18.0693 72.3944L20.7189 45.3123ZM26.4542 57.1147L32.726 35.0395V34.9058L40.2724 31.4202L37.0945 47.4438L26.4542 57.1147ZM37.3544 48.2796L40.4065 54.5821V59.5973L33.8915 62.8822H29.3385L26.4542 58.2181L37.3544 48.2796ZM40.1801 17.3944L31.7953 22.117L34.7132 5.65046L40.1801 17.3944ZM40.4065 18.0965V29.7986L32.2397 22.7272L36.3399 20.4286C38.8637 19.0243 39.9537 18.3891 40.4149 18.1049H40.4065V18.0965ZM3.43778 32.6991L14.8495 30.4339L19.9727 43.348L3.43778 32.6991ZM8.00752 64.7211L7.47089 65.6155L0.76302 55.209L19.9475 44.5517L8.00752 64.7211ZM40.3898 48.0038V52.6763L38.1929 47.9954H40.3898V48.0038ZM45.6387 62.8488H41.2282V60.6254L45.6387 62.8488ZM41.2282 52.6596V47.9954H43.4586L41.2282 52.6596ZM41.2282 59.6892V54.5904L44.2216 48.3382L55.0297 58.1261L52.095 62.8822H47.5672L41.2282 59.6892ZM43.6934 47.1512H41.2282V34.9058L43.6934 47.1512ZM65.9803 30.2584L60.9158 42.8632L56.3293 31.0775L68.3699 24.3906L65.9887 30.2416V30.2584H65.9803ZM54.1241 31.5122L49.5041 34.0198L49.7305 31.5122H54.1241ZM55.6585 31.5122H55.7172L60.178 42.9719L49.7388 34.772L55.6585 31.5122ZM67.3973 24.0479L55.3399 30.7766H49.764L50.4432 23.2538L67.3973 24.0479ZM48.8668 34.1201L41.5469 30.5927L49.6718 23.4711L48.9926 30.9103L48.8668 34.1201ZM44.6744 47.5692L41.4379 31.4369L48.7914 34.9977L54.8787 56.8138L44.6744 47.5692ZM61.5447 43.3898L66.7768 30.4339L78.4401 32.674L61.5447 43.3898ZM75.321 31.3116L67.02 29.6983L69.3174 24.0395L70.8938 18.5813L77.9706 28.2188L75.321 31.3116ZM68.7473 23.3625L55.0297 22.7606L51.6757 22.5935L71.5646 13.5578L68.7473 23.3625ZM50.1162 21.0889L47.1731 4.61398L55.0381 1.12842L50.1162 21.0889ZM41.3372 17.4278L46.5778 5.65046L49.5041 22.0334L41.3372 17.4278ZM41.2534 29.7736V18.2302L49.2693 22.7356L41.2534 29.7736ZM60.4295 44.209L55.6585 56.9559L49.7892 35.7584L60.4295 44.209ZM60.7649 45.7637L63.3894 72.3609L56.1532 58.0927L60.7649 45.7637ZM62.9282 43.348L78.9097 33.3176L75.5054 41.1413L62.9282 43.348ZM62.1652 44.2257L75.5138 41.8435L80.1171 54.1307L62.1652 44.2257ZM61.6621 44.7941L80.5783 55.234L73.971 65.6322L61.6621 44.7941ZM50.9295 22.1003L60.832 9.30319L71.313 12.8473L50.9295 22.1003ZM34.1598 4.62234L31.2167 21.0304L26.3116 1.1535L34.1598 4.62234ZM10.2043 12.6299L20.5848 9.21125L30.3699 21.9415L10.2043 12.6299ZM19.0336 44.2257L1.24096 54.1307L5.81908 41.8518L19.0336 44.2257ZM18.7317 43.3898L5.89454 41.1079L2.90115 33.234L18.7317 43.3898ZM17.7591 75.1945L17.8345 74.4005L25.23 59.8647L22.9661 79.5578L17.7591 75.1945ZM34.3107 63.6429H40.4149V74.9438H36.4657L31.5689 69.0091L34.3107 63.6429ZM41.2534 74.9103V63.6763H47.1228L49.9736 69.2097L45.2278 74.9438L41.2534 74.9103ZM21.1298 8.67629L25.6157 1.47112L30.3615 20.6961L21.1298 8.67629ZM58.5178 79.5578L56.2455 59.9818L63.6325 74.5175L63.708 75.2363L58.5178 79.5578ZM12.6946 93.7675V106.138H17.6585V109.632H8.54415V93.7508L12.6946 93.7675ZM30.7388 105.018H22.7732C22.7732 105.67 23.008 106.297 23.4356 106.79C23.8716 107.166 24.4418 107.35 25.012 107.309C25.4396 107.309 25.8672 107.208 26.2529 107.024C26.538 106.857 26.7728 106.606 26.9237 106.314H30.5795C30.3531 107.15 29.9087 107.902 29.2882 108.504C28.106 109.565 26.538 110.1 24.9449 109.975C23.3182 110.05 21.7251 109.465 20.5261 108.362C19.478 107.283 18.9078 105.829 18.9497 104.333C18.9162 102.803 19.5115 101.324 20.5848 100.237C21.7754 99.1588 23.3518 98.5988 24.9533 98.6907C26.4542 98.6322 27.9299 99.1505 29.0618 100.137C30.2189 101.332 30.831 102.954 30.7388 104.617V105.018ZM27.2256 102.828C27.1249 102.402 26.9069 102.009 26.6051 101.691C26.1775 101.299 25.6073 101.098 25.0287 101.115C24.4502 101.081 23.8884 101.29 23.4775 101.691C23.1757 102.001 22.9744 102.402 22.9074 102.828H27.2256ZM43.6766 108.236C40.9348 110.577 36.8933 110.577 34.1514 108.236C31.9798 106.113 31.9462 102.644 34.076 100.479C34.1011 100.454 34.1263 100.429 34.1514 100.404C35.4343 99.2173 37.1448 98.5821 38.8973 98.6406C40.6581 98.5821 42.377 99.2173 43.6766 100.404C44.7583 101.416 45.3703 102.828 45.3536 104.308C45.362 105.796 44.7499 107.217 43.6598 108.236H43.6766ZM37.1867 102.611C36.2141 103.53 36.1806 105.068 37.1029 106.038C37.5641 106.514 38.2013 106.79 38.8637 106.79C39.4926 106.782 40.0963 106.523 40.5407 106.08C41.0018 105.645 41.2702 105.043 41.2785 104.408C41.2785 103.071 40.1885 101.984 38.8469 101.976C38.2349 101.984 37.6479 102.21 37.1867 102.611ZM51.3152 92.3298V100.062C52.1285 99.1672 53.2856 98.6657 54.493 98.6824C55.8849 98.6573 57.2433 99.1672 58.2662 100.112C59.3898 101.215 60.0187 102.72 60.0103 104.291C60.0522 105.871 59.4401 107.4 58.3333 108.529C57.3355 109.507 55.9855 110.042 54.5853 110C53.3276 110.042 52.1285 109.473 51.3571 108.479V109.641H47.5001V92.288L51.3152 92.3298ZM55.3483 106.088C55.8095 105.654 56.0778 105.052 56.0946 104.416C56.0946 103.739 55.8262 103.096 55.3483 102.611C54.9039 102.16 54.3002 101.909 53.6713 101.917C53.0173 101.909 52.3801 102.168 51.9273 102.636C51.4997 103.112 51.2481 103.714 51.2146 104.35C51.2313 105.043 51.5332 105.695 52.0531 106.155C52.5142 106.565 53.1096 106.79 53.73 106.799C54.3505 106.765 54.9291 106.498 55.3483 106.046V106.088ZM64.1105 92.4719C65.3011 92.4719 66.2654 93.4248 66.2737 94.6117C66.2821 95.7986 65.3179 96.7599 64.1272 96.7682C62.9366 96.7682 61.9723 95.8154 61.9639 94.6284C61.9639 94.6284 61.9639 94.6201 61.9639 94.6117C61.9388 93.4331 62.8695 92.4552 64.0518 92.4301C64.0685 92.4301 64.0937 92.4301 64.1105 92.4301V92.4719ZM66.0222 99.0418V109.632H62.1987V99L66.0222 99.0418ZM72.8475 102.16V109.682H69.0324V102.16H67.8082V99.0418H69.0324V95.5395H72.8475V99.0418H75.0191V102.16H72.8475Z" fill="white"/>
</g>
<defs>
<clipPath id="clip0_1503_820">
<rect width="81.4" height="110" fill="white"/>
</clipPath>
</defs>
</svg>
