<svg width="58" height="51" viewBox="0 0 58 51" fill="none" xmlns="http://www.w3.org/2000/svg">
<g clip-path="url(#clip0_2473_32111)">
<path opacity="0.994" fill-rule="evenodd" clip-rule="evenodd" d="M7.77148 0.714355C8.78806 0.714355 9.80463 0.714355 10.8212 0.714355C10.8212 4.76699 10.8212 8.81965 10.8212 12.8723C13.2486 12.8723 15.6761 12.8723 18.1035 12.8723C18.1035 13.7715 18.1035 14.6707 18.1035 15.5699C14.6595 15.5699 11.2155 15.5699 7.77148 15.5699C7.77148 10.6181 7.77148 5.66622 7.77148 0.714355Z" fill="white"/>
<path opacity="0.994" fill-rule="evenodd" clip-rule="evenodd" d="M18.0479 0.714355C19.1814 0.714355 20.3152 0.714355 21.4487 0.714355C22.7548 4.4434 24.0702 8.16963 25.3949 11.893C26.7 8.16706 28.003 4.44084 29.3041 0.714355C30.4131 0.714355 31.522 0.714355 32.631 0.714355C30.7485 5.66397 28.8632 10.6127 26.9752 15.5607C25.8742 15.5761 24.7744 15.573 23.676 15.5515C21.7944 10.6073 19.9183 5.66156 18.0479 0.714355Z" fill="white"/>
<path opacity="0.994" fill-rule="evenodd" clip-rule="evenodd" d="M34.5908 0.7146C35.6135 0.7146 36.6363 0.7146 37.659 0.7146C37.659 5.66646 37.659 10.6183 37.659 15.5702C36.6363 15.5702 35.6135 15.5702 34.5908 15.5702C34.5908 10.6183 34.5908 5.66646 34.5908 0.7146Z" fill="white"/>
<path opacity="0.994" fill-rule="evenodd" clip-rule="evenodd" d="M39.6367 0.7146C40.7703 0.7146 41.904 0.7146 43.0376 0.7146C44.3527 4.44043 45.6681 8.16664 46.9838 11.8932C48.2959 8.17046 49.5989 4.44426 50.8929 0.7146C52.0019 0.7146 53.1109 0.7146 54.2199 0.7146C52.3459 5.65444 50.4699 10.594 48.5918 15.5332C48.0412 15.5578 47.4867 15.5701 46.9283 15.5702C46.3699 15.5701 45.8154 15.5578 45.2648 15.5332C43.3868 10.594 41.5107 5.65444 39.6367 0.7146Z" fill="white"/>
<path opacity="0.994" fill-rule="evenodd" clip-rule="evenodd" d="M-0.00878906 26.3237C-0.00878906 25.9048 -0.00878906 25.4861 -0.00878906 25.0673C0.0698625 23.5841 0.516538 22.2231 1.33124 20.9838C2.45928 19.4353 3.97798 18.5083 5.88732 18.203C7.1689 18.0096 8.43808 18.0712 9.69484 18.3878C11.9232 19.0325 13.4295 20.446 14.214 22.6283C14.7004 24.1329 14.8175 25.6665 14.5651 27.2291C14.3017 28.917 13.5593 30.349 12.3379 31.525C11.0998 32.593 9.65812 33.1719 8.01288 33.2619C6.96663 33.3373 5.93773 33.2386 4.9262 32.9662C2.76917 32.3003 1.2936 30.9116 0.499496 28.7996C0.214772 27.9953 0.0453426 27.1702 -0.00878906 26.3237ZM7.01479 20.8175C8.947 20.7281 10.3055 21.5596 11.0903 23.3119C11.6592 24.7971 11.69 26.2938 11.1827 27.8019C10.4336 29.752 9.01343 30.6542 6.92238 30.5088C5.21443 30.2848 4.06539 29.3641 3.47528 27.7465C3.06839 26.5029 3.02527 25.2465 3.3459 23.9771C3.5949 23.0028 4.10934 22.2052 4.88924 21.5843C5.523 21.1217 6.23152 20.8661 7.01479 20.8175Z" fill="white"/>
<path opacity="0.996" fill-rule="evenodd" clip-rule="evenodd" d="M17.3838 18.2861C19.4909 18.283 21.5979 18.2861 23.705 18.2953C24.5966 18.3258 25.4592 18.4982 26.2926 18.8127C27.7286 19.4294 28.5818 20.5103 28.8526 22.0554C28.949 22.6801 28.9797 23.3083 28.945 23.9401C28.8827 25.0759 28.5006 26.086 27.799 26.9703C27.1506 27.7027 26.3529 28.2048 25.4055 28.4762C24.8861 28.6284 24.3564 28.7208 23.8159 28.7533C22.6884 28.7626 21.561 28.7657 20.4335 28.7626C20.4335 30.2284 20.4335 31.6943 20.4335 33.1601C19.4169 33.1601 18.4004 33.1601 17.3838 33.1601C17.3838 28.2022 17.3838 23.244 17.3838 18.2861ZM20.4335 21.0022C21.407 20.9991 22.3803 21.0022 23.3538 21.0114C24.09 21.0268 24.7491 21.2546 25.3315 21.6951C25.7165 22.0851 25.9228 22.5563 25.9507 23.1086C26.067 24.0095 25.8051 24.7763 25.1652 25.409C24.8373 25.6867 24.4615 25.8715 24.0377 25.9633C23.8305 26.0097 23.6211 26.0404 23.4093 26.0557C22.4173 26.0649 21.4255 26.0681 20.4335 26.0649C20.4335 24.3774 20.4335 22.6897 20.4335 21.0022Z" fill="white"/>
<path opacity="0.994" fill-rule="evenodd" clip-rule="evenodd" d="M31.6885 18.2861C35.2372 18.2861 38.786 18.2861 42.3347 18.2861C42.3347 19.1915 42.3347 20.0969 42.3347 21.0023C39.8087 21.0023 37.2828 21.0023 34.7567 21.0023C34.7567 22.1539 34.7567 23.3058 34.7567 24.4575C36.9562 24.4575 39.1557 24.4575 41.3551 24.4575C41.3551 25.3629 41.3551 26.2682 41.3551 27.1736C39.1557 27.1736 36.9562 27.1736 34.7567 27.1736C34.7567 28.2638 34.7567 29.3539 34.7567 30.4441C37.2828 30.4441 39.8087 30.4441 42.3347 30.4441C42.3347 31.3494 42.3347 32.2548 42.3347 33.1602C38.786 33.1602 35.2372 33.1602 31.6885 33.1602C31.6885 28.2022 31.6885 23.2441 31.6885 18.2861Z" fill="white"/>
<path opacity="0.995" fill-rule="evenodd" clip-rule="evenodd" d="M57.9908 18.2862C57.9908 23.2442 57.9908 28.2024 57.9908 33.1603C57.0112 33.1635 56.0316 33.1603 55.052 33.1511C52.7053 29.8607 50.3611 26.5686 48.0191 23.2751C48.0099 26.5701 48.0067 29.8653 48.0099 33.1603C47.0118 33.1603 46.0137 33.1603 45.0156 33.1603C45.0156 28.2024 45.0156 23.2442 45.0156 18.2862C46.0015 18.2801 46.9872 18.2862 47.9729 18.3047C50.311 21.5997 52.6491 24.8949 54.9873 28.19C54.9965 24.8887 54.9996 21.5875 54.9965 18.2862C55.9946 18.2862 56.9927 18.2862 57.9908 18.2862Z" fill="white"/>
<path opacity="0.992" fill-rule="evenodd" clip-rule="evenodd" d="M19.8789 50.732C16.4349 50.732 12.9909 50.732 9.54688 50.732C9.54688 45.774 9.54688 40.8159 9.54688 35.8579C10.5634 35.8579 11.58 35.8579 12.5966 35.8579C12.5966 39.9105 12.5966 43.9633 12.5966 48.0158C15.024 48.0158 17.4515 48.0158 19.8789 48.0158C19.8789 48.9212 19.8789 49.8266 19.8789 50.732Z" fill="white"/>
<path opacity="0.994" fill-rule="evenodd" clip-rule="evenodd" d="M36.125 50.732C35.0036 50.732 33.8824 50.732 32.7611 50.732C32.4223 49.7963 32.0835 48.8601 31.7445 47.9235C29.7114 47.9018 27.6782 47.8989 25.6451 47.9142C25.2859 48.853 24.9285 49.7922 24.5731 50.732C23.4641 50.732 22.3551 50.732 21.2461 50.732C23.1499 45.7772 25.0629 40.8253 26.9851 35.8764C27.5629 35.8642 28.1421 35.8579 28.7225 35.8579C29.3029 35.8579 29.8821 35.8642 30.4599 35.8764C32.3502 40.8281 34.2386 45.7799 36.125 50.732ZM28.6948 39.1284C29.4064 41.1392 30.1148 43.1532 30.8203 45.1704C29.391 45.192 27.9617 45.1949 26.5323 45.1796C27.255 43.163 27.9758 41.1459 28.6948 39.1284Z" fill="white"/>
<path opacity="0.994" fill-rule="evenodd" clip-rule="evenodd" d="M44.2766 50.7319C42.1941 50.7319 40.1118 50.7319 38.0293 50.7319C38.0293 45.774 38.0293 40.8158 38.0293 35.8579C40.389 35.8547 42.7486 35.8579 45.1083 35.8671C45.8356 35.8897 46.538 36.0314 47.2154 36.2921C48.2508 36.7666 48.9194 37.5519 49.2208 38.6479C49.3753 39.4116 49.3508 40.1691 49.1469 40.9206C48.8946 41.7271 48.3985 42.3337 47.659 42.7406C48.6198 43.0298 49.2944 43.6364 49.6829 44.5606C50.0193 45.4237 50.0995 46.3106 49.9232 47.2213C49.6158 48.4493 48.9105 49.3702 47.8069 49.9836C47.0564 50.3836 46.2554 50.6054 45.4041 50.6488C45.0259 50.6845 44.6501 50.7122 44.2766 50.7319ZM41.0975 38.574C42.1634 38.5709 43.2292 38.574 44.2951 38.5832C44.6435 38.5792 44.9886 38.61 45.3301 38.6756C46.0022 38.8887 46.3473 39.3475 46.3652 40.0522C46.3639 40.6409 46.1297 41.112 45.6628 41.4657C45.3874 41.6495 45.0856 41.7665 44.7571 41.8167C44.5239 41.8452 44.2897 41.8637 44.0548 41.8722C43.0691 41.8814 42.0832 41.8845 41.0975 41.8814C41.0975 40.7789 41.0975 39.6765 41.0975 38.574ZM43.9624 44.4497C44.4997 44.4403 45.0357 44.4617 45.5704 44.5144C46.5983 44.7435 47.0574 45.381 46.9474 46.4268C46.779 47.1926 46.3138 47.676 45.5519 47.8772C45.1922 47.9508 44.8287 47.9938 44.4614 48.0066C43.34 48.0158 42.2189 48.0189 41.0975 48.0158C41.0975 46.8333 41.0975 45.6507 41.0975 44.4682C42.0557 44.4743 43.0105 44.4682 43.9624 44.4497Z" fill="white"/>
</g>
<defs>
<clipPath id="clip0_2473_32111">
<rect width="58" height="50.0175" fill="white" transform="translate(0 0.723633)"/>
</clipPath>
</defs>
</svg>
