<svg width="214" height="34" viewBox="0 0 214 34" fill="none" xmlns="http://www.w3.org/2000/svg">
<path d="M69.9338 6.11918C74.459 6.11918 75.4626 6.81696 77.1937 8.82717L88.2899 21.8356C88.3343 21.9088 88.3972 21.9691 88.4722 22.0103C88.5473 22.0515 88.6319 22.0721 88.7175 22.0702V6.11621H93.0051V27.4446H88.4057C85.3741 27.4446 84.1151 27.2041 82.2712 25.0335L70.8276 11.6034C70.7828 11.5288 70.7191 11.4673 70.643 11.4251C70.5669 11.3829 70.4811 11.3615 70.3941 11.3629V27.4446H66.1094V6.12215L69.9338 6.11918Z" fill="white"/>
<path d="M48.6976 9.15969H59.5473C59.7824 9.18338 60.0191 9.13535 60.2263 9.02193C60.4335 8.90851 60.6016 8.73501 60.7083 8.52426L61.9762 6.11914H46.4854C39.5878 6.11914 36.2266 8.61334 36.2266 13.7591V19.6472C36.2266 25.1226 39.6798 27.4445 46.4795 27.4445H59.9274C60.1625 27.4686 60.3994 27.4208 60.6067 27.3073C60.814 27.1939 60.982 27.0201 61.0884 26.8091L62.3563 24.404H48.6976C45.1344 24.404 43.8398 23.1866 43.8398 20.7785V17.8775H58.0033C58.2383 17.9012 58.475 17.8532 58.6823 17.7397C58.8895 17.6263 59.0575 17.4528 59.1643 17.2421L60.4322 14.837H43.8428V13.0673C43.8428 11.0363 44.303 9.15969 48.6976 9.15969Z" fill="white"/>
<path d="M110.297 9.15969H121.144C121.379 9.18422 121.616 9.13656 121.823 9.02305C122.031 8.90953 122.199 8.73555 122.305 8.52426L123.573 6.11914H108.079C101.184 6.11914 97.832 8.62225 97.832 13.7591V19.6472C97.832 25.1226 101.282 27.4445 108.082 27.4445H121.533C121.768 27.4658 122.003 27.4167 122.21 27.3035C122.417 27.1904 122.585 27.0183 122.694 26.8091L123.962 24.404H110.303C106.74 24.404 105.448 23.1866 105.448 20.7785V17.8775H119.6C119.835 17.8993 120.071 17.8505 120.279 17.7374C120.486 17.6242 120.655 17.4517 120.764 17.2421L122.035 14.8488H105.439V13.0673C105.439 11.0363 105.9 9.15969 110.297 9.15969Z" fill="white"/>
<path d="M141.422 20.229C144.338 21.191 145.232 21.5978 145.232 22.7083C145.232 23.6704 144.656 24.4038 140.998 24.4038H128.452C128.217 24.3797 127.98 24.4275 127.773 24.541C127.566 24.6545 127.398 24.8282 127.291 25.0392L126.023 27.4443H143.792C150.974 27.4443 153.659 25.1966 153.659 22.0788C153.659 20.2735 152.634 17.8832 145.903 15.6741L138.806 13.364C135.887 12.4019 134.997 11.9803 134.997 10.8668C134.997 9.97604 135.498 9.17434 139.228 9.17434H149.843C150.078 9.19824 150.314 9.15027 150.521 9.0368C150.728 8.92332 150.895 8.74969 151.001 8.53891L152.272 6.13379H136.437C129.254 6.13379 126.57 8.37857 126.57 11.4963C126.57 13.3016 127.591 15.7068 134.326 17.9129L141.422 20.229Z" fill="white"/>
<path d="M203.445 27.4475C210.625 27.4475 213.312 25.1998 213.312 22.082C213.312 20.2767 212.287 17.8864 205.553 15.6773L198.456 13.3642C195.541 12.4021 194.647 11.9805 194.647 10.867C194.647 9.97624 195.223 9.17453 198.878 9.17453H209.493C209.728 9.19864 209.965 9.1508 210.173 9.03733C210.38 8.92387 210.548 8.75013 210.654 8.53911L211.922 6.13399H196.087C188.907 6.13399 186.22 8.37876 186.22 11.4965C186.22 13.3018 187.244 15.707 193.979 17.9131L201.072 20.244C203.985 21.1912 204.876 21.598 204.876 22.7085C204.876 23.5993 204.303 24.404 200.645 24.404H186.205L175.029 6.11914H170.789C167.484 6.11914 165.797 7.03071 164.256 9.55163L153.32 27.4475H160.744L169.767 11.4876C169.987 11.0986 170.165 11.1075 170.361 11.1075L177.885 24.404H169.699C169.464 24.3801 169.228 24.428 169.021 24.5415C168.814 24.655 168.647 24.8286 168.541 25.0394L167.273 27.4445L203.445 27.4475Z" fill="white"/>
<path d="M11.4748 16.4619H1.50391V26.4328H11.4748V16.4619Z" fill="white"/>
<path d="M33.1727 5.49865C34.3604 10.0357 30.3638 12.7526 26.5156 14.555C25.4942 15.033 24.9923 15.4873 24.933 16.0396C24.8706 16.6335 25.1171 17.3936 25.895 18.516C29.3186 23.4628 36.2489 29.8646 43.5236 33.6593C43.7077 33.7573 43.5919 33.8375 43.4939 33.8909C43.3615 33.9549 43.2175 33.9916 43.0706 33.9987C42.9237 34.0059 42.7768 33.9833 42.6388 33.9325C31.7326 31.1176 20.6305 23.062 16.8506 17.4797C16.2567 16.5889 16.1082 15.9565 16.1617 15.517C16.2241 15.0182 16.5774 14.5698 17.6018 14.0799C20.2534 12.809 25.025 10.0209 23.8551 6.62995C22.1953 1.74251 12.7678 1.81971 5.30006 4.06746C3.60427 4.61848 1.9812 5.37219 0.466066 6.31224C0.317602 6.40131 -0.0505896 6.47555 0.00582675 6.11626C-0.000111817 6.06875 0.172107 5.05029 0.172107 5.05029C0.270093 4.54848 0.825349 4.1595 1.21136 3.94869C12.9697 -1.98988 31.4743 -1.03377 33.1727 5.49865Z" fill="white"/>
</svg>
