<svg width="184" height="46" viewBox="0 0 184 46" fill="none" xmlns="http://www.w3.org/2000/svg">
<path d="M82.8237 18.3341L89.1313 9.26087C89.1405 9.24797 89.1526 9.23743 89.1667 9.23012C89.1807 9.22281 89.1963 9.21894 89.2122 9.21881H98.1916C98.2102 9.21835 98.2286 9.22309 98.2447 9.2325C98.2608 9.2419 98.2739 9.2556 98.2827 9.27206C98.2914 9.28852 98.2954 9.30708 98.2941 9.32567C98.2929 9.34426 98.2865 9.36215 98.2757 9.37731L90.6031 20.3364C90.5909 20.3534 90.5844 20.3737 90.5844 20.3946C90.5844 20.4155 90.5909 20.4358 90.6031 20.4528L99.8251 33.5727C99.8359 33.5878 99.8423 33.6057 99.8435 33.6243C99.8448 33.6429 99.8408 33.6615 99.8321 33.6779C99.8233 33.6944 99.8102 33.7081 99.7941 33.7175C99.778 33.7269 99.7596 33.7316 99.741 33.7312L90.726 33.715C90.7101 33.7149 90.6945 33.711 90.6805 33.7037C90.6664 33.6964 90.6543 33.6858 90.6451 33.6729L82.8237 22.4713C82.8112 22.4543 82.7938 22.4417 82.7737 22.4352C82.7537 22.4287 82.7321 22.4286 82.7121 22.4351C82.6921 22.4415 82.6746 22.4541 82.6621 22.4711C82.6496 22.488 82.6428 22.5084 82.6425 22.5295V33.6212C82.6425 33.6478 82.632 33.6733 82.6132 33.6921C82.5943 33.7109 82.5688 33.7215 82.5422 33.7215H74.737C74.7104 33.7215 74.6849 33.7109 74.6661 33.6921C74.6473 33.6733 74.6367 33.6478 74.6367 33.6212V0.100274C74.6367 0.0736795 74.6473 0.0481727 74.6661 0.0293675C74.6849 0.0105623 74.7104 0 74.737 0H82.5422C82.5688 0 82.5943 0.0105623 82.6132 0.0293675C82.632 0.0481727 82.6425 0.0736795 82.6425 0.100274V18.2759C82.6428 18.2969 82.6496 18.3174 82.6621 18.3343C82.6746 18.3513 82.6921 18.3639 82.7121 18.3703C82.7321 18.3767 82.7537 18.3767 82.7737 18.3702C82.7938 18.3637 82.8112 18.3511 82.8237 18.3341Z" fill="white"/>
<path d="M148.228 16.8365V33.6244C148.228 33.6502 148.218 33.6748 148.2 33.693C148.182 33.7112 148.157 33.7215 148.131 33.7215H140.32C140.294 33.7215 140.269 33.7112 140.251 33.693C140.233 33.6748 140.223 33.6502 140.223 33.6244V0.0970362C140.223 0.0712996 140.233 0.0466184 140.251 0.0284199C140.269 0.0102213 140.294 0 140.32 0H148.131C148.157 0 148.182 0.0102213 148.2 0.0284199C148.218 0.0466184 148.228 0.0712996 148.228 0.0970362V9.12178C148.228 9.14751 148.239 9.1722 148.257 9.19039C148.275 9.20859 148.3 9.21881 148.326 9.21881H157.001C157.017 9.21883 157.033 9.22301 157.048 9.23096C157.062 9.2389 157.074 9.25036 157.083 9.26425C157.092 9.27814 157.097 9.29402 157.098 9.3104C157.099 9.32678 157.095 9.34312 157.088 9.3579L153.653 16.6844C153.645 16.7009 153.633 16.7148 153.617 16.7245C153.602 16.7342 153.584 16.7394 153.566 16.7394H148.326C148.3 16.7394 148.275 16.7496 148.257 16.7678C148.239 16.786 148.228 16.8107 148.228 16.8365Z" fill="white"/>
<path d="M44.6852 27.9839C39.6294 37.3224 24.4167 36.4296 21.1691 25.7164C18.8595 18.0955 22.9643 9.97326 31.1804 8.68586C42.2883 6.94884 49.9835 18.2023 44.6852 27.9839ZM29.3075 25.3768C30.3361 28.0939 33.3929 29.0772 35.7187 27.6055C39.6261 25.1309 39.2574 14.7444 33.5288 14.6765C28.1107 14.6118 27.9813 21.8801 29.3075 25.3768Z" fill="white"/>
<path d="M8.09963 16.5224L13.1813 9.26056C13.1905 9.24766 13.2026 9.23712 13.2167 9.22981C13.2307 9.2225 13.2463 9.21863 13.2622 9.21851H22.2125C22.2309 9.21865 22.2488 9.22383 22.2644 9.23347C22.28 9.24312 22.2927 9.25686 22.301 9.2732C22.3094 9.28955 22.3131 9.30788 22.3117 9.32618C22.3104 9.34449 22.304 9.36206 22.2934 9.377L15.148 19.6083C15.1388 19.6212 15.1266 19.6317 15.1126 19.639C15.0985 19.6463 15.0829 19.6502 15.0671 19.6503H8.08668C8.06008 19.6503 8.03457 19.6609 8.01576 19.6797C7.99696 19.6985 7.98639 19.724 7.98639 19.7506L7.91523 33.6209C7.91523 33.6475 7.90466 33.673 7.88585 33.6918C7.86705 33.7106 7.84157 33.7211 7.81498 33.7211H0.100294C0.0736992 33.7211 0.0481826 33.7106 0.0293774 33.6918C0.0105722 33.673 0 33.6475 0 33.6209V9.31878C0 9.29219 0.0105722 9.26668 0.0293774 9.24787C0.0481826 9.22907 0.0736992 9.21851 0.100294 9.21851H7.84084C7.86744 9.21851 7.89295 9.22907 7.91176 9.24787C7.93056 9.26668 7.94113 9.29219 7.94113 9.31878L7.91523 16.4642C7.91442 16.4861 7.92083 16.5077 7.93347 16.5257C7.94612 16.5436 7.9643 16.5569 7.98524 16.5635C8.00618 16.5701 8.0287 16.5697 8.04937 16.5623C8.07003 16.5548 8.0877 16.5408 8.09963 16.5224Z" fill="white"/>
<path d="M49.2477 15.2544V9.32848C49.2477 9.29932 49.2593 9.27134 49.28 9.25072C49.3006 9.23009 49.3285 9.21851 49.3577 9.21851H69.9238C69.953 9.21851 69.9809 9.23009 70.0015 9.25072C70.0222 9.27134 70.0338 9.29932 70.0338 9.32848L70.0467 15.2803C70.0475 15.309 70.037 15.3368 70.0176 15.3579L58.638 27.4006C58.6236 27.4163 58.614 27.4359 58.6105 27.4569C58.607 27.478 58.6097 27.4996 58.6183 27.5192C58.6268 27.5387 58.6409 27.5554 58.6588 27.567C58.6766 27.5787 58.6975 27.585 58.7189 27.585L70.8909 27.5688C70.9054 27.5688 70.9197 27.5716 70.933 27.5772C70.9464 27.5827 70.9585 27.5908 70.9687 27.601C70.9789 27.6112 70.987 27.6233 70.9925 27.6367C70.9981 27.65 71.0009 27.6643 71.0009 27.6788V33.6112C71.0009 33.6256 70.9981 33.6399 70.9925 33.6532C70.987 33.6666 70.9789 33.6787 70.9687 33.6889C70.9585 33.6991 70.9464 33.7072 70.933 33.7128C70.9197 33.7183 70.9054 33.7211 70.8909 33.7211H48.3873C48.3581 33.7211 48.3302 33.7096 48.3096 33.6889C48.2889 33.6683 48.2773 33.6403 48.2773 33.6112V27.4815C48.2774 27.4523 48.289 27.4244 48.3097 27.4038L60.2812 15.552C60.2965 15.5366 60.307 15.517 60.3112 15.4957C60.3154 15.4744 60.3132 15.4524 60.3049 15.4323C60.2966 15.4122 60.2826 15.3951 60.2645 15.383C60.2465 15.3709 60.2253 15.3644 60.2036 15.3644H49.3577C49.3285 15.3644 49.3006 15.3528 49.28 15.3322C49.2593 15.3115 49.2477 15.2836 49.2477 15.2544Z" fill="white"/>
<path d="M112.516 25.1913L116.938 9.30584C116.945 9.28051 116.96 9.25823 116.981 9.24244C117.002 9.22665 117.028 9.21824 117.054 9.21851H124.96C124.979 9.21851 124.998 9.22306 125.015 9.23178C125.032 9.2405 125.046 9.25313 125.057 9.26863C125.068 9.28413 125.076 9.30206 125.078 9.32091C125.081 9.33976 125.079 9.35899 125.073 9.37701L116.957 33.6403C116.949 33.6639 116.934 33.6844 116.914 33.6989C116.893 33.7134 116.869 33.7212 116.844 33.7212H107.781C107.756 33.7212 107.731 33.7134 107.711 33.6989C107.691 33.6844 107.675 33.6639 107.667 33.6403L99.5807 9.37701C99.5745 9.35899 99.5727 9.33976 99.5755 9.32091C99.5782 9.30206 99.5854 9.28413 99.5965 9.26863C99.6076 9.25313 99.6222 9.2405 99.6391 9.23178C99.6561 9.22306 99.6748 9.21851 99.6939 9.21851H107.8C107.826 9.21895 107.851 9.22768 107.871 9.24342C107.891 9.25915 107.906 9.28104 107.913 9.30584L112.286 25.1913C112.294 25.2161 112.309 25.2379 112.33 25.2534C112.35 25.2689 112.375 25.2773 112.401 25.2773C112.427 25.2773 112.452 25.2689 112.473 25.2534C112.494 25.2379 112.509 25.2161 112.516 25.1913Z" fill="white"/>
<path d="M135.957 9.21851H128.233C128.156 9.21851 128.094 9.28078 128.094 9.35759V33.5788C128.094 33.6556 128.156 33.7179 128.233 33.7179H135.957C136.034 33.7179 136.096 33.6556 136.096 33.5788V9.35759C136.096 9.28078 136.034 9.21851 135.957 9.21851Z" fill="white"/>
<path d="M35.7209 27.6047C33.3952 29.0765 30.3384 28.0931 29.3098 25.376C27.9836 21.8793 28.113 14.611 33.531 14.6757C39.2596 14.7437 39.6284 25.1302 35.7209 27.6047Z" fill="black"/>
<path d="M159.274 33.7564L161.235 27.7981C161.249 27.7532 161.276 27.7132 161.312 27.6829C161.348 27.6525 161.392 27.633 161.438 27.6267L165.999 27.0056C166.04 27 166.079 26.9844 166.112 26.9601C166.146 26.9359 166.172 26.9037 166.19 26.8665L168.179 22.7585C168.2 22.7168 168.232 22.6817 168.271 22.6571C168.311 22.6325 168.356 22.6195 168.403 22.6194L174.675 22.5547C174.722 22.5541 174.768 22.5669 174.808 22.5915C174.848 22.6162 174.88 22.6516 174.901 22.6938L176.939 26.8859C176.957 26.9225 176.984 26.954 177.017 26.9777C177.051 27.0014 177.089 27.0165 177.13 27.0218L181.678 27.6299C181.724 27.636 181.768 27.655 181.804 27.6848C181.84 27.7145 181.867 27.7538 181.881 27.7981L183.845 33.7661C183.86 33.8109 183.862 33.859 183.85 33.9049C183.839 33.9507 183.814 33.9923 183.78 34.0249L180.439 37.2369C180.408 37.2654 180.386 37.3011 180.373 37.3406C180.36 37.3802 180.357 37.4224 180.364 37.4633L181.186 42.0468C181.194 42.0931 181.189 42.1407 181.171 42.1842C181.154 42.2277 181.124 42.2653 181.086 42.2927L176.053 45.9446C176.014 45.9721 175.969 45.9882 175.922 45.991C175.875 45.9939 175.829 45.9834 175.787 45.9608L171.666 43.7548C171.63 43.7352 171.59 43.725 171.548 43.725C171.507 43.725 171.467 43.7352 171.43 43.7548L167.325 45.9705C167.284 45.9927 167.237 46.0026 167.19 45.9992C167.143 45.9957 167.098 45.9791 167.06 45.9511L162.021 42.2862C161.982 42.2582 161.953 42.2199 161.936 42.1758C161.919 42.1317 161.914 42.0836 161.924 42.0371L162.768 37.4536C162.776 37.4129 162.773 37.3709 162.761 37.3314C162.748 37.2918 162.726 37.256 162.697 37.2272L159.339 34.0151C159.305 33.9826 159.281 33.941 159.269 33.8951C159.258 33.8493 159.26 33.8012 159.274 33.7564Z" fill="#80C342"/>
</svg>
