<svg width="194" height="54" viewBox="0 0 194 54" fill="none" xmlns="http://www.w3.org/2000/svg">
<path d="M0 45.7847V43.9402C1.2058 37.2721 5.11552 31.0288 9.35409 25.8715C9.44414 25.7619 9.49334 25.6247 9.49334 25.4831C9.49334 25.3416 9.44414 25.2044 9.35409 25.0948C5.11552 19.9497 1.17535 13.6456 0 6.95326V5.12697C1.94877 -7.02606 20.9615 6.00068 25.066 9.47731C25.1696 9.56535 25.3014 9.61371 25.4375 9.61371C25.5737 9.61371 25.7054 9.56535 25.809 9.47731C30.2973 5.72158 37.8305 0.709894 43.829 0.212366C52.2696 -0.485387 51.6485 7.12922 49.3282 12.511C47.3429 17.1101 44.7446 21.2926 41.5331 25.0584C41.4386 25.1691 41.3862 25.3094 41.3851 25.4547C41.384 25.6001 41.4342 25.7411 41.5271 25.8533C44.8826 29.8881 55.9601 45.6088 48.2929 50.0016C42.2213 53.4843 30.1694 45.0263 25.6933 41.4465C25.623 41.3895 25.5353 41.3579 25.4447 41.3568C25.354 41.3557 25.2657 41.3852 25.1939 41.4405C20.657 44.9838 15.7911 48.2117 10.4929 50.0198C6.1508 51.5063 0.907396 51.4274 0 45.7847ZM22.9285 11.5099C20.7544 9.73821 1.47376 -3.91954 3.02059 7.28697C3.72702 12.4079 8.13002 18.9121 11.3394 22.8317C11.4937 23.0178 11.648 23.0198 11.8022 22.8378C15.2207 18.8616 18.9315 15.1766 22.9346 11.7829C22.9546 11.766 22.9705 11.7448 22.9813 11.7209C22.9921 11.6971 22.9973 11.6711 22.9967 11.645C22.9962 11.6188 22.9897 11.5931 22.9779 11.5698C22.9661 11.5464 22.9492 11.5259 22.9285 11.5099ZM44.1457 3.07012C38.342 4.06517 32.5323 7.85124 28.0075 11.4735C27.9829 11.493 27.9629 11.5176 27.9489 11.5457C27.935 11.5738 27.9275 11.6046 27.9269 11.6359C27.9263 11.6672 27.9327 11.6982 27.9456 11.7268C27.9584 11.7554 27.9775 11.7808 28.0014 11.8011C32.041 15.2272 35.7762 18.9546 39.2068 22.9834C39.288 23.0764 39.3651 23.0764 39.4382 22.9834C42.5725 19.2054 45.0836 15.0512 46.9714 10.5209C48.1468 7.69349 49.2612 2.19641 44.1457 3.07012ZM35.9304 23.6387C33.0377 20.3805 29.4203 16.7036 25.7055 13.6942C25.539 13.5607 25.3746 13.5607 25.2122 13.6942C21.5258 16.7643 18.1053 20.1014 14.9507 23.7054C14.7964 23.8793 14.837 23.9663 15.0725 23.9663H35.7843C36.0766 23.9663 36.1253 23.8571 35.9304 23.6387ZM14.8167 27.091C17.9043 30.6769 21.4304 34.0018 25.2061 37.2782C25.2733 37.3392 25.3607 37.3735 25.4516 37.3746C25.5425 37.3757 25.6307 37.3436 25.6994 37.2843C29.3899 34.1413 32.851 30.7638 36.0827 27.1517C36.2613 26.9494 36.2146 26.8483 35.9426 26.8483H14.9324C14.7173 26.8483 14.6787 26.9292 14.8167 27.091ZM47.9702 44.4378C47.2455 38.6616 43.0739 32.5214 39.5113 28.0072C39.4098 27.8778 39.3042 27.8757 39.1946 28.0011C35.768 32.0056 32.0471 35.7169 28.0318 39.1348C28.0088 39.1542 27.9902 39.1783 27.9775 39.2056C27.9648 39.2328 27.9582 39.2625 27.9582 39.2926C27.9582 39.3226 27.9648 39.3523 27.9775 39.3796C27.9902 39.4068 28.0088 39.431 28.0318 39.4503C31.8969 42.6701 36.1964 45.2184 40.9302 47.0953C43.6463 48.1692 48.5365 48.958 47.9702 44.4378ZM22.9407 39.1652C18.901 35.7674 15.174 32.0582 11.7596 28.0375C11.7363 28.011 11.7075 27.9899 11.6752 27.9757C11.6428 27.9614 11.6078 27.9543 11.5725 27.9549C11.5371 27.9554 11.5023 27.9637 11.4705 27.979C11.4386 27.9943 11.4105 28.0164 11.3881 28.0436C8.29851 31.8418 5.81383 36.0222 3.93408 40.5849C2.84399 43.2425 1.61382 48.2117 6.24215 47.8719C11.8997 47.4533 18.6351 42.9148 22.9407 39.4382C22.9606 39.4221 22.9765 39.4017 22.9875 39.3785C22.9985 39.3553 23.0041 39.3298 23.0041 39.3038C23.0041 39.2778 22.9985 39.252 22.9875 39.228C22.9765 39.2041 22.9606 39.1826 22.9407 39.1652Z" fill="white"/>
<path d="M72.5078 7.88232C74.6819 8.3131 76.8925 9.22322 77.1483 11.5713C77.739 16.9713 68.6955 16.5223 68.6407 11.9354C68.6367 11.6927 68.7564 11.5713 69 11.5713H70.0536C70.3175 11.5713 70.4718 11.6987 70.5164 11.9536C71.0523 14.9145 76.3993 14.1014 75.1204 11.4682C73.8841 8.90771 69.0061 10.6733 68.9878 6.25625C68.9696 1.32344 76.9413 1.72389 77.2031 6.22591C77.2153 6.4403 77.1158 6.54951 76.9047 6.55355L75.6807 6.57176C75.4777 6.5758 75.3619 6.47872 75.3335 6.28052C75.1346 4.84861 74.1785 4.23782 72.4652 4.44816C70.0597 4.74546 70.5408 7.494 72.5078 7.88232Z" fill="white"/>
<path d="M129.983 12.3418C130.416 9.55686 124.399 10.5094 123.698 6.9054C122.724 1.86944 130.75 1.07461 131.92 6.06203C131.997 6.38967 131.865 6.55551 131.524 6.55955L130.483 6.57169C130.21 6.57574 130.048 6.44427 129.995 6.17731C129.417 3.39843 124.801 4.04765 125.635 6.57776C126.378 8.8227 130.958 7.62742 131.719 11.0373C133.052 17.0137 123.388 16.7103 123.309 11.8685C123.309 11.6744 123.406 11.5773 123.601 11.5773L124.819 11.5712C125.022 11.5712 125.136 11.6724 125.16 11.8746C125.446 14.2652 129.636 14.5685 129.983 12.3418Z" fill="white"/>
<path d="M146.309 8.23422V15.2118C146.309 15.3129 146.258 15.3634 146.157 15.3634L144.939 15.3574C144.898 15.3574 144.86 15.342 144.831 15.3147C144.803 15.2874 144.787 15.2504 144.787 15.2118V8.24029C144.787 8.04209 144.687 7.94097 144.488 7.93692L143.532 7.91265C143.317 7.90861 143.215 7.80141 143.228 7.59108L143.276 6.69917C143.284 6.50501 143.388 6.40793 143.587 6.40793L144.47 6.42007C144.669 6.42007 144.772 6.32097 144.78 6.12276C144.854 3.94456 145.469 2.50052 148.148 2.96164C148.351 2.994 148.453 3.11333 148.453 3.31962L148.44 4.13872C148.436 4.36524 148.323 4.46636 148.099 4.44209C146.918 4.30254 146.187 5.12771 146.285 6.26231C146.305 6.46456 146.419 6.56568 146.626 6.56568H147.825C148.028 6.56164 148.132 6.66074 148.136 6.86299L148.148 7.62141C148.148 7.82771 148.045 7.93085 147.838 7.93085L146.614 7.92479C146.411 7.92479 146.309 8.02793 146.309 8.23422Z" fill="white"/>
<path d="M81.9166 3.90464L81.1501 3.14096C81.0241 3.01538 80.8197 3.01538 80.6936 3.14096L79.841 3.99044C79.715 4.11602 79.715 4.31963 79.841 4.44522L80.6075 5.20889C80.7336 5.33447 80.9379 5.33447 81.064 5.20889L81.9166 4.35941C82.0427 4.23383 82.0427 4.03022 81.9166 3.90464Z" fill="white"/>
<path d="M151.335 5.96508V4.44823C151.333 4.32916 151.38 4.21433 151.464 4.12899C151.549 4.04365 151.665 3.99479 151.786 3.99317L152.541 3.97497C152.748 3.97093 152.851 4.07205 152.851 4.27834L152.857 5.96508C152.862 6.17138 152.965 6.2725 153.168 6.26845L154.222 6.25025C154.538 6.24621 154.693 6.39991 154.684 6.71138L154.672 7.42733C154.668 7.68216 154.536 7.80553 154.276 7.79744L153.198 7.76711C153.004 7.75902 152.9 7.85205 152.888 8.04621C152.809 9.65407 152.09 14.1986 154.794 13.8285C154.924 13.8123 154.989 13.8709 154.989 14.0044L154.983 15.2058C154.983 15.2664 154.954 15.3028 154.898 15.315C152.478 15.6912 151.28 14.7507 151.305 12.4936C151.325 10.37 151.337 8.89969 151.341 8.08261C151.345 7.86418 151.238 7.75902 151.018 7.76711L150.141 7.80351C150.1 7.80596 150.059 7.79996 150.021 7.78589C149.982 7.77182 149.947 7.74996 149.916 7.72162C149.886 7.69329 149.862 7.65906 149.845 7.621C149.828 7.58294 149.819 7.54183 149.819 7.50014L149.812 6.55362C149.812 6.34733 149.918 6.24621 150.129 6.25025L151.024 6.27452C151.231 6.27857 151.335 6.17542 151.335 5.96508Z" fill="white"/>
<path d="M187.44 11.8622C187.434 13.4034 188.828 14.2528 190.259 13.7371C190.442 13.6683 190.59 13.555 190.704 13.3973C191.151 12.7622 191.786 12.5782 192.61 12.8452C192.805 12.9099 192.866 13.0393 192.793 13.2335C192.277 14.5359 191.352 15.2438 190.016 15.3571C187.535 15.5714 186.114 14.4126 185.753 11.8804C185.521 10.2382 185.763 8.85481 186.478 7.73032C187.793 5.66133 190.801 5.52178 192.184 7.5847C192.813 8.52313 193.03 9.77099 192.835 11.3283C192.815 11.4901 192.724 11.571 192.561 11.571H187.732C187.537 11.571 187.44 11.6681 187.44 11.8622ZM187.921 10.2604L190.929 10.1998C190.971 10.199 191.012 10.19 191.05 10.1734C191.088 10.1568 191.123 10.1329 191.151 10.1031C191.18 10.0732 191.203 10.038 191.218 9.99939C191.233 9.96081 191.241 9.91962 191.24 9.87818V9.81751C191.228 9.26421 191.034 8.73735 190.701 8.35277C190.368 7.9682 189.922 7.7574 189.462 7.76672H189.291C189.063 7.77122 188.838 7.82974 188.63 7.93893C188.421 8.04812 188.233 8.20584 188.076 8.40307C187.918 8.6003 187.795 8.83317 187.713 9.08836C187.631 9.34356 187.592 9.61607 187.598 9.89032V9.95099C187.599 9.99243 187.608 10.0333 187.625 10.0713C187.641 10.1093 187.665 10.1436 187.695 10.1723C187.725 10.2011 187.761 10.2236 187.799 10.2388C187.838 10.2539 187.879 10.2612 187.921 10.2604Z" fill="white"/>
<path d="M89.9836 14.6109C82.4748 18.4758 83.1507 2.79157 89.7766 6.79606C89.9552 6.90123 90.1298 6.89516 90.3003 6.77786C90.69 6.51089 91.1508 6.45022 91.6827 6.59584C91.8654 6.64438 91.9567 6.76168 91.9567 6.94775C91.9567 9.63561 92.4866 15.1266 91.4391 17.2138C90.1968 19.6711 85.6598 19.5862 84.8194 16.4433C84.8148 16.4239 84.8147 16.4037 84.819 16.3843C84.8232 16.3649 84.8318 16.3466 84.8441 16.3309C84.8563 16.3152 84.872 16.3025 84.8898 16.2936C84.9077 16.2846 84.9273 16.2798 84.9473 16.2794L86.3358 16.2673C86.4697 16.2673 86.5652 16.33 86.622 16.4554C87.5964 18.67 90.4282 17.1167 90.2637 14.7686C90.2475 14.5745 90.1541 14.5219 89.9836 14.6109ZM90.3058 9.7276C90.3118 9.48305 90.2694 9.23973 90.181 9.01152C90.0926 8.7833 89.96 8.57467 89.7907 8.39753C89.6214 8.22038 89.4187 8.0782 89.1942 7.9791C88.9698 7.88 88.7279 7.82591 88.4825 7.81994L88.1781 7.81254C87.9326 7.80656 87.6884 7.84881 87.4593 7.93687C87.2303 8.02493 87.0209 8.15708 86.8431 8.32577C86.6653 8.49446 86.5226 8.69639 86.4231 8.92003C86.3236 9.14367 86.2693 9.38464 86.2633 9.62918L86.2145 11.6187C86.2085 11.8632 86.2509 12.1066 86.3393 12.3348C86.4277 12.563 86.5603 12.7716 86.7296 12.9488C86.899 13.1259 87.1016 13.2681 87.3261 13.3672C87.5506 13.4663 87.7924 13.5204 88.0379 13.5263L88.3423 13.5337C88.5877 13.5397 88.8319 13.4975 89.061 13.4094C89.2901 13.3214 89.4995 13.1892 89.6773 13.0205C89.8551 12.8518 89.9978 12.6499 90.0972 12.4263C90.1967 12.2026 90.251 11.9616 90.257 11.7171L90.3058 9.7276Z" fill="white"/>
<path d="M113.819 14.7686C113.563 15.0356 113.232 15.2075 112.826 15.2844C107.571 16.3158 107.65 9.11381 113.697 9.76302C114.33 9.83178 114.536 9.56684 114.312 8.96819L114.19 8.64661C114.036 8.23807 113.75 7.97313 113.332 7.85178C112.264 7.55246 111.521 7.85987 111.103 8.77403C110.993 9.01673 110.804 9.1401 110.536 9.14414H110.189C110.02 9.14532 109.854 9.09555 109.714 9.00134C109.574 8.90712 109.465 8.77286 109.402 8.61614C109.34 8.45942 109.326 8.28753 109.364 8.123C109.401 7.95846 109.487 7.80895 109.611 7.69403C111.186 6.25807 112.826 5.91223 114.531 6.6565C116.529 7.52414 115.804 12.7967 116.078 14.9021C116.099 15.0761 116.023 15.1832 115.853 15.2237C115.199 15.3734 114.678 15.2257 114.288 14.7808C114.134 14.6068 113.977 14.6028 113.819 14.7686ZM111.438 11.6925C111.223 11.769 111.035 11.9084 110.901 12.0923C110.766 12.2763 110.69 12.4963 110.683 12.7239C110.622 14.9143 114.178 14.2165 114.373 11.8199C114.389 11.6014 114.29 11.4781 114.075 11.4498C113.161 11.3163 112.282 11.3972 111.438 11.6925Z" fill="white"/>
<path d="M141.261 12.3126C141.246 13.1782 140.887 14.0023 140.261 14.6037C139.636 15.2051 138.797 15.5344 137.928 15.5193L137.356 15.5094C136.487 15.4942 135.66 15.1359 135.056 14.5132C134.453 13.8904 134.122 13.0543 134.137 12.1887L134.184 9.49509C134.2 8.62949 134.559 7.80535 135.184 7.20397C135.809 6.60259 136.649 6.27323 137.517 6.28834L138.09 6.29829C138.959 6.3134 139.786 6.67174 140.389 7.29449C140.993 7.91724 141.324 8.75339 141.309 9.61899L141.261 12.3126ZM139.699 9.56553C139.695 9.32813 139.644 9.09386 139.548 8.87611C139.453 8.65836 139.316 8.46139 139.145 8.29645C138.973 8.1315 138.771 8.00181 138.549 7.91479C138.328 7.82776 138.091 7.7851 137.853 7.78924L137.572 7.79415C137.091 7.80253 136.633 8.00102 136.299 8.34596C135.964 8.6909 135.781 9.15404 135.79 9.63349L135.832 12.0722C135.836 12.3096 135.888 12.5439 135.983 12.7616C136.078 12.9794 136.215 13.1764 136.386 13.3413C136.558 13.5063 136.76 13.6359 136.982 13.723C137.203 13.81 137.44 13.8527 137.678 13.8485L137.959 13.8436C138.44 13.8352 138.898 13.6367 139.232 13.2918C139.567 12.9469 139.75 12.4837 139.741 12.0043L139.699 9.56553Z" fill="white"/>
<path d="M174.712 14.7326C170.15 18.1303 166.569 9.33865 174.62 9.7391C174.689 9.74235 174.757 9.73056 174.821 9.70457C174.884 9.67858 174.941 9.63901 174.988 9.58866C175.034 9.53832 175.069 9.47842 175.09 9.4132C175.11 9.34799 175.116 9.27904 175.107 9.21123L175.077 8.98674C175.008 8.46089 174.722 8.10898 174.218 7.93101C173.151 7.56292 172.381 7.7955 171.91 8.62876C171.711 8.97662 171.413 9.14854 171.015 9.14449H170.71C170.158 9.1364 169.998 8.88359 170.229 8.38606C171.594 5.44337 176.697 5.29168 176.581 9.18089C176.528 11.078 176.624 12.969 176.867 14.8539C176.888 15.0238 176.817 15.133 176.654 15.1816C176.005 15.3757 175.489 15.2422 175.107 14.7811C174.99 14.6395 174.858 14.6234 174.712 14.7326ZM171.551 13.1429C172.397 15.0784 175.12 13.6162 175.113 11.8142C175.114 11.7222 175.08 11.6332 175.019 11.5639C174.957 11.4946 174.872 11.4498 174.779 11.438C173.877 11.3368 173.015 11.4258 172.19 11.7049C172.05 11.7523 171.921 11.8282 171.811 11.9279C171.701 12.0276 171.614 12.1488 171.554 12.284C171.494 12.4192 171.462 12.5653 171.462 12.7132C171.461 12.861 171.492 13.0074 171.551 13.1429Z" fill="white"/>
<path d="M96.8064 6.98409C98.3005 6.02544 99.6849 6.1569 100.96 7.37847C101.13 7.54431 101.295 7.53623 101.453 7.3542C101.879 6.85263 102.32 6.56139 102.775 6.48049C105.215 6.04769 106.433 7.03465 106.428 9.44139C106.424 11.3991 106.424 13.278 106.428 15.078C106.428 15.1537 106.398 15.2262 106.345 15.2797C106.291 15.3331 106.218 15.3632 106.142 15.3632L105.058 15.3693C104.851 15.3693 104.748 15.2681 104.748 15.0659V9.33218C104.748 9.14078 104.709 8.95132 104.634 8.7753C104.558 8.59929 104.448 8.44037 104.309 8.30818C104.17 8.17599 104.005 8.07329 103.825 8.00631C103.645 7.93932 103.454 7.90944 103.262 7.91847L102.793 7.94274C102.423 7.95836 102.074 8.1159 101.818 8.3826C101.561 8.64929 101.418 9.00461 101.416 9.37465L101.392 15.0598C101.392 15.1392 101.361 15.2155 101.305 15.2722C101.249 15.3289 101.173 15.3616 101.094 15.3632L100.198 15.3693C99.9996 15.3733 99.9001 15.2762 99.9001 15.078L99.827 9.43533C99.8148 8.35937 99.2688 7.85578 98.1888 7.92454L97.7138 7.95488C97.3536 7.97647 97.0151 8.13343 96.7674 8.39381C96.5196 8.65419 96.3811 8.99842 96.3801 9.35645L96.368 15.2176C96.368 15.2562 96.3519 15.2932 96.3234 15.3205C96.2948 15.3478 96.2561 15.3632 96.2157 15.3632L95.0038 15.3571C94.9634 15.3571 94.9247 15.3418 94.8962 15.3145C94.8676 15.2872 94.8516 15.2501 94.8516 15.2115V7.00229C94.8516 6.81218 94.9409 6.68476 95.1195 6.62005C95.696 6.42184 96.1528 6.52701 96.4897 6.93555C96.5791 7.04476 96.6846 7.06094 96.8064 6.98409Z" fill="white"/>
<path d="M181.954 6.83877C182.494 6.43427 183.115 6.29877 183.818 6.43225C184.074 6.48079 184.206 6.63247 184.214 6.8873L184.244 7.58506C184.256 7.87225 184.12 7.99157 183.836 7.94304C180.237 7.31809 181.345 13.1307 181.321 15.1087C181.317 15.2826 181.228 15.3696 181.053 15.3696L179.805 15.3574C179.703 15.3574 179.652 15.3089 179.652 15.2118V7.03292C179.652 6.84686 179.746 6.74371 179.932 6.72348C180.424 6.67495 180.897 6.73966 181.351 6.91764C181.567 7.00259 181.768 6.97629 181.954 6.83877Z" fill="white"/>
<path d="M81.3714 6.56488L80.2995 6.56675C80.1751 6.56696 80.0744 6.66765 80.0746 6.79163L80.0892 15.1404C80.0895 15.2644 80.1905 15.3647 80.315 15.3645L81.3868 15.3626C81.5112 15.3624 81.6119 15.2617 81.6117 15.1377L81.5971 6.78899C81.5969 6.665 81.4958 6.56467 81.3714 6.56488Z" fill="white"/>
<path d="M160.072 11.8808L161.692 6.88727C161.761 6.67693 161.907 6.56974 162.13 6.56569L162.77 6.55356C163.046 6.54951 163.222 6.67895 163.3 6.94187L164.645 11.6866C164.816 12.2772 164.97 12.2731 165.108 11.6745L166.211 6.85086C166.255 6.66075 166.375 6.56367 166.57 6.55963H167.751C167.954 6.55963 168.031 6.65671 167.983 6.85086L165.815 15.0904C165.766 15.2724 165.646 15.3634 165.455 15.3634H164.621C164.434 15.3634 164.313 15.2745 164.256 15.0965L162.636 9.74502C162.624 9.71147 162.603 9.68234 162.574 9.66171C162.545 9.64108 162.51 9.62999 162.474 9.62999C162.439 9.62999 162.404 9.64108 162.375 9.66171C162.346 9.68234 162.324 9.71147 162.313 9.74502C161.87 11.2781 161.395 12.8495 160.888 14.4594C160.648 15.2239 160.175 15.5252 159.469 15.3634C159.29 15.323 159.177 15.2138 159.128 15.0358L156.82 6.73558C156.815 6.71621 156.815 6.69607 156.82 6.67664C156.824 6.65721 156.832 6.63897 156.845 6.62327C156.857 6.60757 156.873 6.59479 156.89 6.58588C156.908 6.57697 156.928 6.57214 156.948 6.57176L158.373 6.56569C158.487 6.56569 158.558 6.62232 158.586 6.73558L159.792 11.8686C159.873 12.2124 159.966 12.2165 160.072 11.8808Z" fill="white"/>
<path d="M104.48 27.8797C105.671 27.8797 106.636 26.9181 106.636 25.7319C106.636 24.5456 105.671 23.584 104.48 23.584C103.289 23.584 102.324 24.5456 102.324 25.7319C102.324 26.9181 103.289 27.8797 104.48 27.8797Z" fill="#D40000"/>
<path d="M164.293 27.8797C165.483 27.8797 166.448 26.9181 166.448 25.7319C166.448 24.5456 165.483 23.584 164.293 23.584C163.102 23.584 162.137 24.5456 162.137 25.7319C162.137 26.9181 163.102 27.8797 164.293 27.8797Z" fill="#D40000"/>
<path d="M78.0431 47.5929C74.6693 48.321 70.4368 47.3562 69.0727 43.8796C68.7438 43.0383 68.5672 41.4142 68.5429 39.0075C68.4901 33.9917 68.486 29.0124 68.5307 24.0695C68.5348 23.8996 68.62 23.8147 68.7865 23.8147H72.1298C72.2557 23.8147 72.3186 23.8794 72.3186 24.0088C72.3146 29.5383 72.3166 35.1344 72.3247 40.7974C72.3369 45.6088 78.8409 46.2459 79.4621 41.7742C80.2416 36.1194 79.7909 29.8275 79.7788 24.112C79.7788 24.0331 79.8102 23.9575 79.8662 23.9017C79.9221 23.846 79.998 23.8147 80.0772 23.8147L83.1404 23.8086C83.2179 23.8086 83.2923 23.8386 83.3471 23.8921C83.4019 23.9456 83.4327 24.0181 83.4327 24.0938C83.4368 29.5342 83.4327 35.0535 83.4205 40.6517C83.4144 44.2861 81.6788 46.8102 78.0431 47.5929Z" fill="#D40000"/>
<path d="M174.343 33.0554C174.294 36.0972 174.3 39.1349 174.361 42.1686C174.389 43.4428 174.862 44.2882 175.78 44.7048C175.995 44.8059 176.216 44.8181 176.444 44.7412C176.902 44.5794 177.377 44.5369 177.869 44.6138C178.043 44.6421 178.131 44.7432 178.131 44.9172V46.8405C178.131 47.0104 178.047 47.1136 177.881 47.15C174.901 47.7769 172.826 47.0711 171.657 45.0324C170.159 42.4174 170.835 36.3985 170.823 33.0796C170.823 32.8693 170.717 32.7641 170.506 32.7641H168.923C168.565 32.7641 168.387 32.5882 168.387 32.2363V30.416C168.387 30.0601 168.563 29.8821 168.917 29.8821H170.518C170.721 29.8821 170.823 29.781 170.823 29.5787V25.4832C170.823 25.443 170.839 25.4044 170.867 25.376C170.896 25.3475 170.935 25.3315 170.975 25.3315H174.172C174.213 25.3315 174.251 25.3475 174.28 25.376C174.308 25.4044 174.324 25.443 174.324 25.4832V29.5787C174.324 29.781 174.426 29.8821 174.629 29.8821H177.217C177.416 29.8821 177.518 29.9832 177.522 30.1855L177.528 32.4608C177.528 32.663 177.424 32.7641 177.217 32.7641H174.641C174.446 32.7641 174.347 32.8612 174.343 33.0554Z" fill="#D40000"/>
<path d="M90.0756 31.5385C92.3045 29.3057 96.8232 28.6504 98.6015 31.8783C99.3769 33.2819 99.7443 34.7906 99.7037 36.4046C99.6225 40.0127 99.5759 43.5399 99.5637 46.9861C99.5637 47.1075 99.5028 47.1682 99.381 47.1682L96.2508 47.1742C96.129 47.1742 96.0681 47.1136 96.0681 46.9922C96.0681 43.2304 96.0681 39.3978 96.0681 35.4945C96.0681 30.774 89.7955 32.2848 89.8137 36.9142C89.83 40.3363 89.832 43.7017 89.8198 47.0104C89.8198 47.0523 89.8031 47.0924 89.7734 47.122C89.7438 47.1515 89.7035 47.1682 89.6615 47.1682L86.4765 47.1742C86.4361 47.1742 86.3974 47.1583 86.3688 47.1298C86.3403 47.1014 86.3242 47.0628 86.3242 47.0226V30.4888C86.3242 30.1855 86.4765 30.0338 86.781 30.0338H89.3814C89.694 30.0338 89.8442 30.1895 89.832 30.501L89.7955 31.4172C89.7833 31.6963 89.8767 31.7367 90.0756 31.5385Z" fill="#D40000"/>
<path d="M127.162 40.3241C127.144 42.5205 128.209 45.7665 131.053 44.4014C131.742 44.0676 132.107 43.3517 132.308 42.7025C132.418 42.3465 132.657 42.1685 133.027 42.1685H135.456C135.846 42.1685 135.974 42.3506 135.84 42.7146C133.203 49.8499 124.367 48.5029 123.539 41.2706C122.972 36.3196 123.435 29.427 130.207 29.6757C135.621 29.876 136.516 35.4155 136.23 39.7659C136.218 39.9519 136.12 40.045 135.938 40.045H127.448C127.257 40.045 127.162 40.138 127.162 40.3241ZM127.333 37.1629H132.497C132.545 37.1629 132.592 37.1438 132.626 37.1096C132.66 37.0755 132.679 37.0292 132.679 36.9809V36.8596C132.679 35.6913 132.4 34.5709 131.904 33.7448C131.407 32.9187 130.733 32.4546 130.03 32.4546H129.799C129.096 32.4546 128.423 32.9187 127.926 33.7448C127.429 34.5709 127.15 35.6913 127.15 36.8596V36.9809C127.15 37.0292 127.169 37.0755 127.203 37.1096C127.238 37.1438 127.284 37.1629 127.333 37.1629Z" fill="#D40000"/>
<path d="M142.67 31.3686C143.717 29.8841 145.146 29.3987 146.957 29.9125C147.241 29.9934 147.384 30.1814 147.384 30.4767L147.365 32.2848C147.365 32.329 147.354 32.3725 147.334 32.4121C147.315 32.4516 147.286 32.4862 147.251 32.5131C147.216 32.54 147.175 32.5585 147.131 32.5673C147.088 32.5761 147.043 32.575 147 32.5639C145.136 32.0745 143.797 32.5659 142.981 34.0383C142.558 34.8028 142.347 36.0203 142.347 37.6909C142.355 40.765 142.357 43.7785 142.353 46.7313C142.353 46.807 142.322 46.8795 142.268 46.933C142.213 46.9865 142.138 47.0165 142.061 47.0165L139.156 47.0226C138.953 47.0226 138.852 46.9214 138.852 46.7192V30.3372C138.852 30.0338 139.004 29.8821 139.308 29.8821H141.909C142.221 29.8821 142.372 30.0378 142.359 30.3493L142.335 31.2594C142.323 31.668 142.434 31.7044 142.67 31.3686Z" fill="#D40000"/>
<path d="M152.28 33.85C150.715 37.6361 161.604 35.9008 160.063 43.8613C159.095 48.879 148.047 49.3037 147.98 42.0168C147.98 41.9963 147.985 41.9761 147.993 41.9573C148.001 41.9385 148.012 41.9215 148.027 41.9073C148.042 41.8931 148.059 41.8821 148.079 41.8748C148.098 41.8676 148.118 41.8643 148.139 41.8651L150.824 41.8712C150.866 41.8731 150.905 41.8886 150.936 41.915C150.967 41.9415 150.988 41.9774 150.995 42.0168C151.312 43.8734 152.381 44.7653 154.204 44.6925C157.328 44.5712 157.152 41.3129 154.698 40.4635C152.414 39.6747 149.795 38.977 148.997 36.6956C146.22 28.7595 159.691 26.8907 160.112 34.8026C160.124 35.0615 160.002 35.1909 159.746 35.1909H157.298C157.046 35.1909 156.933 35.0655 156.957 34.8147C157.201 32.5031 153.291 31.417 152.28 33.85Z" fill="#D40000"/>
<path d="M106.2 30.0337H102.985C102.864 30.0337 102.766 30.1315 102.766 30.2521V46.9496C102.766 47.0703 102.864 47.1681 102.985 47.1681H106.2C106.321 47.1681 106.42 47.0703 106.42 46.9496V30.2521C106.42 30.1315 106.321 30.0337 106.2 30.0337Z" fill="#D40000"/>
<path d="M115.761 41.2098L119.007 30.1611C119.019 30.1221 119.043 30.0881 119.076 30.064C119.109 30.0399 119.149 30.0272 119.19 30.0276L122.491 30.0458C122.521 30.0461 122.55 30.0535 122.576 30.0673C122.603 30.0811 122.626 30.101 122.643 30.1253C122.66 30.1495 122.671 30.1775 122.676 30.207C122.68 30.2364 122.677 30.2664 122.667 30.2946L116.778 47.0406C116.766 47.0775 116.742 47.1095 116.71 47.1323C116.679 47.1551 116.641 47.1676 116.602 47.168L114.562 47.1741C114.523 47.1737 114.485 47.1612 114.453 47.1384C114.421 47.1156 114.398 47.0835 114.385 47.0467L108.502 30.2885C108.492 30.2599 108.49 30.2293 108.494 30.1994C108.499 30.1695 108.511 30.1411 108.529 30.1167C108.547 30.0923 108.57 30.0726 108.597 30.0592C108.625 30.0457 108.655 30.0391 108.685 30.0397L111.852 30.0276C111.893 30.0272 111.932 30.0399 111.965 30.064C111.998 30.0881 112.023 30.1221 112.034 30.1611L115.402 41.2159C115.415 41.2536 115.44 41.2862 115.472 41.3091C115.505 41.3319 115.544 41.3439 115.584 41.3432C115.624 41.3426 115.663 41.3293 115.695 41.3053C115.726 41.2813 115.75 41.2479 115.761 41.2098Z" fill="#D40000"/>
<path d="M166.006 30.0276H162.851C162.713 30.0276 162.602 30.139 162.602 30.2764V46.9253C162.602 47.0627 162.713 47.1741 162.851 47.1741H166.006C166.144 47.1741 166.256 47.0627 166.256 46.9253V30.2764C166.256 30.139 166.144 30.0276 166.006 30.0276Z" fill="#D40000"/>
<path d="M182.812 54H179.773C179.598 53.1425 179.574 52.2809 179.7 51.4153C179.732 51.2131 179.848 51.1322 180.047 51.1726C182.793 51.743 183.646 49.1036 184.188 47.0711C184.24 46.8689 184.233 46.6585 184.17 46.4643L178.737 30.2218C178.731 30.2007 178.729 30.1783 178.732 30.1564C178.735 30.1345 178.743 30.1138 178.756 30.0959C178.768 30.0781 178.785 30.0638 178.804 30.054C178.823 30.0442 178.844 30.0394 178.865 30.0398H182.385C182.475 30.0398 182.529 30.0823 182.55 30.1672L185.613 41.4041C185.702 41.7358 185.792 41.7378 185.881 41.4102L188.926 30.3189C188.95 30.2299 189.009 30.1854 189.103 30.1854L192.616 30.1915C192.635 30.1915 192.653 30.1959 192.669 30.2042C192.685 30.2126 192.699 30.2246 192.71 30.2394C192.721 30.2542 192.728 30.2714 192.731 30.2894C192.733 30.3074 192.732 30.3259 192.726 30.3432C189.368 40.8317 187.131 47.692 186.015 50.9239C185.475 52.4933 184.407 53.5187 182.812 54Z" fill="#D40000"/>
</svg>
