<svg width="212" height="36" viewBox="0 0 212 36" fill="none" xmlns="http://www.w3.org/2000/svg">
<path d="M10.3602 21.0564C7.38208 19.8939 4.80895 18.8884 4.80895 16.5722C4.80895 13.8921 7.24771 12.9385 9.52961 12.9385C13.4776 12.9385 15.5732 15.1203 15.5947 15.1419L15.7958 15.3567L17.5629 12.3921L17.454 12.2705C17.352 12.1557 14.9044 9.47656 9.62767 9.47656C5.42572 9.47656 0.906066 11.6956 0.906066 16.5702C0.906066 21.179 5.06684 22.8271 8.73827 24.282C11.7223 25.4631 14.2984 26.4843 14.2984 28.7828C14.2984 31.3609 11.9027 32.5146 9.52961 32.5146C5.04132 32.5146 2.30639 29.601 2.27893 29.5716L2.09851 29.3763L0 32.1555L0.119608 32.2909C0.151969 32.3292 0.951183 33.2317 2.50938 34.1421C3.94207 34.9799 6.31416 35.9776 9.47861 35.9776C14.5337 35.9776 18.2022 32.9511 18.2022 28.7838C18.2022 24.1162 14.0365 22.4897 10.3602 21.0554" fill="white"/>
<path d="M45.0631 22.6044C45.0631 28.1628 40.9054 32.5175 35.5992 32.5175C30.2931 32.5175 26.1353 28.1628 26.1353 22.6044C26.1353 17.046 30.2931 12.9876 35.5992 12.9876C40.9054 12.9876 45.0631 17.2118 45.0631 22.6044ZM35.5992 9.47754C28.1024 9.47754 22.2305 15.2439 22.2305 22.6044C22.2305 29.965 28.1024 35.9786 35.5992 35.9786C43.0961 35.9786 48.968 30.1043 48.968 22.6044C48.968 15.1046 43.0961 9.47754 35.5992 9.47754Z" fill="white"/>
<path d="M65.5052 0.102029C65.4797 0.0981048 64.8825 0 63.9381 0C61.2895 0 55.1292 0.921181 55.1292 9.45597V10.4193H51.7422V13.6773H55.1292V35.4036H58.9291V13.6773H65.2963V10.4193H58.9291V9.45597C58.9291 7.21534 59.6254 3.45708 64.2843 3.45708C64.9423 3.45708 65.4208 3.54929 65.4257 3.55027L65.6915 3.60325V0.132446L65.5062 0.102029H65.5052Z" fill="white"/>
<path d="M83.4487 32.3194L83.1741 32.3792C83.1682 32.3802 82.7309 32.4744 82.065 32.4744C80.0244 32.4744 76.602 31.6336 76.602 26.0026V13.7479H82.9456V10.4242H76.602V3.12061H72.7757V10.4242H69.4023V13.7479H72.7247V26.3548C72.7247 34.7464 78.3867 36.0001 81.761 36.0001C82.6789 36.0001 83.2398 35.8991 83.2624 35.8961L83.4487 35.8628V32.3194Z" fill="white"/>
<path d="M91.1779 27.8616C91.1779 27.8616 93.956 30.6408 98.0746 30.6408C99.8603 30.6408 101.397 29.8461 101.397 28.358C101.397 24.5869 89.0951 25.0824 89.0951 16.9429C89.0951 12.2282 93.3127 9.5 98.7689 9.5C104.225 9.5 107.251 12.3773 107.251 12.3773L104.92 17.043C104.92 17.043 102.588 14.8592 98.7188 14.8592C97.0822 14.8592 95.4946 15.5538 95.4946 17.1421C95.4946 20.7159 107.796 20.2685 107.796 28.407C107.796 32.6263 104.127 36 98.1236 36C91.8241 36 88.3008 32.2781 88.3008 32.2781L91.1779 27.8616Z" fill="white"/>
<path d="M129.634 19.623C129.535 16.1983 127.401 14.3609 124.624 14.3609C121.399 14.3609 119.167 16.3465 118.571 19.623H129.633H129.634ZM124.773 9.49903C132.066 9.49903 135.984 14.8093 135.984 21.5086C135.984 22.2522 135.836 23.9395 135.836 23.9395H118.373C118.77 28.357 122.194 30.6398 125.964 30.6398C130.032 30.6398 133.256 27.8596 133.256 27.8596L135.688 32.3762C135.688 32.3762 131.817 35.9991 125.517 35.9991C117.135 35.9991 111.926 29.9452 111.926 22.7485C111.926 14.9573 117.234 9.49805 124.774 9.49805" fill="white"/>
<path d="M142.328 10.0944H148.38V14.4618C148.38 15.4046 148.279 16.2482 148.279 16.2482H148.38C149.521 12.6254 152.548 9.74707 156.416 9.74707C157.012 9.74707 157.557 9.84615 157.557 9.84615V16.0491C157.557 16.0491 156.912 15.951 156.069 15.951C153.39 15.951 150.363 17.4882 149.173 21.2602C148.777 22.5012 148.628 23.8913 148.628 25.3795V35.4044H142.328V10.0953V10.0944Z" fill="white"/>
<path d="M160.301 10.0947H166.947L172.206 25.7762C172.703 27.2654 173.05 28.9477 173.1 28.9477H173.198C173.249 28.9477 173.595 27.2654 174.091 25.7762L179.349 10.0947H185.997L176.918 35.4038H169.478L160.302 10.0947H160.301Z" fill="white"/>
<path d="M205.26 19.623C205.162 16.1983 203.028 14.3609 200.251 14.3609C197.026 14.3609 194.794 16.3465 194.199 19.623H205.26ZM200.399 9.49903C207.692 9.49903 211.609 14.8093 211.609 21.5086C211.609 22.2522 211.461 23.9395 211.461 23.9395H193.999C194.396 28.357 197.819 30.6398 201.59 30.6398C205.657 30.6398 208.883 27.8596 208.883 27.8596L211.313 32.3762C211.313 32.3762 207.445 35.9991 201.144 35.9991C192.76 35.9991 187.551 29.9452 187.551 22.7485C187.551 14.9573 192.859 9.49805 200.399 9.49805" fill="white"/>
</svg>
