<svg width="187" height="38" viewBox="0 0 187 38" fill="none" xmlns="http://www.w3.org/2000/svg">
<path d="M85.2375 31.108C81.3484 31.1069 77.9873 28.3813 77.376 24.5845C77.3048 24.1443 77.2697 23.4284 77.2697 22.437C77.2653 14.9781 77.2642 7.51595 77.2675 0.0505945C77.2675 0.0226061 77.2905 0 77.319 0H84.1705C84.2001 0 84.2231 0.0226055 84.2231 0.0516704C84.222 7.48689 84.2231 14.9264 84.2242 22.3692C84.2242 23.7169 84.7073 24.2734 86.0898 24.2734C90.7174 24.2745 95.3449 24.2756 99.9713 24.2745C101.241 24.2745 102.024 23.9817 102.024 22.634C102.025 15.1094 102.027 7.58162 102.025 0.0516704C102.025 0.0226055 102.048 0 102.078 0H108.929C108.959 0 108.982 0.0226055 108.982 0.0516704C108.982 7.54825 108.982 15.0481 108.982 22.5511C108.982 23.5371 108.945 24.253 108.869 24.6987C108.315 27.9668 105.644 30.4417 102.401 30.9874C101.909 31.0703 101.182 31.1112 100.218 31.1112C95.2244 31.1101 90.2309 31.1091 85.2375 31.108Z" fill="white"/>
<path d="M23.4404 19.1135C18.6771 19.106 13.9137 19.1049 9.15144 19.1092C8.10521 19.1103 7.37668 19.0856 6.96366 19.035C3.64859 18.627 0.873607 16.2297 0.186709 12.955C-0.102511 11.575 0.0311441 9.7945 0.028953 8.28205C0.0278575 7.41979 0.0771566 6.747 0.174659 6.26258C0.789251 3.22369 3.19613 0.803778 6.30963 0.176193C6.79714 0.0782333 7.495 0.0297908 8.40209 0.0287143C16.1179 0.0265614 23.8359 0.0265614 31.5583 0.0287143C31.5868 0.0287143 31.6098 0.0513204 31.6098 0.0793088V6.81159C31.6098 6.84065 31.5868 6.86326 31.5572 6.86326C23.9214 6.86218 16.2822 6.86326 8.63873 6.86433C7.58264 6.86433 6.99324 7.37566 6.98995 8.43491C6.98776 9.17122 6.98667 9.90645 6.98667 10.6417C6.98667 11.9087 7.72287 12.2715 8.89508 12.2715C13.7647 12.2725 18.6333 12.2736 23.5029 12.2725C24.4768 12.2715 25.2032 12.3167 25.6841 12.4071C28.8107 12.9959 31.2899 15.4449 31.8968 18.5064C31.9932 18.9919 32.0436 19.7067 32.048 20.6497C32.0535 22.0426 32.1433 23.6563 31.8914 24.8899C31.2592 27.9923 28.7253 30.4327 25.5428 30.986C25.0772 31.0667 24.3486 31.1076 23.3594 31.1087C15.7663 31.113 8.17203 31.113 0.578909 31.1098C0.542757 31.1098 0.524133 31.0915 0.524133 31.0549V24.3312C0.524133 24.2946 0.542757 24.2763 0.580005 24.2763C8.02852 24.2742 15.477 24.2742 22.9234 24.2763C23.8578 24.2763 24.5568 24.2688 24.9435 23.4517C25.2327 22.8392 25.0925 21.5927 25.0914 20.8843C25.0903 19.7293 24.6565 19.1157 23.4404 19.1135Z" fill="white"/>
<path d="M46.5892 31.1088C42.7285 31.1067 39.3784 28.3778 38.7594 24.6112C38.6871 24.1677 38.6499 23.4519 38.6488 22.4637C38.6433 17.5689 38.6433 12.6742 38.6477 7.77839C38.6521 4.06886 41.3142 0.915861 44.9974 0.173093C45.4696 0.0772864 46.1192 0.0299213 46.9452 0.0299213C51.874 0.0266919 56.8039 0.0266908 61.7338 0.0288438C62.7077 0.0288438 63.4341 0.0740568 63.915 0.164481C67.0395 0.75116 69.4978 3.17754 70.131 6.22611C70.2285 6.69438 70.2767 7.34242 70.2767 8.17023C70.28 18.0953 70.2811 28.0204 70.2778 37.9455C70.2778 37.9821 70.2592 38.0004 70.222 38.0004H63.3771C63.3464 38.0004 63.3223 37.9768 63.3223 37.9466V31.1627C63.3223 31.1336 63.2993 31.1099 63.2697 31.1099C57.7132 31.1121 52.1534 31.1121 46.5892 31.1088ZM45.6043 22.4798C45.6043 23.4433 46.0217 24.2786 47.1359 24.2786C52.5204 24.2775 57.9005 24.2754 63.2785 24.2743C63.3026 24.2743 63.3223 24.2549 63.3223 24.2312C63.3234 18.9888 63.3223 13.7496 63.3212 8.51362C63.3212 7.3478 62.7417 6.86339 61.576 6.86339C56.8401 6.86446 52.1041 6.86339 47.3681 6.86231C46.3569 6.86231 45.6032 7.29075 45.6021 8.39736C45.601 13.0919 45.601 17.7853 45.6043 22.4798Z" fill="white"/>
<path d="M140.661 23.226H122.968C122.938 23.226 122.914 23.2497 122.914 23.2799V31.0574C122.914 31.0875 122.89 31.1112 122.859 31.1112H116.01C115.98 31.1112 115.957 31.0886 115.957 31.0595C115.957 23.6695 115.957 16.2774 115.957 8.882C115.957 7.8432 115.984 7.12627 116.038 6.7312C116.483 3.47917 119.003 0.831038 122.28 0.179771C122.779 0.0807351 123.502 0.0312173 124.451 0.0301408C129.289 0.0269114 134.126 0.0269109 138.964 0.0279874C139.969 0.0279874 140.696 0.0656638 141.149 0.142094C144.422 0.691096 146.979 3.26064 147.546 6.44701C147.63 6.91958 147.672 7.63544 147.672 8.59243C147.673 16.0782 147.674 23.5673 147.673 31.0606C147.673 31.0886 147.65 31.1112 147.62 31.1112H140.771C140.74 31.1112 140.716 31.0875 140.716 31.0574V23.2799C140.716 23.2443 140.697 23.226 140.661 23.226ZM124.513 6.86576C123.61 6.86576 122.913 7.41907 122.911 8.34484C122.909 10.9973 122.911 13.6529 122.917 16.3108C122.917 16.3463 122.934 16.3635 122.971 16.3635H140.66C140.696 16.3635 140.714 16.3463 140.714 16.3108C140.719 13.7617 140.719 11.2126 140.714 8.66347C140.712 7.38462 140.195 6.86468 138.884 6.86361C134.094 6.86253 129.303 6.86253 124.513 6.86576Z" fill="white"/>
<path d="M179.821 0.15055C182.959 0.707088 185.468 3.12162 186.114 6.18742C186.214 6.66 186.263 7.33387 186.264 8.2112C186.267 13.0456 186.267 17.8801 186.266 22.7156C186.266 23.678 186.221 24.3928 186.13 24.86C185.52 28 182.933 30.4307 179.76 30.9819C179.277 31.0658 178.549 31.1078 177.576 31.1089C169.956 31.1143 162.335 31.1143 154.714 31.1089C154.678 31.1089 154.66 31.0917 154.66 31.0562V0.0805799C154.66 0.0515151 154.684 0.027832 154.714 0.027832C162.351 0.027832 169.992 0.027832 177.639 0.027832C178.63 0.027832 179.358 0.068738 179.821 0.15055ZM179.308 8.3619C179.308 7.63098 178.789 6.8656 177.994 6.86453C172.556 6.8613 167.114 6.8613 161.67 6.8656C161.634 6.8656 161.617 6.88283 161.617 6.91835V24.2216C161.617 24.2518 161.641 24.2754 161.672 24.2754C166.94 24.2765 172.208 24.2754 177.477 24.2744C178.702 24.2744 179.311 23.8298 179.311 22.5735C179.31 17.836 179.31 13.0984 179.308 8.3619Z" fill="white"/>
</svg>
