<svg width="182" height="46" viewBox="0 0 182 46" fill="none" xmlns="http://www.w3.org/2000/svg">
<path d="M173.769 6.4624L169.447 20.6089L168.538 24.1021C168.316 23.219 167.85 21.4496 167.628 20.6089L163.681 6.4624H155.883L165.1 31.7065L159.903 46.0001H167.138L181.18 6.4624H173.767H173.769Z" fill="#58BB69"/>
<path d="M3.6087 6.44484L5.70748 0H10.6026V6.44484L16.1227 6.42414V11.6928H10.6026V23.3453C10.615 26.5714 11.6302 27.9162 13.7963 27.9079C14.8074 27.9038 15.7491 27.8055 16.4705 27.6585L16.4912 33.1C15.5297 33.4883 13.5293 33.7358 11.4605 33.743C3.7598 33.772 3.68632 27.0787 3.67494 24.0939L3.62939 11.7187L0.0196571 11.7322L0 8.73598L3.60974 6.44484H3.6087ZM24.878 22.0149C25.0705 26.59 27.1775 28.7207 31.046 28.7207C34.5129 28.7207 37.1975 27.9773 39.4825 26.9203V32.2242C37.2678 33.187 34.4084 33.7648 31.0874 33.7648C22.5712 33.7648 18.0921 28.9185 18.0921 20.2342C18.0921 12.5294 22.5205 5.88472 30.3661 5.88472C36.8632 5.88472 41.099 10.5074 41.099 19.174C41.099 20.2342 41.0504 21.2447 40.9066 22.0149H24.879H24.878ZM34.5047 17.0558C34.5533 14.2625 33.4459 10.8439 29.9325 10.8439C26.419 10.8439 25.0705 14.4064 24.879 17.0558H34.5057H34.5047ZM44.8081 8.17278C47.3726 6.92418 49.9443 5.93236 54.5176 5.93236C62.8444 5.93236 65.1067 11.229 65.1067 17.1034V33.2823H59.8949L58.6561 30.489H58.5113C56.9713 32.6073 54.3716 33.8113 51.388 33.8113C46.4308 33.8113 43.35 30.1039 43.35 25.77C43.35 18.8841 49.4631 15.6581 57.9824 15.6581C57.9824 13.0098 57.5033 10.9878 54.0146 10.9878C51.5598 10.9878 49.3855 11.5324 47.0259 12.6961L44.8081 8.17174V8.17278ZM58.1749 20.2342C54.324 20.2342 50.3293 21.1484 50.3293 25.0484C50.3293 27.6005 51.9179 28.7082 53.699 28.7082C55.3838 28.7082 58.1749 27.5052 58.1749 24.0856V20.2332V20.2342ZM90.7039 10.4111C92.9176 7.13644 95.6611 5.9334 98.6458 5.9334C103.314 5.9334 106.925 9.25572 106.925 17.0082V33.2833H99.9456V18.1159C99.9456 14.2635 98.8869 11.7115 96.0471 11.7115C94.0736 11.7115 91.8599 13.2531 91.8599 17.0082V33.2833H84.8806V17.442C84.8806 14.2635 83.8695 11.7115 81.0783 11.7115C79.1048 11.7115 76.7949 13.5409 76.7949 17.1531V33.2833H69.8155V6.51109H75.3532L76.0239 10.0747H76.1687C77.4199 8.14898 79.7785 5.9334 83.7732 5.9334C87.0466 5.9334 89.549 7.66652 90.6077 10.4111H90.7039ZM126.215 6.46243H133.579L124.433 33.2823H117.55L108.55 6.46243H116.203L119.716 19.4629C120.294 21.7748 120.775 23.9893 121.209 26.3001H121.354C121.787 23.9883 122.268 21.8224 122.846 19.4629L126.216 6.46243H126.215ZM157.963 25.9326L150.877 6.46243C149.769 6.09282 148.251 5.88472 146.766 5.88472C139.497 5.88472 134.059 10.9889 134.059 19.993C134.059 28.9971 139.257 33.8124 146.477 33.8124C151.018 33.8124 155.891 31.5222 157.963 25.9326ZM146.573 28.5644C143.107 28.5644 141.279 24.6157 141.279 19.8491C141.279 15.7565 142.675 11.1338 146.621 11.1338C150.279 11.1338 151.77 15.6115 151.77 19.8014C151.77 24.568 149.942 28.5654 146.572 28.5654L146.573 28.5644Z" fill="white"/>
</svg>
