<svg width="86" height="60" viewBox="0 0 86 60" fill="none" xmlns="http://www.w3.org/2000/svg">
<path d="M30.9425 44.6634L30.4719 44.6207C29.5733 44.5351 8.39294 42.6526 1.84628 28.6192C-0.378725 23.8701 -0.592668 18.5648 1.20445 13.6446C2.95879 8.72436 6.55303 4.78817 11.3026 2.56337C13.9127 1.32262 16.6939 0.723633 19.5608 0.723633C27.1344 0.723633 34.1089 5.17323 37.318 12.0188C43.8647 26.0949 31.7127 43.5083 31.1993 44.2356L30.9425 44.6634ZM19.5608 2.39223C16.9507 2.39223 14.3833 2.94843 11.9872 4.06083C7.66554 6.07171 4.37081 9.66562 2.70206 14.2008C1.07609 18.6932 1.29003 23.5706 3.3011 27.8919C8.94919 39.9571 26.9204 42.567 30.0868 42.9093C31.8411 40.2566 41.4258 24.8114 35.8204 12.7461C32.9108 6.45677 26.4925 2.39223 19.5608 2.39223Z" fill="#A6CE39"/>
<path d="M28.2041 49.327L33.5099 50.2682L36.2911 45.6475L30.9426 44.749L28.2041 49.327Z" fill="#A6CE39"/>
<path d="M45.319 48.5995L45.1906 48.3428C44.8055 47.4444 44.5488 46.8026 44.4204 46.4175C44.3776 46.2892 44.4204 46.2036 44.5488 46.118L45.7469 45.6046C45.8752 45.5618 46.0036 45.5618 46.0892 45.6902C46.2603 45.9469 46.4315 46.2036 46.6026 46.5887L47.0305 46.3747C47.33 46.2464 47.544 46.0753 47.6296 45.8613C47.7151 45.6474 47.6723 45.4335 47.544 45.134C47.4584 44.9201 47.2872 44.7489 47.1161 44.6634C46.9449 44.5778 46.6882 44.4922 46.3459 44.4494L45.0194 44.3211C44.4204 44.2783 43.9497 44.1072 43.5646 43.8077C43.1795 43.551 42.88 43.1231 42.6233 42.5669C42.2382 41.754 42.1954 41.0267 42.4093 40.4705C42.6233 39.9143 43.2223 39.4009 44.1209 39.0158C45.0194 38.6307 45.8324 38.4168 46.4743 38.374C46.6454 38.374 46.731 38.4168 46.7738 38.5024L46.9021 38.7591C47.2872 39.6576 47.544 40.2993 47.6723 40.6844C47.7151 40.8127 47.6723 40.8983 47.544 40.9839L46.3459 41.4973C46.2175 41.5401 46.0892 41.5401 46.0036 41.4117C45.7896 41.1122 45.6185 40.8127 45.4901 40.5133L45.319 40.5988C44.7199 40.8555 44.5488 41.2406 44.7627 41.7112C44.9339 42.0963 45.2762 42.3102 45.7469 42.353L47.1161 42.4813C47.7151 42.5241 48.2286 42.6953 48.6565 42.952C49.0416 43.2087 49.4267 43.6365 49.6834 44.2783C50.0685 45.0912 50.1113 45.8185 49.8546 46.4175C49.5978 47.0165 48.9988 47.5299 48.0574 47.9578C47.1161 48.3856 46.3031 48.5995 45.5757 48.6423C45.4473 48.7707 45.3618 48.7279 45.319 48.5995Z" fill="#A6CE39"/>
<path d="M49.9824 41.3262L49.2978 41.6256C49.1266 41.7112 49.0411 41.6684 48.9555 41.4973L48.3992 40.2993C48.3137 40.1282 48.3564 40.0426 48.5276 39.957L49.2122 39.6576L48.5704 38.2029C48.4848 38.0317 48.5276 37.9034 48.6988 37.8606L50.2391 37.176C50.4103 37.0905 50.4959 37.176 50.5815 37.3044L51.2233 38.7591L52.4214 38.2457C52.5925 38.1601 52.6781 38.2029 52.7637 38.374L53.3199 39.572C53.4055 39.7003 53.3199 39.8287 53.1916 39.9143L51.9935 40.4277L53.0204 42.738C53.1488 43.0375 53.3199 43.2515 53.4483 43.3798C53.5767 43.4654 53.7906 43.5082 54.0045 43.3798C54.2613 43.2515 54.4752 43.1659 54.6892 42.9948C54.8175 42.9092 54.9031 42.952 54.9459 43.0803L55.4166 44.1499C55.4594 44.2355 55.4166 44.3639 55.331 44.4922C55.117 44.7917 54.7747 45.0484 54.3041 45.2196C53.5339 45.5618 52.892 45.6046 52.3786 45.3479C51.8651 45.0912 51.4372 44.5778 51.1377 43.8504L49.9824 41.3262Z" fill="#A6CE39"/>
<path d="M56.1015 38.8874C56.1443 39.0158 56.1015 39.1442 55.9732 39.1869L54.9462 39.6576C54.8179 39.7004 54.6895 39.7004 54.6467 39.572C54.4328 39.1442 54.2188 38.7163 54.0049 38.2457L53.9621 38.1601C53.9193 38.0318 53.9621 37.9462 54.0477 37.8178C54.2188 37.6467 54.4756 37.4328 54.7751 37.2188C55.1174 37.0049 55.3741 36.8338 55.6309 36.7054C56.5722 36.2776 57.3424 36.192 57.8987 36.3632C58.4549 36.5771 58.9684 37.0905 59.3535 37.989L60.2948 40.1282C60.3804 40.2993 60.4232 40.3849 60.5088 40.4277C60.5943 40.4705 60.6799 40.4705 60.8083 40.4277L61.1934 40.2566C61.2789 40.2138 61.3645 40.2566 61.4073 40.3849L61.878 41.4545C61.9208 41.5829 61.9208 41.7112 61.878 41.7968C61.7496 41.9679 61.4929 42.1391 61.1078 42.3102C60.5515 42.5669 60.0381 42.6097 59.6102 42.4814C59.3107 42.952 58.8828 43.2943 58.3265 43.551C57.6419 43.8505 57.0429 43.936 56.4866 43.7649C55.9732 43.5938 55.5453 43.1659 55.2458 42.4814C54.9462 41.7968 54.9035 41.2406 55.0746 40.7272C55.2458 40.2566 55.6309 39.8715 56.2299 39.6148C56.7006 39.4009 57.1712 39.3153 57.5991 39.3581L57.4708 39.1014C57.2996 38.7163 57.0857 38.4596 56.8717 38.374C56.6578 38.2885 56.3583 38.3312 55.9304 38.5024C55.9304 38.5452 55.9732 38.588 55.9732 38.6735C56.016 38.7591 56.016 38.8019 56.016 38.8447C56.1015 38.8019 56.1015 38.8447 56.1015 38.8874ZM58.4977 41.2406L58.1126 40.3849C57.9414 40.4277 57.7275 40.5133 57.5136 40.5988C57.2568 40.7272 57.0857 40.8555 57.0429 40.9839C57.0001 41.1122 57.0001 41.3262 57.1285 41.5401C57.214 41.754 57.3424 41.8824 57.5136 41.9679C57.6847 42.0107 57.8559 42.0107 58.1126 41.8824C58.3693 41.754 58.5405 41.6684 58.7116 41.5401C58.6261 41.4973 58.5833 41.4117 58.4977 41.2406Z" fill="#A6CE39"/>
<path d="M63.0333 35.5073L64.4453 38.6734C64.7449 38.5878 65.0016 38.5023 65.13 38.4595C65.2583 38.4167 65.3867 38.4595 65.4295 38.5878L65.9429 39.7002C65.9857 39.8286 65.9429 39.9142 65.8574 39.9569L62.5626 41.4116C62.4343 41.4544 62.3487 41.4116 62.3059 41.3261L61.7924 40.2137C61.7497 40.0853 61.7496 39.9569 61.878 39.8714C62.0064 39.7858 62.1775 39.6575 62.4771 39.4863L61.1934 36.6197C61.1078 36.4486 61.065 36.363 60.9795 36.3203C60.8939 36.2775 60.8083 36.2775 60.6799 36.3203L60.2948 36.4914C60.2093 36.5342 60.1237 36.4914 60.0809 36.363L59.6102 35.2934C59.5674 35.1651 59.5674 35.0367 59.6102 34.9511C59.7814 34.78 60.0381 34.6089 60.3804 34.4377C60.9795 34.181 61.4929 34.1382 61.9636 34.3094C62.2631 33.796 62.7338 33.4109 63.3756 33.1114C63.7179 32.9831 64.0174 32.8547 64.3598 32.8119C64.5309 32.7691 64.6593 32.8547 64.7449 32.983L65.13 33.796C65.3439 34.2666 65.515 34.7372 65.6862 35.1651C65.729 35.2934 65.6862 35.379 65.5578 35.4646L64.5309 35.9352C64.4025 35.978 64.2742 35.978 64.1886 35.8496C63.9747 35.5501 63.8463 35.2934 63.7179 35.0367C63.4184 35.2506 63.1617 35.379 63.0333 35.5073Z" fill="#A6CE39"/>
<path d="M66.7558 33.8818L66.0712 34.1813C65.9001 34.2669 65.8145 34.2241 65.7289 34.053L65.1727 32.855C65.0871 32.6839 65.1299 32.5983 65.301 32.5127L65.9857 32.2132L65.3438 30.7585C65.2583 30.5874 65.301 30.459 65.4722 30.4163L67.0126 29.7317C67.1837 29.6461 67.2693 29.7317 67.3549 29.8601L67.9967 31.3147L69.1948 30.8013C69.366 30.7158 69.4515 30.7585 69.5371 30.9297L70.0934 32.1276C70.1789 32.256 70.0934 32.3844 69.965 32.4699L68.7669 32.9833L69.7938 35.2937C69.9222 35.5932 70.0934 35.8071 70.2217 35.9355C70.3501 36.021 70.564 36.0638 70.778 35.9355C71.0347 35.8499 71.2487 35.7216 71.4626 35.5504C71.591 35.4648 71.6765 35.5076 71.7193 35.636L72.19 36.7056C72.2328 36.7912 72.19 36.9195 72.1044 37.0479C71.8905 37.3474 71.5482 37.6041 71.0775 37.7752C70.3073 38.1175 69.6655 38.1603 69.152 37.9036C68.6386 37.6469 68.2535 37.1334 67.9111 36.4061L66.7558 33.8818Z" fill="#A6CE39"/>
<path d="M75.3562 30.9724L73.987 27.8491C73.8158 27.8919 73.7303 27.9347 73.6447 27.9347C73.5163 27.9775 73.388 27.9347 73.3452 27.8063L72.8317 26.6511C72.7889 26.5228 72.8317 26.4372 72.9173 26.3944L75.9981 25.0253C76.1264 24.9825 76.212 25.0253 76.2548 25.1109L76.7683 26.2661C76.811 26.3944 76.811 26.5228 76.6827 26.6084C76.4687 26.7795 76.2548 26.9079 76.0836 26.9934L77.4101 29.9883C78.0519 31.4002 78.3086 32.5554 78.1803 33.4539C78.0519 34.3524 77.4529 35.0369 76.3832 35.5076C75.2706 35.9782 74.3721 35.9782 73.6447 35.4648C72.9173 34.9514 72.2327 34.0101 71.5908 32.5554L70.2644 29.5605C70.0504 29.6461 69.8365 29.6889 69.5798 29.7316C69.4514 29.7744 69.323 29.7316 69.2802 29.6033L68.7668 28.4481C68.724 28.3197 68.7668 28.2342 68.8524 28.1914L71.9331 26.8223C72.0615 26.7795 72.1471 26.8223 72.1899 26.9079L72.7033 28.063C72.7461 28.1914 72.7461 28.3197 72.6178 28.4053C72.4894 28.4909 72.4038 28.5765 72.3182 28.6192L73.6875 31.7425C74.0726 32.5982 74.4149 33.1972 74.6716 33.4967C74.9283 33.7962 75.2279 33.8817 75.5274 33.7534C75.8269 33.625 75.9553 33.3255 75.9125 32.9405C75.9553 32.4699 75.7413 31.8281 75.3562 30.9724Z" fill="#A6CE39"/>
<path d="M81.4325 34.01L79.0791 28.7475C78.9936 28.5764 78.9508 28.4908 78.8652 28.448C78.7796 28.4052 78.694 28.4052 78.5657 28.448L78.1806 28.6191C78.095 28.6619 78.0094 28.6191 77.9666 28.4908L77.496 27.4212C77.4532 27.2928 77.4532 27.1645 77.496 27.0789C77.6671 26.9078 77.9238 26.7366 78.2662 26.5655C78.8652 26.3088 79.3787 26.266 79.8493 26.4371C80.0205 25.9665 80.3628 25.6242 80.919 25.3675C81.6037 25.068 82.3311 25.068 83.0157 25.4531C83.7431 25.7954 84.2993 26.4799 84.77 27.5067L84.984 27.9774C85.3691 28.8759 85.4974 29.6888 85.3263 30.4161C85.1551 31.1434 84.7272 31.6569 83.9998 31.9991C83.6575 32.1703 83.3152 32.2131 82.9301 32.2131L83.3152 33.1115C83.5719 33.026 83.7859 32.9832 84.0426 32.8976C84.171 32.8548 84.2993 32.8976 84.3421 33.026L84.8556 34.1384C84.8984 34.2667 84.8556 34.3523 84.77 34.3951L81.4325 35.8925C81.3041 35.9353 81.2186 35.8925 81.1758 35.807L80.6623 34.6946C80.6195 34.5662 80.6195 34.4379 80.7479 34.3523C81.0474 34.2239 81.2614 34.0956 81.4325 34.01ZM80.919 27.5067L82.3739 30.7156C82.545 30.6728 82.6734 30.63 82.8017 30.5872C83.4008 30.3305 83.4864 29.7315 83.0585 28.7903L82.9301 28.5336C82.4594 27.464 81.9032 27.0361 81.3469 27.2928C81.133 27.3356 81.0046 27.4212 80.919 27.5067Z" fill="#A6CE39"/>
<path d="M44.6355 29.4748L47.2884 35.4646C47.5451 35.379 47.8018 35.2935 48.0158 35.2507C48.1013 35.2507 48.1869 35.2507 48.2297 35.3362L48.4009 35.7213C48.4437 35.8069 48.4437 35.8924 48.3581 35.9352L46.0475 36.9621C45.9619 37.0048 45.9191 36.9621 45.8763 36.8765L45.7052 36.4914C45.6624 36.4059 45.7052 36.3203 45.7908 36.2775C45.9619 36.1492 46.1759 36.0208 46.4326 35.8924L43.7797 29.9026L42.6672 30.416C42.7956 30.8011 42.9239 31.1861 43.0523 31.614C43.0951 31.7423 43.0523 31.7851 42.9667 31.8279L42.5816 31.999C42.496 32.0418 42.4105 31.999 42.3677 31.9135C42.1537 31.5712 41.9398 31.0578 41.6403 30.4588L41.5119 30.1593C41.4691 30.0737 41.5119 29.9882 41.5975 29.9454L46.1759 27.9345C46.2614 27.8917 46.347 27.9345 46.3898 28.0201L46.6465 28.5335C46.8177 28.9186 46.9888 29.3464 47.16 29.817C47.2028 29.9026 47.16 29.9882 47.0744 30.031L46.6893 30.2021C46.6037 30.2449 46.5182 30.2021 46.4754 30.1165C46.3042 29.8598 46.0903 29.5175 45.8336 29.0469L44.6355 29.4748Z" fill="#A6CE39"/>
<path d="M53.5356 33.4966C53.1933 33.8389 52.7654 34.0956 52.252 34.3523C50.7116 35.0369 49.5563 34.4379 48.7005 32.5126L48.6149 32.2559C48.2298 31.4002 48.1015 30.6301 48.2726 29.9883C48.4438 29.3465 48.8717 28.9187 49.5135 28.6192C50.1553 28.3197 50.7544 28.3197 51.2678 28.5764C51.7813 28.8331 52.2092 29.3037 52.5087 29.9883C52.6799 30.3734 52.7226 30.7156 52.5943 31.0151C52.4659 31.2718 52.2092 31.5285 51.8241 31.6997L49.7702 32.5982C50.0697 33.1544 50.3693 33.4966 50.7544 33.625C51.0967 33.7961 51.5246 33.7533 52.038 33.5394C52.4659 33.3683 52.851 33.1544 53.2361 32.8977C53.3217 32.8121 53.4073 32.8549 53.45 32.9404L53.6212 33.3255C53.6212 33.3683 53.6212 33.4111 53.5356 33.4966ZM49.4279 31.828L51.5673 30.8868C51.6529 30.844 51.7385 30.8012 51.7385 30.7156C51.7385 30.6301 51.7385 30.5017 51.6529 30.3734C51.439 29.9027 51.1823 29.5605 50.8827 29.3893C50.5832 29.2182 50.2409 29.2182 49.8558 29.3893C49 29.7316 48.8717 30.5445 49.4279 31.828Z" fill="#A6CE39"/>
<path d="M53.7491 30.4162L53.5779 30.0311C53.1928 29.1754 53.1072 28.4481 53.2784 27.8063C53.4495 27.1645 53.8774 26.6511 54.6476 26.3516C55.1611 26.1377 55.6318 26.0093 56.0596 25.9666C56.1452 25.9666 56.2308 26.0093 56.2736 26.0521L56.4448 26.3944C56.5731 26.6511 56.7015 26.9934 56.8726 27.464C56.9154 27.5496 56.8726 27.6352 56.7871 27.6779L56.4448 27.8491C56.3592 27.8919 56.2736 27.8491 56.2308 27.7635C56.1024 27.5924 55.9313 27.2929 55.6746 26.8222C55.4178 26.9078 55.2467 26.9934 55.1183 27.0362C54.6048 27.2501 54.3053 27.5924 54.2197 28.0202C54.1342 28.4481 54.2197 29.0043 54.5193 29.6888L54.6476 29.9883C55.2467 31.3146 56.0597 31.7425 57.0438 31.3146C57.3861 31.1863 57.7712 30.9724 58.1991 30.6729C58.2847 30.6301 58.3702 30.6301 58.413 30.7584L58.5842 31.1435C58.627 31.2291 58.5842 31.2718 58.5414 31.3574C58.2419 31.6569 57.814 31.9564 57.3005 32.1703C56.5303 32.5126 55.8457 32.5126 55.2467 32.2131C54.6048 31.828 54.1342 31.2718 53.7491 30.4162Z" fill="#A6CE39"/>
<path d="M58.7561 25.4958L60.596 29.6031C60.8955 29.4747 61.1095 29.432 61.3234 29.3892C61.409 29.3892 61.4946 29.3892 61.5374 29.4747L61.7085 29.8598C61.7513 29.9454 61.7513 30.031 61.6657 30.0737L59.3979 31.1006C59.3123 31.1433 59.2696 31.1006 59.2268 31.015L59.0556 30.6299C59.0128 30.5444 59.0556 30.4588 59.1412 30.416C59.3123 30.2877 59.5263 30.1593 59.783 30.0309L56.959 23.656C56.6595 23.7844 56.4455 23.8272 56.2316 23.87C56.146 23.87 56.0604 23.87 56.0176 23.7844L55.8465 23.3993C55.8037 23.3138 55.8037 23.2282 55.8893 23.1854L57.3013 22.5436C57.3869 22.5009 57.4724 22.5436 57.5152 22.6292L58.5421 24.9396C58.8417 24.5973 59.2268 24.3406 59.7402 24.1267C60.8955 23.6133 61.7941 24.0411 62.4359 25.453L63.5484 27.9773C63.6768 28.234 63.8479 28.3196 64.0619 28.234L64.447 28.0629C64.5326 28.0201 64.5753 28.0629 64.6181 28.1484L64.7893 28.5335C64.8321 28.6191 64.7893 28.7046 64.6609 28.7902C64.4898 28.9186 64.3186 29.0041 64.1902 29.0897C63.5056 29.3892 63.035 29.218 62.7782 28.5763L61.6229 25.9664C61.3662 25.453 61.1095 25.1107 60.8527 24.9396C60.596 24.8112 60.2109 24.8112 59.783 25.0251C59.3551 25.1107 59.0556 25.2819 58.7561 25.4958Z" fill="#A6CE39"/>
<path d="M44.7628 59.5523L44.72 59.4239C44.4632 58.7822 44.2493 58.3115 44.1209 57.9265C44.0781 57.8409 44.1209 57.7553 44.2065 57.7125L44.5916 57.5414C44.6772 57.4986 44.7628 57.5414 44.8055 57.627C44.8483 57.6698 44.9339 57.8409 45.0623 58.0976C45.2334 58.3543 45.319 58.5682 45.4046 58.6966C45.8325 58.5682 46.2176 58.3971 46.6455 58.226C47.0306 58.0548 47.2873 57.8409 47.4156 57.5414C47.544 57.2847 47.5012 56.9424 47.3301 56.5574C47.0306 55.8728 46.6027 55.5305 46.0036 55.5305L44.2065 55.445C43.3507 55.4022 42.7089 54.9315 42.3238 53.9475C41.7676 52.7067 42.1527 51.8083 43.4363 51.2093C43.9926 50.9526 44.6344 50.7814 45.2762 50.6531C45.3618 50.6531 45.4474 50.6531 45.4474 50.7386L45.4902 50.867C45.7469 51.5088 45.9608 51.9794 46.0892 52.3645C46.132 52.45 46.0892 52.5356 46.0036 52.5784L45.6185 52.7495C45.533 52.7923 45.4474 52.7495 45.4046 52.664C45.2762 52.4072 45.0623 52.065 44.8055 51.6371C44.4632 51.7655 44.1637 51.8938 43.8214 52.0222C43.4363 52.1933 43.2224 52.4072 43.094 52.6212C43.0084 52.8779 43.0084 53.1774 43.1796 53.5624C43.4363 54.1614 43.8642 54.5037 44.4632 54.5037L46.2604 54.5893C46.6882 54.5893 47.0733 54.7604 47.4156 55.0599C47.758 55.3594 48.0147 55.7017 48.2286 56.1723C48.5282 56.8141 48.5709 57.3703 48.3998 57.8409C48.2286 58.3115 47.758 58.6966 47.0306 59.0389C46.3031 59.3384 45.6185 59.5951 44.9339 59.7234C44.8911 59.6806 44.8055 59.6378 44.7628 59.5523Z" fill="#A6CE39"/>
<path d="M48.6993 54.9745L48.5281 54.5894C48.143 53.7338 48.0574 53.0064 48.2286 52.3646C48.3997 51.7229 48.8276 51.2095 49.5978 50.91C50.1113 50.696 50.582 50.5677 51.0098 50.5249C51.0954 50.5249 51.181 50.5249 51.2238 50.6105L51.3949 50.9527C51.5233 51.2095 51.6517 51.5517 51.8228 52.0224C51.8656 52.1079 51.8228 52.1935 51.7373 52.2363L51.3949 52.4074C51.3094 52.4502 51.2238 52.4074 51.181 52.3219C51.0526 52.1507 50.8815 51.8512 50.6247 51.3806C50.368 51.4662 50.1969 51.5517 50.0685 51.5945C49.555 51.8084 49.2555 52.1507 49.1699 52.5786C49.0844 53.0064 49.1699 53.5626 49.4695 54.2472L49.5978 54.5467C50.1969 55.873 51.0098 56.3008 51.994 55.873C52.3363 55.7446 52.7214 55.5307 53.1493 55.2312C53.2349 55.1884 53.2776 55.1884 53.3632 55.3168L53.5344 55.7018C53.5772 55.7874 53.5344 55.8302 53.4916 55.9158C53.1921 56.2153 52.7642 56.5148 52.2507 56.7287C51.4805 57.071 50.7959 57.0709 50.1969 56.7715C49.555 56.3864 49.0844 55.7874 48.6993 54.9745Z" fill="#A6CE39"/>
<path d="M53.7053 50.0114L55.5452 54.1187C55.8447 53.9904 56.0587 53.9476 56.2726 53.9048C56.3582 53.9048 56.4438 53.9048 56.4866 53.9904L56.6577 54.3754C56.7005 54.461 56.7005 54.5466 56.6149 54.5894L54.3471 55.6162C54.2616 55.659 54.2188 55.6162 54.176 55.5306L54.0048 55.1456C53.962 55.06 54.0048 54.9744 54.0904 54.9316C54.2616 54.8033 54.4755 54.6749 54.7322 54.5466L51.9082 48.1717C51.6087 48.3 51.3947 48.3428 51.1808 48.3856C51.0952 48.3856 51.0096 48.3856 50.9668 48.3L50.7957 47.915C50.7529 47.8294 50.7529 47.7438 50.8385 47.701L52.2505 47.0593C52.3361 47.0165 52.4217 47.0593 52.4644 47.1448L53.4914 49.4552C53.7909 49.1129 54.176 48.8562 54.6894 48.6423C55.8447 48.1289 56.7433 48.5567 57.3851 49.9686L58.4976 52.4929C58.626 52.7496 58.7972 52.8352 59.0111 52.7496L59.3962 52.5785C59.4818 52.5357 59.5246 52.5785 59.5674 52.6641L59.7385 53.0491C59.7813 53.1347 59.7385 53.2203 59.6101 53.3058C59.439 53.4342 59.2678 53.5197 59.1395 53.6053C58.4549 53.9048 57.9842 53.7337 57.7274 53.0919L56.5722 50.482C56.3154 49.9686 56.0587 49.6263 55.802 49.4552C55.5452 49.3268 55.1601 49.3269 54.7322 49.5408C54.3044 49.6691 54.0048 49.8403 53.7053 50.0114Z" fill="#A6CE39"/>
<path d="M58.9685 50.3963L58.7973 50.0113C58.3694 49.07 58.2411 48.2571 58.4122 47.7009C58.5834 47.1019 59.0113 46.6741 59.6959 46.3746C60.3805 46.0751 60.9795 46.0323 61.5358 46.3318C62.092 46.5885 62.5627 47.1875 62.9906 48.1715L63.1618 48.5566C63.5896 49.4979 63.718 50.3108 63.5469 50.867C63.3757 51.466 62.9478 51.8938 62.2632 52.1933C61.5786 52.4928 60.9795 52.5356 60.4233 52.2361C59.9098 51.9366 59.3964 51.3376 58.9685 50.3963ZM59.6959 49.669L59.8242 49.9257C60.1238 50.6531 60.4661 51.1237 60.8084 51.3376C61.1507 51.5515 61.5358 51.5943 61.9637 51.3804C62.3916 51.2093 62.6483 50.9098 62.6911 50.4819C62.7767 50.0541 62.6483 49.4979 62.306 48.8133L62.1776 48.5566C61.8781 47.8293 61.5358 47.3586 61.1935 47.1447C60.8512 46.9308 60.4661 46.888 60.0382 47.1019C59.6103 47.2731 59.3964 47.5726 59.3108 48.0004C59.268 48.3855 59.3964 48.9845 59.6959 49.669Z" fill="#A6CE39"/>
<path d="M64.1032 48.0862L63.9321 47.7011C63.5042 46.7599 63.3758 45.947 63.547 45.3908C63.7181 44.7918 64.146 44.3639 64.8306 44.0644C65.5153 43.7649 66.1143 43.7222 66.6706 43.9789C67.2268 44.2356 67.6975 44.8346 68.1254 45.8186L68.2965 46.2037C68.7244 47.1449 68.8528 47.915 68.6816 48.514C68.5105 49.113 68.0826 49.5409 67.398 49.8404C66.7133 50.1398 66.1143 50.1826 65.5581 49.9259C65.0446 49.6692 64.5311 49.0702 64.1032 48.0862ZM64.8306 47.4016L64.959 47.6583C65.2585 48.3857 65.6008 48.8563 65.9431 49.0702C66.2855 49.2842 66.6706 49.3269 67.0984 49.113C67.5263 48.9419 67.7403 48.6424 67.8258 48.2145C67.9114 47.7867 67.7831 47.2305 67.4408 46.5459L67.3124 46.2892C67.0129 45.5619 66.6706 45.0913 66.3282 44.8773C65.9859 44.6634 65.6008 44.6206 65.173 44.8346C64.7451 45.0057 64.4883 45.3052 64.4455 45.733C64.4028 46.1181 64.5311 46.6743 64.8306 47.4016Z" fill="#A6CE39"/>
<path d="M70.2646 47.4871L67.4834 41.1978C67.1839 41.3261 66.9699 41.3689 66.756 41.4117C66.6704 41.4117 66.5848 41.4117 66.542 41.3261L66.3709 40.9411C66.3281 40.8555 66.3281 40.7699 66.4137 40.7272L67.8257 40.0854C67.9113 40.0426 67.9968 40.0854 68.0396 40.171L70.9921 46.8454C71.1204 47.1021 71.2916 47.1876 71.5055 47.1021L71.8906 46.9309C71.9762 46.8881 72.019 46.9309 72.0618 47.0165L72.2329 47.4016C72.2757 47.4871 72.2329 47.5727 72.1046 47.6583C71.9334 47.7866 71.7622 47.8722 71.6339 47.9578C70.9921 48.3 70.5214 48.1289 70.2646 47.4871Z" fill="#A6CE39"/>
<path d="M34.579 48.4712L32.5252 48.1289L31.541 49.8831L33.5093 50.2681L34.579 48.4712Z" fill="#CDDC29"/>
<path d="M31.5412 49.8831L33.5095 50.2681L35.221 53.9904L29.958 53.0491L31.5412 49.8831Z" fill="#00AE4D"/>
<path d="M31.5416 49.8831L29.9584 53.0492L28.2041 49.3269L31.5416 49.8831Z" fill="#50B848"/>
<path d="M34.5795 48.4712L37.9598 49.3269L35.2213 53.9904L33.5098 50.2681L34.5795 48.4712Z" fill="#62BB46"/>
<path d="M36.2916 45.6475L34.5801 48.4712L37.9604 49.3269L36.2916 45.6475Z" fill="#8DC63F"/>
</svg>
