<svg width="98" height="36" viewBox="0 0 98 36" fill="none" xmlns="http://www.w3.org/2000/svg">
<path d="M3.26716 9.07416V3.50391H11.8239V9.07305L18.63 9.07527V15.8675H11.8383V28.4674H19.1104V35.2463H3.26716V15.8652H0V9.07084H3.26716V9.07416Z" fill="white"/>
<path d="M82.1237 9.07416V3.50391H90.6805V9.07305L97.4866 9.07527V15.8675H90.6949V28.4674H97.9669V35.2463H82.1226V15.8652H78.8555V9.07084H82.1226L82.1237 9.07416Z" fill="white"/>
<path d="M38.5235 17.1271H46.8306C46.8306 17.1271 46.256 13.8153 43.2462 11.3515C40.2364 8.88768 36.7884 8.17628 33.3959 8.28615C30.0034 8.39602 25.9563 9.11964 23.5734 12.9663C21.2681 16.6865 23.306 20.1137 24.2801 21.0914C25.5348 22.35 27.048 23.8327 32.2466 24.9825C37.4452 26.1323 37.7458 26.6517 38.0199 26.9813C38.2939 27.3098 38.3205 27.8459 38.2018 28.1444C38.0831 28.443 37.8357 28.8592 37.1213 29.1266C36.4068 29.3941 35.1876 29.4729 34.553 29.454C33.9184 29.4352 33.2251 29.4241 32.352 29.0878C31.48 28.7504 30.2497 27.877 29.9624 26.6872H21.3945C21.3945 26.6872 21.8616 29.7226 24.2701 32.1121C26.6797 34.5027 29.2978 35.415 31.7263 35.7923C34.1547 36.1696 37.6748 36.0109 39.5797 35.4948C41.4845 34.9799 43.873 34.1952 45.7967 31.5372C47.7204 28.8791 46.9959 25.735 46.6398 24.8316C46.2826 23.9282 45.3907 22.0337 42.7536 20.744C40.1166 19.4544 35.3274 18.4833 35.0689 18.4223C34.8104 18.3635 32.7591 17.9262 32.1234 17.48C31.4878 17.0339 31.4434 16.6021 31.4833 16.0861C31.5233 15.5711 32.0014 15.0617 32.5894 14.8608C33.255 14.6344 34.0771 14.5034 35.1077 14.6133C36.1394 14.7243 37.808 15.0817 38.5235 17.1293V17.1271Z" fill="white"/>
<path d="M50.207 0H58.7749V18.3811H61.5528L67.3294 9.06625H76.3787L68.8315 21.4054L77.1475 35.235H67.8486L62.0342 25.6727H58.7815V35.235H50.207V0Z" fill="white"/>
</svg>
