<svg width="154" height="100" viewBox="0 0 154 100" fill="none" xmlns="http://www.w3.org/2000/svg">
<g clip-path="url(#clip0_1503_815)">
<path fill-rule="evenodd" clip-rule="evenodd" d="M124.122 96.5106C125.363 96.5106 126.292 96.4618 126.912 96.3675C127.552 96.2504 128.009 96.039 128.278 95.7334C128.57 95.4244 128.714 94.9431 128.714 94.2927V86.5919C128.714 85.7073 128.357 85.0927 127.641 84.7447C126.945 84.3805 125.819 84.1984 124.27 84.1984H120.814V96.5171H124.126L124.122 96.5106ZM116.281 80.9919H124.3C126.505 80.9919 128.248 81.1675 129.528 81.5122C130.805 81.8374 131.747 82.4163 132.348 83.2423C132.948 84.0683 133.25 85.213 133.25 86.6732V94.2894C133.25 95.7138 132.968 96.8163 132.407 97.6065C131.846 98.3773 130.927 98.9236 129.646 99.2521C128.37 99.561 126.597 99.7138 124.333 99.7138H116.285V80.9919H116.281ZM107.482 88.9821C107.094 89.252 106.369 89.3854 105.302 89.3854H101.409V84.1951H105.302C106.31 84.1951 107.016 84.3285 107.423 84.5984C107.849 84.8488 108.059 85.3203 108.059 86.013V87.3399C108.059 88.1464 107.866 88.6959 107.478 88.9854L107.482 88.9821ZM105.361 80.9919H96.88V99.7138H101.409V92.3577H103.5L108.44 99.7138H113.669L108.21 92.013C109.507 91.8374 110.544 91.4439 111.319 90.8293C112.113 90.1951 112.51 89.3301 112.51 88.2342V84.9464C112.51 83.522 111.949 82.5138 110.823 81.9187C109.7 81.3041 107.882 80.9951 105.361 80.9951V80.9919ZM88.2871 80.9919H92.8166V99.7138H88.2871V80.9919ZM79.9569 96.1366C79.4941 96.387 78.7096 96.5106 77.6035 96.5106H74.3803V91.522H78.214C79.1232 91.522 79.7534 91.6651 80.1013 91.9545C80.4689 92.2439 80.6527 92.735 80.6527 93.4244V94.9236C80.6527 95.4797 80.4196 95.8862 79.9569 96.1366ZM79.0838 88.4358C78.7359 88.5529 78.2041 88.6081 77.4853 88.6081H74.3771V84.1951H77.3967C78.1713 84.1951 78.7326 84.2439 79.0805 84.3382C79.4481 84.4358 79.691 84.5984 79.8059 84.8293C79.9207 85.0407 79.9798 85.3691 79.9798 85.8114V86.735C79.9798 87.2358 79.9109 87.6195 79.7763 87.8895C79.6582 88.1399 79.4284 88.322 79.0805 88.4358H79.0838ZM77.4853 80.9919H69.8476V99.7138H77.6921C80.249 99.7138 82.1363 99.3951 83.3572 98.761C84.5749 98.1268 85.1854 97.0504 85.1854 95.5317V92.6472C85.1854 91.974 84.8769 91.3691 84.2566 90.8293C83.6559 90.2732 82.9896 89.9545 82.2511 89.8764V89.7333C82.8124 89.561 83.2949 89.2423 83.7052 88.7805C84.1318 88.3187 84.3452 87.8277 84.3452 87.3073V85.0016C84.3452 83.9838 84.1417 83.1935 83.7347 82.6374C83.3277 82.0618 82.6319 81.6455 81.6439 81.3951C80.6757 81.1252 79.2906 80.9919 77.4886 80.9919H77.4853ZM58.8685 89.3854C59.9353 89.3854 60.6606 89.252 61.0479 88.9821C61.4352 88.6927 61.6289 88.1464 61.6289 87.3366V86.0098C61.6289 85.3171 61.4156 84.8455 60.9889 84.5951C60.5819 84.3252 59.8762 84.1919 58.8685 84.1919H54.9791V89.3821H58.8685V89.3854ZM50.4464 80.9919H58.9276C61.4451 80.9919 63.2634 81.3008 64.3893 81.9155C65.5118 82.5106 66.073 83.522 66.073 84.9431V88.2309C66.073 89.3268 65.6759 90.1919 64.8816 90.826C64.107 91.4407 63.0698 91.8342 61.7733 92.0098L67.2349 99.7106H62.0064L57.0699 92.3545H54.9791V99.7106H50.4464V80.9886V80.9919ZM38.7124 84.7415L41.092 91.7789H36.2113L38.5942 84.7415H38.7091H38.7124ZM41.5581 80.9919H36.0374L29.0659 99.7138H33.5396L35.1939 94.7805H42.08L43.7637 99.7138H48.3523L41.5548 80.9919H41.5581ZM7.36057 80.9919H2.65386L8.49294 99.7138H12.9666L16.6821 86.1268L20.286 99.7138H24.7564L30.7989 80.9919H26.2104L22.8396 94.6667L18.8877 80.9919H14.6767L11.017 94.6667L7.35729 80.9919H7.36057ZM136.323 99.4829C138.975 99.8309 141.203 100.003 143.002 100.003C144.318 100.003 145.441 99.9187 146.369 99.7431C147.318 99.5903 148.181 99.3106 148.953 98.9073C150.561 98.1171 151.365 96.6081 151.365 94.3772V93.135C151.365 91.5187 150.879 90.3187 149.911 89.5285C148.943 88.7382 147.384 88.3447 145.234 88.3447H142.969C141.305 88.3447 140.471 87.8537 140.471 86.8748V85.548C140.471 84.9724 140.754 84.5496 141.315 84.2797C141.837 84.0293 142.864 83.9057 144.394 83.9057C145.496 83.9057 147.512 84.0781 150.436 84.426V81.0797C148.056 80.8293 146.087 80.7025 144.541 80.7025C141.558 80.7025 139.378 81.0862 138.003 81.8569C136.628 82.6244 135.942 83.8277 135.942 85.4634V86.8488C135.942 90.1203 138.013 91.7529 142.158 91.7529H144.367C145.299 91.7529 145.936 91.9155 146.284 92.2407C146.652 92.5691 146.835 93.0407 146.835 93.6553V94.8683C146.835 96.1561 145.575 96.8 143.058 96.8C141.856 96.8 139.611 96.5496 136.319 96.0488V99.4829H136.323ZM149.044 4.4L149.829 0.0747968L149.901 0.409756C151.959 10 154.673 22.6472 153.177 22.6341L90.9457 57.0829C83.2063 60.8585 70.4745 60.709 62.6956 57.0829L0.431791 22.6472C-1.04521 22.6472 1.57729 10.3252 3.6254 0.715447C3.67791 0.474797 3.72715 0.237398 3.77638 0L4.56083 4.3252L4.05209 9.67155L5.8967 5.83415L57.3423 25.0894L57.9331 28.7642L67.9144 30.9268C70.5073 31.4407 73.1298 31.7626 75.7622 31.8894C75.1878 31.1382 74.7873 30.2504 74.5904 29.3008C74.3968 28.3512 74.4165 27.3626 74.6462 26.4228C75.4044 22.439 77.4821 20.8228 77.5937 21.0764C76.7665 22.2309 77.3934 23.5285 78.0794 24.9463C78.6899 26.2049 79.3431 27.561 79.0772 28.9984C78.9426 30.039 78.5783 31.0276 78.0171 31.8862C80.5969 31.7463 83.1603 31.4244 85.7007 30.9236L95.682 28.761L96.2761 25.0862L147.722 5.8309L149.566 9.73984L149.044 4.3935V4.4Z" fill="#777548"/>
</g>
<defs>
<clipPath id="clip0_1503_815">
<rect width="153.608" height="100" fill="white"/>
</clipPath>
</defs>
</svg>
