<svg width="372" height="198" viewBox="0 0 372 198" fill="none" xmlns="http://www.w3.org/2000/svg">
<g clip-path="url(#clip0_1503_1050)">
<path fill-rule="evenodd" clip-rule="evenodd" d="M217.709 108.649C217.709 111.819 217.098 114.616 215.89 117.042C214.668 119.475 213.037 121.475 210.976 123.043C208.54 124.935 205.922 126.266 203.149 127.064C200.371 127.848 196.773 128.24 192.369 128.24H173.816V64.4475H190.973C195.585 64.4475 199.035 64.5962 201.337 64.8935C203.64 65.1908 205.855 65.8936 207.969 67.0154C210.285 68.2385 211.983 69.8469 213.044 71.8268C214.118 73.8068 214.655 76.145 214.655 78.8142C214.655 81.8214 213.849 84.5042 212.238 86.8626C210.634 89.2345 208.405 91.0929 205.566 92.4241V92.7688C209.419 93.8027 212.406 95.6813 214.52 98.4114C216.641 101.141 217.695 104.541 217.695 108.636L217.709 108.649ZM205.7 80.0306C205.7 78.4764 205.438 77.1519 204.908 76.0098C204.398 74.8948 203.552 73.996 202.398 73.3406C201.002 72.5702 199.451 72.0972 197.739 71.9215C196.034 71.7593 193.672 71.6714 190.658 71.6714H182.395V90.3495H192.181C194.873 90.3495 196.867 90.2144 198.135 89.9373C199.411 89.6603 200.726 89.1061 202.089 88.2479C203.398 87.4302 204.324 86.3355 204.875 84.9975C205.425 83.6527 205.7 81.9903 205.7 80.0306ZM208.761 108.994C208.761 106.588 208.405 104.608 207.707 103.04C207.009 101.486 205.606 100.162 203.499 99.0804C202.129 98.3573 200.646 97.9046 199.042 97.7018C197.431 97.5059 195.148 97.4045 192.188 97.4045H182.395V121.022H189.409C193.175 121.022 196.148 120.847 198.323 120.502C200.498 120.157 202.418 119.434 204.062 118.313C205.687 117.198 206.868 115.927 207.627 114.515C208.385 113.096 208.768 111.258 208.768 109.001L208.761 108.994Z" fill="white"/>
<path fill-rule="evenodd" clip-rule="evenodd" d="M226.289 128.24V64.4475H266.818V71.989H234.874V89.471H264.644V97.0261H234.874V120.691H266.818V128.24H226.289Z" fill="white"/>
<path fill-rule="evenodd" clip-rule="evenodd" d="M296.238 129.514C291.539 129.514 287.559 129.028 284.27 128.088C280.981 127.136 277.893 125.946 275 124.554V113.938H275.611C278.443 116.56 281.652 118.587 285.25 120.027C288.834 121.466 292.305 122.182 295.634 122.182C300.373 122.182 303.964 121.216 306.401 119.256C308.83 117.296 310.045 114.715 310.045 111.525C310.045 108.978 309.401 106.917 308.132 105.315C306.864 103.714 304.837 102.531 302.051 101.754C300.057 101.186 298.232 100.72 296.58 100.348C294.929 99.9766 292.855 99.4766 290.365 98.8549C288.136 98.2805 286.129 97.5506 284.364 96.6654C282.605 95.7801 281.041 94.6246 279.672 93.1987C278.336 91.7931 277.302 90.1578 276.564 88.2454C275.819 86.36 275.456 84.1705 275.456 81.6837C275.456 76.5141 277.497 72.1825 281.592 68.682C285.666 65.1951 290.881 63.4448 297.218 63.4448C300.843 63.4448 304.259 63.803 307.495 64.5193C310.717 65.2356 313.71 66.2492 316.456 67.5602V77.7305H315.805C313.757 75.8654 311.119 74.2503 307.904 72.8582C304.689 71.4729 301.313 70.7836 297.789 70.7836C293.795 70.7836 290.573 71.7027 288.103 73.534C285.639 75.3788 284.417 77.798 284.417 80.7917C284.417 83.4947 285.142 85.6504 286.586 87.252C288.035 88.8535 290.136 90.0294 292.882 90.766C294.714 91.2457 296.936 91.7999 299.574 92.4148C302.212 93.023 304.394 93.5974 306.139 94.111C310.596 95.4558 313.858 97.483 315.905 100.193C317.966 102.909 318.993 106.248 318.993 110.214C318.993 112.688 318.476 115.154 317.456 117.574C316.422 120.006 314.979 122.067 313.126 123.75C311.045 125.602 308.689 127.034 306.072 128.034C303.454 129.034 300.171 129.528 296.238 129.528V129.514Z" fill="white"/>
<path fill-rule="evenodd" clip-rule="evenodd" d="M340.937 128.24V71.989H319.195V64.4475H371.27V71.989H349.529V128.24H340.937Z" fill="white"/>
<path d="M336.634 153.946H327.156V136.795H329.331V151.919H336.634V153.946ZM350.193 136.795L344.568 153.946H342.226L336.601 136.795H338.93L343.454 151.006L347.971 136.795H350.2H350.193ZM357.469 153.946H351.119V152.196H353.207V138.545H351.119V136.795H357.469V138.545H355.382V152.196H357.469V153.946ZM371.995 136.795L366.37 153.946H364.021L358.402 136.795H360.732L365.256 151.006L369.773 136.795H371.988H371.995Z" fill="white"/>
<path fill-rule="evenodd" clip-rule="evenodd" d="M141.523 128.321L127.273 119.705H90.0529L75.7891 128.321C89.4286 153.175 130.213 193.863 174.387 197.384C158.996 188.342 134.496 155.845 141.53 128.321H141.523Z" fill="white"/>
<path fill-rule="evenodd" clip-rule="evenodd" d="M151.585 0C151.82 18.5092 137.24 56.9939 110.995 64.38V81.6458L129.615 115.447L143.859 124.084C157.566 99.2629 170.775 41.8906 151.585 0.00675764V0Z" fill="white"/>
<path fill-rule="evenodd" clip-rule="evenodd" d="M106.324 64.3733C78.9913 64.3396 24.9902 81.0242 0 119.387C15.17 109.933 54.2427 103.919 73.4603 124.077L87.7039 115.441L106.317 81.6391L106.331 64.3733H106.324Z" fill="white"/>
<path fill-rule="evenodd" clip-rule="evenodd" d="M99.9258 105.581C99.9258 100.54 103.832 96.4517 108.652 96.4517C113.471 96.4517 117.378 100.54 117.378 105.581C117.378 110.622 113.471 114.738 108.652 114.738C103.832 114.738 99.9258 110.649 99.9258 105.581Z" fill="white"/>
</g>
<defs>
<clipPath id="clip0_1503_1050">
<rect width="372" height="197.384" fill="white"/>
</clipPath>
</defs>
</svg>
