<svg width="966" height="1139" viewBox="0 0 966 1139" fill="none" xmlns="http://www.w3.org/2000/svg">
<g opacity="0.65">
<path d="M574.467 221.218C605.826 252.239 621.585 303.88 625.174 366.383C628.761 428.869 620.179 502.122 602.95 576.26C568.488 724.556 499.465 876.255 424.22 952.322C386.628 990.324 330.864 1019.58 266.355 1040.12C201.852 1060.67 128.642 1072.5 56.1969 1075.68C-16.2486 1078.86 -87.9125 1073.39 -149.323 1059.35C-210.746 1045.3 -261.855 1022.69 -293.249 991.638C-324.61 960.615 -333.36 924.072 -326.496 884.284C-319.626 844.463 -297.113 801.392 -265.92 757.404C-214.024 684.219 -138.208 608.636 -70.7989 541.433C-57.1734 527.85 -43.8914 514.608 -31.2197 501.798C44.0971 425.66 164.169 324.395 281.138 257.742C339.624 224.414 397.302 199.759 448.201 191.21C499.097 182.66 543.134 190.223 574.467 221.218Z" stroke="#C47600"/>
<path d="M-79.8148 904.012C-51.2915 881.076 -22.125 805.123 -41.8187 780.632C-61.5124 756.14 -122.609 792.384 -151.132 815.32C-179.655 838.255 -224.145 869.823 -204.452 894.315C-184.758 918.806 -108.338 926.947 -79.8148 904.012Z" stroke="#D5AD70"/>
<path d="M-53.7543 910.444C-18.117 881.435 18.2237 786.223 -6.45881 755.9C-31.1413 725.577 -107.5 771.626 -143.137 800.635C-178.775 829.643 -234.369 869.638 -209.686 899.961C-185.004 930.283 -89.3916 939.452 -53.7543 910.444Z" stroke="#D4AA6A"/>
<path d="M-27.6218 916.449C15.0576 881.282 58.343 766.722 28.6015 730.627C-1.14001 694.532 -92.6458 750.571 -135.325 785.738C-178.005 820.904 -244.603 869.459 -214.862 905.554C-185.12 941.649 -70.3013 951.616 -27.6218 916.449Z" stroke="#D3A764"/>
<path d="M-1.41339 922.026C48.2356 880.616 98.2353 746.622 63.365 704.815C28.4948 663.007 -78.0407 729.217 -127.69 770.627C-177.339 812.038 -254.841 869.286 -219.971 911.093C-185.101 952.901 -51.0624 963.437 -1.41339 922.026Z" stroke="#D2A45E"/>
<path d="M24.8633 927.176C81.4084 879.438 137.891 725.927 97.8232 678.468C57.755 631.008 -63.6913 707.57 -120.236 755.309C-176.781 803.047 -265.086 869.12 -225.018 916.58C-184.95 964.039 -31.6818 974.914 24.8633 927.176Z" stroke="#D1A158"/>
<path d="M51.2043 931.896C114.571 877.746 177.306 704.637 131.971 651.586C86.6363 598.535 -49.6002 685.63 -112.967 739.78C-176.334 793.93 -275.338 868.959 -230.003 922.01C-184.668 975.061 -12.1628 986.046 51.2043 931.896Z" stroke="#D09E53"/>
<path d="M77.6059 936.187C147.72 875.542 216.473 682.755 165.804 624.174C115.134 565.592 -35.7702 663.4 -105.884 724.045C-175.999 784.69 -285.596 868.804 -234.927 927.385C-184.257 985.966 7.4917 996.831 77.6059 936.187Z" stroke="#CF9B4D"/>
<path d="M104.064 940.048C180.85 872.826 255.389 660.284 199.317 596.235C143.245 532.185 -22.2038 640.884 -98.9894 708.105C-175.775 775.327 -295.862 868.656 -239.79 932.705C-183.718 996.755 27.2785 1007.27 104.064 940.048Z" stroke="#CF9847"/>
<path d="M130.575 943.478C213.956 869.598 294.046 637.224 232.505 567.77C170.964 498.315 -8.90358 618.081 -92.2843 691.962C-175.665 765.842 -306.134 868.514 -244.593 937.968C-183.052 1007.42 47.1945 1017.36 130.575 943.478Z" stroke="#CE9541"/>
<path d="M157.135 946.478C247.034 865.858 332.441 613.58 265.365 538.784C198.288 463.987 4.12786 594.997 -85.7708 675.617C-175.669 756.237 -316.413 868.379 -249.336 943.175C-182.26 1017.97 67.2367 1027.1 157.135 946.478Z" stroke="#CD933B"/>
<path d="M183.74 949.045C280.079 861.605 370.568 589.352 297.89 509.277C225.212 429.203 16.8879 571.631 -79.4508 659.071C-175.789 746.512 -326.698 868.25 -254.02 948.324C-181.342 1028.4 87.4018 1036.49 183.74 949.045Z" stroke="#CC9035"/>
<path d="M210.387 951.182C313.087 856.841 408.422 564.544 330.076 479.256C251.731 393.968 29.3741 547.988 -73.326 642.328C-176.026 736.668 -336.991 868.128 -258.646 953.416C-180.3 1038.7 107.687 1045.52 210.387 951.182Z" stroke="#CB8D2F"/>
<path d="M237.071 952.884C346.053 851.565 445.996 539.156 361.92 448.72C277.843 358.284 41.584 524.068 -67.3984 625.387C-176.381 726.706 -347.289 868.012 -263.213 958.448C-179.136 1048.88 128.088 1054.2 237.071 952.884Z" stroke="#CA8A29"/>
<path d="M263.784 954.155C378.969 845.778 483.284 513.193 393.411 417.674C303.538 322.156 53.511 499.875 -61.6736 608.251C-176.858 716.627 -357.599 867.902 -267.726 963.421C-177.853 1058.94 148.6 1062.53 263.784 954.155Z" stroke="#C98723"/>
<path d="M290.531 954.993C411.837 839.482 520.286 486.657 424.554 386.122C328.821 285.587 65.1606 475.413 -56.1454 590.923C-177.451 706.434 -367.91 867.8 -272.178 968.335C-176.446 1068.87 169.225 1070.5 290.531 954.993Z" stroke="#C8841D"/>
<path d="M317.304 955.396C444.65 832.674 556.994 459.55 455.339 354.065C353.684 248.581 76.5263 450.681 -50.8197 573.403C-178.166 696.126 -378.228 867.704 -276.574 973.189C-174.919 1078.67 189.958 1078.12 317.304 955.396Z" stroke="#C78118"/>
<path d="M344.099 955.367C477.403 825.358 593.402 431.875 485.763 321.509C378.123 211.142 87.6059 425.685 -45.6981 555.694C-179.002 685.704 -388.553 867.616 -280.913 977.982C-173.274 1088.35 210.795 1085.38 344.099 955.367Z" stroke="#C77E12"/>
<path d="M370.911 954.903C510.09 817.531 629.507 403.634 515.82 288.453C402.134 173.272 98.3967 400.424 -40.7823 537.797C-179.961 675.17 -398.883 867.533 -285.197 982.714C-171.511 1097.89 231.732 1092.28 370.911 954.903Z" stroke="#C67C0C"/>
<path d="M397.738 954.006C542.709 809.196 665.301 374.83 545.507 254.904C425.713 134.977 108.896 374.904 -36.0741 519.714C-181.045 664.525 -409.22 867.459 -289.426 987.385C-169.632 1107.31 252.768 1098.82 397.738 954.006Z" stroke="#C57906"/>
</g>
</svg>
