<svg width="390" height="625" viewBox="0 0 390 625" fill="none" xmlns="http://www.w3.org/2000/svg">
<g opacity="0.65">
<path d="M18.5757 167.109C32.2958 149.139 57.5456 137.723 89.1895 131.794C120.816 125.868 158.742 125.44 197.696 129.367C275.625 137.222 357.527 162.487 401.237 195.86C423.056 212.52 441.625 239.023 456.336 270.579C471.045 302.129 481.881 338.697 488.256 375.445C494.63 412.194 496.54 449.106 493.405 481.345C490.269 513.597 482.09 541.113 468.34 559.122C454.619 577.093 436.622 583.93 415.934 583.04C395.213 582.15 371.791 573.505 347.305 560.478C306.568 538.805 263.037 505.086 224.314 475.091C216.485 469.028 208.853 463.116 201.48 457.487C157.69 424.052 98.1446 369.43 56.4674 314.128C35.6269 286.475 19.2775 258.682 11.5856 233.304C3.89454 207.93 4.87821 185.049 18.5757 167.109Z" stroke="#C47600"/>
<path d="M379.658 466.823C380.756 465.385 382.828 464.417 385.556 463.906C388.267 463.398 391.538 463.358 394.917 463.699C401.695 464.382 408.762 466.578 412.489 469.423C414.317 470.819 415.902 473.066 417.172 475.789C418.439 478.507 419.376 481.665 419.928 484.847C420.48 488.028 420.643 491.215 420.374 493.987C420.103 496.772 419.401 499.08 418.273 500.557C417.174 501.997 415.75 502.543 414.071 502.471C412.36 502.397 410.383 501.678 408.263 500.55C404.738 498.675 400.969 495.756 397.581 493.132C396.893 492.599 396.222 492.079 395.571 491.582C391.763 488.675 386.588 483.926 382.974 479.131C381.166 476.731 379.771 474.35 379.121 472.204C378.471 470.061 378.583 468.231 379.658 466.823Z" stroke="#D6AF76"/>
<path d="M402.073 208.491C318.25 144.491 88.2939 111.763 35.3694 181.079C-17.5551 250.396 126.594 395.51 210.416 459.51C294.238 523.509 413.426 625.955 466.35 556.638C519.275 487.322 485.895 272.491 402.073 208.491Z" stroke="#C57806"/>
<path d="M402.609 221.516C322.594 160.424 103.085 129.182 52.5643 195.349C2.04407 261.517 139.645 400.039 219.659 461.131C299.674 522.223 413.446 620.015 463.966 553.848C514.487 487.68 482.624 282.608 402.609 221.516Z" stroke="#C67B0B"/>
<path d="M403.145 234.545C326.939 176.36 117.875 146.604 69.7593 209.623C21.6433 272.642 152.695 404.572 228.902 462.757C305.109 520.941 413.467 614.08 461.583 551.061C509.699 488.042 479.352 292.73 403.145 234.545Z" stroke="#C67E11"/>
<path d="M403.682 247.57C331.283 192.292 132.666 164.023 86.9542 223.893C41.2425 283.763 165.746 409.1 238.145 464.378C310.544 519.656 413.487 608.14 459.199 548.27C504.911 488.4 476.081 302.847 403.682 247.57Z" stroke="#C78116"/>
<path d="M404.218 260.598C335.627 208.228 147.457 181.446 104.149 238.167C60.8417 294.889 178.797 413.633 247.388 466.003C315.979 518.374 413.508 602.204 456.816 545.483C500.123 488.762 472.809 312.968 404.218 260.598Z" stroke="#C8831C"/>
<path d="M404.755 273.623C339.972 224.16 162.247 198.865 121.344 252.437C80.441 306.01 191.848 418.162 256.631 467.625C321.414 517.088 413.529 596.264 454.432 542.692C495.335 489.12 469.538 323.086 404.755 273.623Z" stroke="#C98622"/>
<path d="M405.291 286.652C344.316 240.096 177.038 216.288 138.539 266.711C100.04 317.135 204.899 422.695 265.874 469.25C326.849 515.806 413.549 590.328 452.048 539.905C490.547 489.482 466.266 333.207 405.291 286.652Z" stroke="#CA8927"/>
<path d="M405.823 299.676C348.656 256.028 191.825 233.707 155.73 280.981C119.635 328.256 217.946 427.224 275.113 470.872C332.28 514.52 413.566 584.389 449.661 537.114C485.756 489.84 462.991 343.325 405.823 299.676Z" stroke="#CB8C2D"/>
<path d="M406.36 312.705C353 271.964 206.616 251.13 172.925 295.255C139.235 339.381 230.996 431.757 284.356 472.497C337.715 513.238 413.587 578.453 447.277 534.327C480.968 490.202 459.719 353.446 406.36 312.705Z" stroke="#CC8E33"/>
<path d="M406.896 325.73C357.345 287.897 221.406 268.549 190.12 309.525C158.834 350.502 244.047 436.286 293.599 474.119C343.15 511.952 413.607 572.513 444.894 531.537C476.18 490.56 456.448 363.563 406.896 325.73Z" stroke="#CC9138"/>
<path d="M407.433 338.759C361.689 303.833 236.197 285.972 207.315 323.799C178.433 361.627 257.098 440.818 302.842 475.744C348.585 510.67 413.628 566.577 442.51 528.75C471.392 490.922 453.176 373.685 407.433 338.759Z" stroke="#CD943E"/>
<path d="M407.969 351.783C366.033 319.765 250.988 303.391 224.51 338.069C198.032 372.748 270.149 445.347 312.085 477.366C354.02 509.385 413.649 560.638 440.126 525.959C466.604 491.28 449.905 383.802 407.969 351.783Z" stroke="#CE9743"/>
<path d="M408.505 364.812C370.377 335.701 265.778 320.814 241.705 352.343C217.632 383.873 283.2 449.88 321.328 478.991C359.455 508.103 413.669 554.702 437.743 523.172C461.816 491.642 446.633 393.923 408.505 364.812Z" stroke="#CF9949"/>
<path d="M409.042 377.837C374.722 351.633 280.569 338.233 258.9 366.613C237.231 394.994 296.251 454.409 330.571 480.613C364.89 506.817 413.69 548.762 435.359 520.381C457.028 492 443.362 404.041 409.042 377.837Z" stroke="#D09C4F"/>
<path d="M409.574 390.866C379.062 367.569 295.356 355.656 276.091 380.887C256.826 406.119 309.297 458.942 339.81 482.238C370.322 505.535 413.707 542.826 432.972 517.594C452.237 492.362 440.086 414.162 409.574 390.866Z" stroke="#D19F54"/>
<path d="M410.111 403.89C383.406 383.501 310.147 373.075 293.286 395.157C276.425 417.24 322.348 463.471 349.052 483.86C375.757 504.249 413.727 536.886 430.588 514.803C447.449 492.72 436.815 424.279 410.111 403.89Z" stroke="#D1A25A"/>
<path d="M410.647 416.919C387.751 399.437 324.937 390.497 310.481 409.431C296.025 428.366 335.399 468.004 358.295 485.485C381.192 502.967 413.748 530.95 428.204 512.016C442.661 493.082 433.543 434.401 410.647 416.919Z" stroke="#D2A45F"/>
<path d="M411.183 429.944C392.095 415.37 339.728 407.916 327.676 423.701C315.624 439.487 348.45 472.533 367.538 487.107C386.627 501.681 413.769 525.011 425.821 509.226C437.873 493.44 430.272 444.518 411.183 429.944Z" stroke="#D3A765"/>
<path d="M411.72 442.973C396.439 431.306 354.519 425.339 344.871 437.975C335.223 450.612 361.501 477.065 376.781 488.732C392.062 500.399 413.789 519.075 423.437 506.439C433.085 493.802 427 454.639 411.72 442.973Z" stroke="#D4AA6B"/>
<path d="M412.256 455.997C400.783 447.238 369.31 442.758 362.066 452.246C354.822 461.733 374.552 481.594 386.024 490.354C397.497 499.113 413.81 513.135 421.054 503.648C428.297 494.161 423.729 464.757 412.256 455.997Z" stroke="#D5AD70"/>
</g>
</svg>
