<svg width="928" height="1022" viewBox="0 0 928 1022" fill="none" xmlns="http://www.w3.org/2000/svg">
<g opacity="0.8">
<path d="M261.671 319.06C285.399 281.876 332.568 255.605 392.917 238.946C453.25 222.291 526.668 215.269 602.772 216.513C754.999 219.001 917.825 254.56 1008.02 312.117C1053.08 340.871 1093.41 389.232 1127.07 447.974C1160.73 506.71 1187.7 575.791 1206.05 645.946C1224.4 716.1 1234.14 787.311 1233.33 850.301C1232.52 913.304 1221.17 968.026 1197.42 1005.25C1173.69 1042.44 1139.8 1058.68 1099.46 1060.34C1059.09 1062 1012.24 1049.06 962.675 1027.82C880.21 992.483 790.367 934.267 710.485 882.507C694.338 872.044 678.599 861.846 663.41 852.153C573.128 794.542 448.867 698.464 359.095 598.139C314.208 547.974 277.969 496.774 258.901 448.814C239.835 400.856 237.962 356.213 261.671 319.06Z" stroke="#C47600"/>
<path d="M1066.85 815.034C1038.42 791.975 958.032 779.442 938.232 803.848C918.432 828.254 966.72 880.357 995.144 903.416C1023.57 926.475 1063.79 963.327 1083.59 938.921C1103.39 914.515 1095.27 838.093 1066.85 815.034Z" stroke="#D5AD70"/>
<path d="M1067.65 788.204C1031.79 759.468 931.062 743.974 906.611 774.484C882.16 804.994 943.245 869.955 979.102 898.691C1014.96 927.427 1065.76 973.361 1090.21 942.851C1114.66 912.341 1103.5 816.94 1067.65 788.204Z" stroke="#D4AA6A"/>
<path d="M1068.02 761.39C1024.66 727.065 903.556 708.852 874.526 745.523C845.497 782.193 919.534 859.86 962.894 894.184C1006.25 928.509 1067.73 983.401 1096.76 946.731C1125.79 910.06 1111.38 795.714 1068.02 761.39Z" stroke="#D3A764"/>
<path d="M1067.96 734.595C1017.03 694.77 875.513 674.083 841.978 716.969C808.443 759.855 895.587 850.075 946.517 889.899C997.446 929.724 1069.72 993.446 1103.25 950.56C1136.79 907.674 1118.89 774.419 1067.96 734.595Z" stroke="#D2A45E"/>
<path d="M1067.46 707.823C1008.9 662.588 846.937 639.669 808.971 688.826C771.004 737.983 871.405 840.601 929.972 885.836C988.539 931.071 1071.71 1003.5 1109.68 954.34C1147.65 905.183 1126.03 753.058 1067.46 707.823Z" stroke="#D1A158"/>
<path d="M1066.54 681.079C1000.27 630.524 817.832 605.617 775.507 661.099C733.181 716.581 846.992 831.442 913.263 881.997C979.533 932.553 1073.71 1013.55 1116.04 958.071C1158.36 902.589 1132.81 731.634 1066.54 681.079Z" stroke="#D09E53"/>
<path d="M1065.18 654.366C991.136 598.581 788.199 571.93 741.59 633.791C694.981 695.652 822.351 822.6 896.39 878.384C970.43 934.169 1075.72 1023.62 1122.33 961.754C1168.94 899.893 1139.22 710.151 1065.18 654.366Z" stroke="#CF9B4D"/>
<path d="M1063.38 627.688C981.511 566.765 758.043 538.615 707.225 606.907C656.407 675.2 797.484 814.075 879.357 874.998C961.23 935.921 1077.74 1033.68 1128.55 965.389C1179.37 897.097 1145.26 688.611 1063.38 627.688Z" stroke="#CF9847"/>
<path d="M1061.16 601.049C971.389 535.08 727.366 505.675 672.415 580.451C617.464 655.228 772.394 805.871 862.164 871.84C951.935 937.809 1079.76 1043.75 1134.71 968.978C1189.66 894.201 1150.93 667.018 1061.16 601.049Z" stroke="#CE9541"/>
<path d="M1058.5 574.452C960.773 503.529 696.173 473.114 637.164 554.427C578.155 635.739 747.084 797.988 844.815 868.911C942.546 939.835 1081.79 1053.83 1140.8 972.52C1199.81 891.207 1156.23 645.376 1058.5 574.452Z" stroke="#CD933B"/>
<path d="M1055.42 547.903C949.664 472.119 664.466 440.939 601.476 528.838C538.486 616.737 721.557 790.43 827.311 866.214C933.064 941.999 1083.83 1063.92 1146.82 976.016C1209.81 888.116 1161.17 623.687 1055.42 547.903Z" stroke="#CC9035"/>
<path d="M1051.9 521.404C938.062 440.852 632.248 409.153 565.354 503.689C498.46 598.226 695.816 783.199 809.653 863.75C923.491 944.302 1085.88 1074 1152.77 979.467C1219.66 884.93 1165.74 601.955 1051.9 521.404Z" stroke="#CB8D2F"/>
<path d="M1047.95 494.959C925.968 409.735 599.524 377.761 528.803 478.984C458.082 580.207 669.864 776.295 791.845 861.52C913.827 946.744 1087.93 1084.1 1158.65 982.873C1229.37 881.65 1169.93 580.184 1047.95 494.959Z" stroke="#CA8A29"/>
<path d="M1043.57 468.573C913.382 378.77 566.293 346.768 491.822 454.727C417.351 562.685 643.699 769.722 773.885 859.525C904.07 949.329 1089.99 1094.19 1164.46 986.236C1238.93 878.277 1173.75 558.377 1043.57 468.573Z" stroke="#C98723"/>
<path d="M1038.76 442.249C900.31 347.962 532.566 316.178 454.424 430.92C376.282 545.662 617.333 763.48 755.782 857.767C894.23 952.053 1092.06 1104.3 1170.2 989.554C1248.34 874.812 1177.21 536.535 1038.76 442.249Z" stroke="#C8841D"/>
<path d="M1033.52 415.991C886.752 317.317 498.342 285.995 416.608 407.569C334.873 529.142 590.765 757.573 737.534 856.247C884.303 954.921 1094.14 1114.4 1175.87 992.831C1257.6 871.257 1180.29 514.665 1033.52 415.991Z" stroke="#C78118"/>
<path d="M1027.85 389.802C872.707 286.837 463.627 256.225 378.378 384.676C293.13 513.128 563.997 752.001 719.144 854.966C874.291 957.932 1096.22 1124.52 1181.47 996.065C1266.72 867.613 1183 492.767 1027.85 389.802Z" stroke="#C77E12"/>
<path d="M1021.76 363.688C858.179 256.528 428.422 226.871 339.739 362.247C251.057 497.623 537.032 746.767 700.614 853.927C864.195 961.086 1098.31 1134.63 1187 999.258C1275.68 863.882 1185.34 470.847 1021.76 363.688Z" stroke="#C67C0C"/>
<path d="M1015.24 337.651C843.167 226.394 392.731 197.939 300.695 340.284C208.658 482.63 509.874 741.872 681.945 853.129C854.016 964.385 1100.42 1144.75 1192.45 1002.41C1284.49 860.064 1187.31 448.907 1015.24 337.651Z" stroke="#C57906"/>
</g>
</svg>
