<svg width="1145" height="1520" viewBox="0 0 1145 1520" fill="none" xmlns="http://www.w3.org/2000/svg">
<g opacity="0.65">
<path d="M26.3738 937.296C29.1178 939.997 30.6709 944.425 31.2183 949.838C31.7644 955.238 31.3017 961.544 30.0882 967.915C27.6566 980.679 22.2408 993.554 16.0623 999.829C13.0071 1002.93 8.34041 1005.26 2.83296 1006.82C-2.66712 1008.37 -8.96458 1009.15 -15.237 1009.18C-21.5095 1009.21 -27.7398 1008.49 -33.1047 1007.07C-38.4802 1005.65 -42.9376 1003.53 -45.7145 1000.8C-48.4625 998.089 -49.3224 995.019 -48.8933 991.711C-48.46 988.371 -46.7079 984.767 -44.172 981.065C-39.9525 974.906 -33.6676 968.618 -28.0451 962.993C-26.906 961.853 -25.7941 960.741 -24.732 959.662C-18.4768 953.309 -8.42765 944.929 1.46831 939.549C6.41829 936.859 11.2971 934.937 15.6237 934.376C19.9423 933.816 23.6534 934.617 26.3738 937.296Z" stroke="#D7B27C"/>
<path d="M631.543 246.931C666.602 273.7 688.818 322.909 700.348 384.445C711.875 445.963 712.705 519.712 705.071 595.442C689.803 746.923 640.69 906.185 575.759 991.227C543.321 1033.71 491.742 1069.84 430.38 1098.44C369.024 1127.05 297.921 1148.12 226.473 1160.51C155.024 1172.91 83.2482 1176.62 20.5482 1170.52C-42.1645 1164.43 -95.7391 1148.52 -130.838 1121.72C-165.899 1094.95 -179.238 1059.82 -177.504 1019.48C-175.768 979.11 -158.932 933.52 -133.604 885.913C-91.4641 806.707 -25.9065 722.073 32.3822 646.822C44.1642 631.612 55.6492 616.785 66.5837 602.463C131.576 517.341 237.753 401.59 345.267 320.565C399.025 280.051 453.088 248.242 502.481 233.271C551.871 218.301 596.513 220.186 631.543 246.931Z" stroke="#C47600"/>
<path d="M43.0351 1004.1C62.0377 984.569 76.3821 925.474 59.3548 908.908C42.3274 892.342 0.376124 924.578 -18.6264 944.11C-37.629 963.642 -67.6762 990.973 -50.6488 1007.54C-33.6215 1024.1 24.0326 1023.63 43.0351 1004.1Z" stroke="#D6AF76"/>
<path d="M69.6763 1007.59C95.0418 981.204 114.284 902.152 91.6277 880.372C68.9714 858.592 12.9962 902.331 -12.3694 928.717C-37.7349 955.103 -77.8357 992.087 -55.1794 1013.87C-32.5231 1035.65 44.3108 1033.98 69.6763 1007.59Z" stroke="#D5AD70"/>
<path d="M96.3461 1010.65C127.993 977.33 151.895 878.26 123.547 851.332C95.1988 824.405 25.336 879.816 -6.31093 913.133C-37.9579 946.449 -87.9976 993.207 -59.6496 1020.13C-31.3017 1047.06 64.6992 1043.96 96.3461 1010.65Z" stroke="#D4AA6A"/>
<path d="M123.033 1013.27C160.879 972.947 189.201 853.802 155.099 821.795C120.998 789.787 37.3855 857.038 -0.460679 897.36C-38.3069 937.683 -98.1697 994.334 -64.0679 1026.34C-29.9661 1058.35 85.1866 1053.59 123.033 1013.27Z" stroke="#D3A764"/>
<path d="M149.736 1015.46C193.699 968.055 226.203 828.779 186.285 791.76C146.368 754.74 49.1462 833.996 5.18361 881.4C-38.779 928.804 -108.348 995.468 -68.4309 1032.49C-28.5137 1069.51 105.774 1062.86 149.736 1015.46Z" stroke="#D2A45E"/>
<path d="M176.457 1017.22C226.452 962.656 262.897 803.196 217.104 761.233C171.31 719.271 60.6195 810.696 10.6241 865.256C-39.3713 919.815 -118.529 996.61 -72.7352 1038.57C-26.9417 1080.53 126.462 1071.78 176.457 1017.22Z" stroke="#D1A158"/>
<path d="M203.183 1018.54C259.127 956.749 299.273 777.053 247.543 730.216C195.812 683.38 71.7955 787.138 15.8515 848.927C-40.0926 910.716 -128.719 997.758 -76.9891 1044.59C-25.259 1091.43 147.239 1080.33 203.183 1018.54Z" stroke="#D09E53"/>
<path d="M229.918 1019.43C291.726 950.335 335.332 750.355 277.605 698.713C219.879 647.072 82.6795 763.326 20.8717 832.417C-40.9361 901.508 -138.912 998.912 -81.1855 1050.55C-23.459 1102.19 168.11 1088.52 229.918 1019.43Z" stroke="#CF9B4D"/>
<path d="M256.65 1019.88C324.236 943.417 371.061 723.104 307.279 666.729C243.497 610.353 93.2614 739.263 25.6755 815.728C-41.9105 892.194 -149.115 1000.08 -85.3327 1056.45C-21.5507 1112.83 189.064 1096.35 256.65 1019.88Z" stroke="#CF9847"/>
<path d="M283.384 1019.9C356.662 935.993 406.465 695.303 336.569 634.263C266.673 573.224 103.547 714.951 30.2689 798.861C-43.0091 882.772 -159.319 1001.24 -89.4234 1062.28C-19.5275 1123.32 210.106 1103.81 283.384 1019.9Z" stroke="#CE9541"/>
<path d="M310.108 1019.49C388.991 928.065 441.528 666.955 365.461 601.324C289.393 535.692 113.526 690.393 34.6426 781.819C-44.2406 873.246 -169.534 1002.42 -93.466 1068.05C-17.3984 1133.68 231.225 1110.92 310.108 1019.49Z" stroke="#CD933B"/>
<path d="M336.825 1018.64C421.226 919.632 476.256 638.062 393.959 567.91C311.663 497.759 123.204 665.59 38.8028 764.603C-45.5982 863.615 -179.75 1003.6 -97.4534 1073.76C-15.1568 1143.91 252.424 1117.66 336.825 1018.64Z" stroke="#CC9035"/>
<path d="M363.524 1017.37C453.355 910.699 510.634 608.63 422.052 534.03C333.47 459.43 132.571 640.548 42.7401 747.215C-47.0905 853.883 -189.976 1004.8 -101.394 1079.4C-12.8117 1154 273.694 1124.03 363.524 1017.37Z" stroke="#CB8D2F"/>
<path d="M390.209 1015.65C485.381 901.262 544.667 578.658 449.743 499.682C354.82 420.707 141.632 615.267 46.4607 729.657C-48.7108 844.047 -200.204 1005.99 -105.28 1084.97C-10.3565 1163.95 295.038 1130.04 390.209 1015.65Z" stroke="#CA8A29"/>
<path d="M416.868 1013.5C517.291 891.324 578.34 548.151 477.02 464.874C375.7 381.596 150.378 589.75 49.9553 711.931C-50.4677 834.111 -210.441 1007.2 -109.12 1090.48C-7.80026 1173.75 316.445 1135.69 416.868 1013.5Z" stroke="#C98723"/>
<path d="M443.505 1010.92C549.09 880.887 611.658 517.113 503.886 429.608C396.115 342.102 158.815 564.002 53.2302 694.039C-52.3544 824.077 -220.679 1008.41 -112.908 1095.92C-5.1364 1183.43 337.921 1140.96 443.505 1010.92Z" stroke="#C8841D"/>
<path d="M470.109 1007.91C580.765 869.95 644.607 485.546 530.33 393.886C416.053 302.227 166.932 538.022 56.2761 675.983C-54.3796 813.943 -230.928 1009.63 -116.651 1101.29C-2.37396 1192.95 359.453 1145.87 470.109 1007.91Z" stroke="#C78118"/>
<path d="M496.679 1004.47C612.315 858.517 677.187 453.454 556.351 357.715C435.516 261.977 174.731 511.817 59.0953 657.766C-56.5402 803.714 -241.181 1010.86 -120.346 1106.6C0.489655 1202.34 381.043 1150.41 496.679 1004.47Z" stroke="#C77E12"/>
<path d="M523.215 1000.59C643.739 846.585 709.397 420.839 581.95 321.096C454.503 221.354 182.214 485.387 61.6904 639.387C-58.8333 793.388 -251.436 1012.1 -123.989 1111.84C3.45717 1211.58 402.692 1154.59 523.215 1000.59Z" stroke="#C67C0C"/>
<path d="M549.707 996.275C675.026 834.159 741.224 387.706 607.114 284.036C473.004 180.366 189.371 458.736 64.0519 620.852C-61.2675 782.968 -261.7 1013.34 -127.59 1117.01C6.51945 1220.68 424.387 1158.39 549.707 996.275Z" stroke="#C57906"/>
</g>
</svg>
