<svg width="390" height="810" viewBox="0 0 390 810" fill="none" xmlns="http://www.w3.org/2000/svg">
<g opacity="0.65">
<path d="M89.3307 164.432C108.659 152.703 136.333 151.281 167.96 157.301C199.57 163.316 235.04 176.748 269.879 194.61C339.577 230.343 406.625 283.737 435.154 330.752C449.395 354.221 457.02 385.671 459.21 420.419C461.4 455.16 458.155 493.161 450.689 529.703C443.223 566.246 431.54 601.313 416.864 630.188C402.182 659.075 384.532 681.714 365.161 693.468C345.831 705.198 326.581 705.001 307.642 696.628C288.673 688.242 270.016 671.651 251.967 650.592C221.939 615.555 193.703 568.283 168.585 526.233C163.507 517.732 158.556 509.444 153.744 501.514C125.163 454.412 89.6372 381.837 70.9977 315.145C61.6772 281.796 56.5894 249.954 58.6818 223.519C60.774 197.087 70.0342 176.141 89.3307 164.432Z" stroke="#C47600"/>
<path d="M316.247 575.185C317.793 574.247 320.076 574.101 322.802 574.62C325.512 575.135 328.572 576.292 331.594 577.841C337.656 580.949 343.436 585.571 345.868 589.58C347.062 591.546 347.718 594.216 347.907 597.214C348.096 600.207 347.816 603.49 347.17 606.653C346.524 609.817 345.514 612.844 344.252 615.327C342.984 617.821 341.489 619.714 339.9 620.679C338.351 621.618 336.827 621.607 335.29 620.928C333.723 620.235 332.144 618.845 330.582 617.022C327.983 613.99 325.539 609.897 323.341 606.219C322.895 605.472 322.459 604.742 322.034 604.042C319.549 599.947 316.462 593.638 314.846 587.855C314.037 584.961 313.607 582.235 313.784 579.999C313.961 577.767 314.732 576.104 316.247 575.185Z" stroke="#D6AF76"/>
<path d="M431.328 342.819C376.618 252.659 174.434 138.323 99.8754 183.566C25.3172 228.808 106.619 416.496 161.329 506.657C216.039 596.818 289.658 735.674 364.216 690.431C438.775 645.189 486.038 432.98 431.328 342.819Z" stroke="#C57806"/>
<path d="M427.079 355.142C374.854 269.078 181.855 159.936 110.683 203.123C39.5121 246.311 117.12 425.473 169.345 511.537C221.57 597.602 291.845 730.15 363.016 686.963C434.187 643.776 479.304 441.207 427.079 355.142Z" stroke="#C67B0B"/>
<path d="M422.826 367.469C373.086 285.5 189.272 181.553 121.487 222.685C53.7032 263.817 127.618 434.452 177.358 516.421C227.097 598.391 294.027 724.631 361.811 683.499C429.596 642.367 472.565 449.438 422.826 367.469Z" stroke="#C67E11"/>
<path d="M418.573 379.793C371.318 301.919 196.689 203.166 132.291 242.243C67.8943 281.319 138.116 443.429 185.37 521.302C232.624 599.175 296.21 719.107 360.607 680.031C425.004 640.954 465.827 457.666 418.573 379.793Z" stroke="#C78116"/>
<path d="M414.323 392.119C369.554 318.342 204.109 224.783 143.099 261.804C82.0893 298.826 148.617 452.409 193.386 526.186C238.155 599.964 298.396 713.588 359.406 676.566C420.417 639.545 459.092 465.897 414.323 392.119Z" stroke="#C8831C"/>
<path d="M410.07 404.443C367.787 334.761 211.526 246.396 153.903 281.362C96.2803 316.328 159.115 461.385 201.398 531.066C243.682 600.748 300.579 708.064 358.202 673.098C415.825 638.132 452.353 474.124 410.07 404.443Z" stroke="#C98622"/>
<path d="M405.817 416.769C366.019 351.184 218.944 268.012 164.707 300.923C110.471 333.834 169.613 470.365 209.411 535.95C249.209 601.536 302.762 702.545 356.998 669.634C411.234 636.723 445.615 482.355 405.817 416.769Z" stroke="#CA8927"/>
<path d="M401.568 429.093C364.255 367.603 226.364 289.625 175.515 320.481C124.666 351.337 180.114 479.341 217.427 540.831C254.74 602.321 304.948 697.021 355.797 666.166C406.646 635.31 438.88 490.583 401.568 429.093Z" stroke="#CB8C2D"/>
<path d="M397.314 441.419C362.487 384.025 233.781 311.242 186.319 340.042C138.857 368.843 190.612 488.321 225.439 545.715C260.267 603.109 307.131 691.501 354.593 662.701C402.055 633.901 432.142 498.814 397.314 441.419Z" stroke="#CC8E33"/>
<path d="M393.065 453.743C360.723 400.445 241.202 332.855 197.127 359.6C153.052 386.345 201.114 497.297 233.456 550.595C265.797 603.894 309.317 685.978 353.392 659.233C397.467 632.488 425.407 507.041 393.065 453.743Z" stroke="#CC9138"/>
<path d="M388.812 466.07C358.955 416.867 248.619 354.472 207.931 379.162C167.243 403.852 211.611 506.277 241.468 555.479C271.324 604.682 311.5 680.458 352.188 655.769C392.876 631.079 418.668 515.272 388.812 466.07Z" stroke="#CD943E"/>
<path d="M384.559 478.393C357.188 433.286 256.036 376.085 218.735 398.719C181.435 421.354 222.109 515.253 249.48 560.36C276.851 605.466 313.682 674.935 350.983 652.301C388.284 629.666 411.93 523.5 384.559 478.393Z" stroke="#CE9743"/>
<path d="M380.31 490.72C355.424 449.709 263.457 397.702 229.543 418.281C195.63 438.86 232.611 524.233 257.496 565.244C282.382 606.255 315.869 669.415 349.783 648.836C383.697 628.257 405.195 531.731 380.31 490.72Z" stroke="#CF9949"/>
<path d="M376.056 503.043C353.656 466.128 270.874 419.315 240.347 437.839C209.821 456.363 243.108 533.209 265.509 570.124C287.909 607.039 318.051 663.892 348.578 645.368C379.105 626.844 398.457 539.958 376.056 503.043Z" stroke="#D09C4F"/>
<path d="M371.803 515.37C351.888 482.551 278.291 440.932 251.151 457.4C224.012 473.869 253.606 542.189 273.521 575.008C293.436 607.828 320.234 658.372 347.374 641.904C374.514 625.435 391.718 548.189 371.803 515.37Z" stroke="#D19F54"/>
<path d="M367.554 527.693C350.124 498.97 285.712 462.545 261.959 476.958C238.207 491.371 264.108 551.165 281.537 579.889C298.967 608.612 322.421 652.849 346.173 638.436C369.926 624.022 384.983 556.417 367.554 527.693Z" stroke="#D1A25A"/>
<path d="M363.301 540.02C348.356 515.392 293.129 484.161 272.763 496.519C252.398 508.878 274.605 560.145 289.55 584.773C304.494 609.4 324.603 647.329 344.969 634.971C365.335 622.613 378.245 564.648 363.301 540.02Z" stroke="#D2A45F"/>
<path d="M359.051 552.343C346.593 531.811 300.55 505.774 283.571 516.077C266.593 526.38 285.107 569.121 297.566 589.653C310.025 610.185 326.79 641.806 343.768 631.503C360.747 621.2 371.51 572.875 359.051 552.343Z" stroke="#D3A765"/>
<path d="M354.798 564.67C344.825 548.234 307.967 527.391 294.375 535.639C280.784 543.886 295.605 578.101 305.578 594.537C315.552 610.973 328.972 636.286 342.564 628.038C356.156 619.791 364.772 581.106 354.798 564.67Z" stroke="#D4AA6B"/>
<path d="M350.549 576.993C343.061 564.653 315.388 549.004 305.183 555.196C294.979 561.389 306.106 587.077 313.594 599.417C321.083 611.758 331.159 630.763 341.363 624.57C351.568 618.378 358.037 589.333 350.549 576.993Z" stroke="#D5AD70"/>
</g>
</svg>
