<svg width="390" height="724" viewBox="0 0 390 724" fill="none" xmlns="http://www.w3.org/2000/svg">
<g opacity="0.65">
<path d="M111.441 176.688C127.846 161.131 154.591 153.88 186.775 153.062C218.942 152.245 256.452 157.859 294.285 167.935C369.97 188.092 446.808 226.07 484.649 265.975C503.539 285.895 517.653 315.015 527.154 348.511C536.654 382 541.533 419.826 541.977 457.12C542.422 494.415 538.432 531.161 530.207 562.49C521.978 593.832 509.524 619.695 493.083 635.286C476.676 650.845 457.82 654.73 437.538 650.559C417.223 646.382 395.475 634.12 373.375 617.362C336.606 589.481 298.996 549.264 265.54 513.489C258.777 506.257 252.183 499.206 245.8 492.475C207.889 452.497 157.796 389.095 125.451 327.865C109.278 297.247 97.5599 267.206 94.0049 240.927C90.4504 214.652 95.0631 192.22 111.441 176.688Z" stroke="#C47600"/>
<path d="M483.465 278.578C410.897 202.054 189.081 133.144 125.799 193.154C62.517 253.164 181.733 419.37 254.301 495.895C326.87 572.419 428.233 692.528 491.515 632.518C554.797 572.508 556.034 355.103 483.465 278.578Z" stroke="#C57806"/>
<path d="M481.923 291.523C412.651 218.474 200.912 152.695 140.505 209.979C80.0974 267.263 193.898 425.918 263.169 498.966C332.441 572.015 429.2 686.668 489.607 629.383C550.014 572.099 551.195 364.571 481.923 291.523Z" stroke="#C67B0B"/>
<path d="M480.377 304.47C414.402 234.899 212.739 172.249 155.206 226.807C97.6739 281.365 206.059 432.47 272.034 502.042C338.009 571.614 430.162 680.811 487.695 626.253C545.227 571.695 546.352 374.042 480.377 304.47Z" stroke="#C67E11"/>
<path d="M478.834 317.415C416.156 251.319 224.57 191.8 169.912 243.632C115.254 295.464 218.223 439.018 280.902 505.114C343.58 571.209 431.129 674.95 485.787 623.118C540.444 571.286 541.513 383.51 478.834 317.415Z" stroke="#C78116"/>
<path d="M477.288 330.363C417.906 267.743 236.397 211.355 184.614 260.461C132.831 309.566 230.384 445.57 289.766 508.19C349.147 570.809 432.092 669.093 483.875 619.987C535.658 570.882 536.67 392.982 477.288 330.363Z" stroke="#C8831C"/>
<path d="M475.746 343.307C419.661 284.164 248.227 230.906 199.319 277.285C150.411 323.665 242.549 452.119 298.634 511.262C354.719 570.404 433.059 663.232 481.967 616.853C530.875 570.473 531.831 402.449 475.746 343.307Z" stroke="#C98622"/>
<path d="M474.199 356.255C421.411 300.588 260.054 250.461 214.021 294.114C167.988 337.767 254.709 458.671 307.498 514.337C360.286 570.004 434.021 657.375 480.055 613.722C526.088 570.068 526.988 411.921 474.199 356.255Z" stroke="#CA8927"/>
<path d="M472.657 369.199C423.165 317.009 271.885 270.012 228.727 310.939C185.568 351.866 266.874 465.219 316.366 517.409C365.858 569.599 434.988 651.514 478.147 610.587C521.305 569.66 522.149 421.389 472.657 369.199Z" stroke="#CB8C2D"/>
<path d="M471.114 382.146C424.919 333.433 283.716 289.566 243.432 327.767C203.149 365.968 279.039 471.771 325.234 520.485C371.429 569.198 435.955 645.657 476.238 607.456C516.522 569.255 517.31 430.86 471.114 382.146Z" stroke="#CC8E33"/>
<path d="M469.568 395.09C426.67 349.853 295.543 309.117 258.134 344.592C220.725 380.067 291.2 478.319 334.098 523.556C376.997 568.794 436.917 639.796 474.326 604.321C511.735 568.846 512.467 440.328 469.568 395.09Z" stroke="#CC9138"/>
<path d="M468.026 408.038C428.424 366.277 307.374 328.672 272.84 361.42C238.306 394.169 303.364 484.871 342.966 526.632C382.568 568.393 437.884 633.939 472.418 601.191C506.953 568.442 507.628 449.799 468.026 408.038Z" stroke="#CD943E"/>
<path d="M466.479 420.982C430.174 382.698 319.201 348.223 287.542 378.245C255.882 408.268 315.525 491.419 351.83 529.704C388.136 567.989 438.847 628.078 470.506 598.056C502.166 568.033 502.785 459.267 466.479 420.982Z" stroke="#CE9743"/>
<path d="M464.937 433.93C431.928 399.122 331.032 367.777 302.247 395.074C273.462 422.37 327.69 497.971 360.698 532.78C393.707 567.588 439.814 622.222 468.598 594.925C497.383 567.629 497.946 468.739 464.937 433.93Z" stroke="#CF9949"/>
<path d="M463.391 446.874C433.679 415.543 342.859 387.328 316.949 411.899C291.039 436.469 339.85 504.52 369.563 535.852C399.275 567.184 440.776 616.361 466.686 591.79C492.596 567.22 493.103 478.206 463.391 446.874Z" stroke="#D09C4F"/>
<path d="M461.848 459.822C435.433 431.967 354.69 406.883 331.655 428.727C308.619 450.571 352.015 511.072 378.431 538.927C404.846 566.783 441.743 610.504 464.778 588.66C487.813 566.815 488.264 487.678 461.848 459.822Z" stroke="#D19F54"/>
<path d="M460.302 472.767C437.183 448.387 366.517 426.434 346.356 445.552C326.196 464.67 364.176 517.62 387.295 541.999C410.414 566.378 442.706 604.643 462.866 585.525C483.027 566.407 483.421 497.146 460.302 472.767Z" stroke="#D1A25A"/>
<path d="M458.76 485.714C438.937 464.811 378.348 445.988 361.062 462.38C343.776 478.772 376.341 524.172 396.163 545.075C415.985 565.978 443.673 598.786 460.958 582.394C478.244 566.002 478.582 506.617 458.76 485.714Z" stroke="#D2A45F"/>
<path d="M457.213 498.658C440.688 481.232 390.175 465.539 375.764 479.205C361.353 492.871 388.501 530.72 405.027 548.147C421.553 565.573 444.635 592.925 459.046 579.259C473.457 565.593 473.739 516.085 457.213 498.658Z" stroke="#D3A765"/>
<path d="M455.671 511.606C442.442 497.656 402.005 485.094 390.469 496.034C378.933 506.973 400.666 537.272 413.895 551.222C427.124 565.172 445.602 587.068 457.138 576.128C468.674 565.189 468.9 525.556 455.671 511.606Z" stroke="#D4AA6B"/>
</g>
</svg>
